<svg width="23" height="23" viewBox="0 0 23 23" fill="none" xmlns="http://www.w3.org/2000/svg">
<path d="M10.017 0C10.4071 0.0588128 10.799 0.107423 11.1867 0.178839C14.8992 0.864188 17.9624 3.96986 18.6027 7.69787C19.0624 10.3739 18.4809 12.8056 16.8797 14.9961C16.8491 15.0381 16.8209 15.0813 16.7783 15.1419C16.8395 15.2067 16.8977 15.2715 16.9595 15.3327C18.8332 17.2069 20.7062 19.0817 22.5829 20.9536C22.9076 21.2776 23.0756 21.6467 22.9658 22.1082C22.7617 22.9652 21.7535 23.2869 21.0885 22.7059C20.9421 22.5781 20.8095 22.4353 20.6714 22.2972C18.8818 20.5083 17.0928 18.7187 15.3037 16.9291C15.2563 16.8817 15.2065 16.8373 15.1459 16.779C14.9857 16.8919 14.829 17.0041 14.67 17.1127C9.22005 20.8539 1.67141 17.8833 0.231056 11.4277C0.138634 11.013 0.102025 10.5863 0.0378092 10.1656C0.0300073 10.1152 0.0126031 10.0666 0 10.0174C0 9.59789 0 9.179 0 8.7595C0.0354086 8.49365 0.0642156 8.22659 0.106826 7.96193C0.400297 6.12793 1.15588 4.50818 2.40058 3.12848C3.81273 1.56334 5.55615 0.567123 7.63326 0.172237C8.00595 0.101422 8.38404 0.0570124 8.75973 0C9.17924 0 9.59814 0 10.0176 0H10.017ZM16.4578 9.36624C16.4392 5.43118 13.283 2.2847 9.36708 2.2967C5.44513 2.3087 2.28716 5.47679 2.29616 9.39084C2.30516 13.3127 5.47513 16.4688 9.39109 16.455C13.3244 16.4412 16.4758 13.2797 16.4572 9.36624H16.4578Z" fill="#1E1E1E"/>
</svg>
