<svg width="23" height="29" viewBox="0 0 23 29" fill="none" xmlns="http://www.w3.org/2000/svg">
<path d="M13.6568 0C13.8311 0.0537293 14.0084 0.100098 14.1797 0.161924C15.2183 0.535085 15.9118 1.50884 15.9214 2.60329C15.9237 2.89696 15.9214 3.1899 15.9214 3.527C16.0278 3.527 16.1246 3.527 16.2213 3.527C17.723 3.527 19.2239 3.52552 20.7255 3.527C22.0536 3.52847 22.9961 4.47351 22.999 5.80276C22.9997 6.3533 23.0012 6.90384 22.999 7.45512C22.9961 8.00713 22.6356 8.3722 22.0846 8.3722C15.0284 8.37367 7.97302 8.37367 0.916871 8.3722C0.368067 8.3722 0.00466033 8.00419 0.0017058 7.45512C-0.00124873 6.89501 0.000228533 6.33564 0.0017058 5.77553C0.00466033 4.48455 0.956757 3.5292 2.24715 3.527C3.74879 3.52479 5.24969 3.527 6.75132 3.527C6.8503 3.527 6.94928 3.527 7.07854 3.527C7.07854 3.23995 7.07854 2.97719 7.07854 2.7137C7.08149 1.36605 7.89694 0.35108 9.21762 0.0500492C9.2612 0.0397449 9.30182 0.0169284 9.34392 0C10.7813 0 12.2187 0 13.6568 0ZM8.84756 3.50859H14.1532C14.1532 3.198 14.1672 2.90506 14.1502 2.6136C14.1221 2.13003 13.7572 1.77086 13.2675 1.76644C12.0894 1.7554 10.912 1.75614 9.73392 1.76644C9.24568 1.77086 8.87785 2.13371 8.85052 2.6136C8.83427 2.90506 8.84756 3.198 8.84756 3.50786V3.50859Z" fill="#A8A8A8"/>
<path d="M11.5077 10.1377C14.7134 10.1377 17.919 10.1377 21.1247 10.1377C21.5538 10.1377 21.6196 10.2157 21.5982 10.636C21.5073 12.4503 21.4231 14.2653 21.3345 16.0803C21.2311 18.2067 21.124 20.333 21.022 22.4594C20.974 23.4581 20.9275 24.4577 20.8906 25.4572C20.8558 26.4022 20.519 27.189 19.7235 27.7425C19.2907 28.0435 18.8069 28.2055 18.2751 28.2055C13.7613 28.2062 9.24749 28.2091 4.73371 28.204C3.30372 28.2025 2.20242 27.1022 2.11822 25.5779C2.02293 23.8644 1.96089 22.1495 1.8789 20.4361C1.77771 18.3281 1.67134 16.2201 1.5672 14.1122C1.50885 12.9206 1.45123 11.729 1.39584 10.5374C1.3818 10.2304 1.47856 10.1384 1.80725 10.1384C5.04025 10.1384 8.27398 10.1384 11.507 10.1384L11.5077 10.1377ZM6.19103 18.0403C6.19103 18.6093 6.19103 19.1775 6.19103 19.7464C6.19103 21.0764 6.1866 22.4064 6.19325 23.7371C6.1962 24.4142 6.79154 24.8455 7.39131 24.6188C7.75767 24.4805 7.96227 24.1463 7.96227 23.6731C7.96227 19.9392 7.96227 16.2062 7.96227 12.4723C7.96227 12.4083 7.96449 12.3435 7.95784 12.2802C7.88841 11.6517 7.25762 11.2851 6.70069 11.5538C6.32547 11.7349 6.1903 12.0558 6.19103 12.4547C6.19325 14.3168 6.19177 16.1789 6.19177 18.041L6.19103 18.0403ZM10.614 18.0727C10.614 18.8433 10.614 19.6139 10.614 20.3845C10.614 21.504 10.6088 22.6228 10.6162 23.7422C10.6206 24.4172 11.2211 24.8477 11.8194 24.6174C12.1769 24.4797 12.3852 24.1471 12.3852 23.6951C12.3859 19.9429 12.3852 16.1914 12.3852 12.4392C12.3852 12.384 12.3867 12.3288 12.38 12.2744C12.3047 11.623 11.6259 11.2609 11.069 11.5788C10.7307 11.7717 10.6125 12.083 10.6132 12.4584C10.6162 14.3301 10.6147 16.201 10.6147 18.0727H10.614ZM16.8081 18.0999C16.8081 17.4029 16.8081 16.7059 16.8081 16.0082C16.8081 14.8063 16.8133 13.6043 16.8059 12.4032C16.8022 11.7142 16.1832 11.2763 15.5827 11.5347C15.1787 11.7084 15.0347 12.044 15.0347 12.4672C15.0369 16.201 15.0362 19.9341 15.0362 23.6679C15.0362 23.7319 15.0339 23.7967 15.0406 23.8607C15.1048 24.4628 15.6987 24.833 16.249 24.6144C16.6043 24.4738 16.8067 24.1419 16.8067 23.687C16.8081 21.8249 16.8067 19.9628 16.8067 18.1007L16.8081 18.0999Z" fill="#A8A8A8"/>
</svg>
