<svg width="172" height="153" viewBox="0 0 172 153" fill="none" xmlns="http://www.w3.org/2000/svg">
<mask id="mask0_2558_69" style="mask-type:alpha" maskUnits="userSpaceOnUse" x="0" y="0" width="172" height="153">
<rect width="172" height="153" rx="10" fill="white"/>
</mask>
<g mask="url(#mask0_2558_69)">
<path d="M2 0.782239C2 -3.63604 5.58172 -7.21777 10 -7.21777H173V171.217H10C5.58172 171.217 2 167.635 2 163.217V0.782239Z" fill="#FFCB05"/>
<path d="M120.369 74.271C120.369 85.5854 120.372 96.9022 120.369 108.217C120.369 111.036 118.814 113.04 116.212 113.565C115.792 113.649 115.348 113.636 114.917 113.638C98.0878 113.64 81.259 113.638 64.4301 113.638C61.1293 113.638 59.0054 111.551 59.0031 108.274C58.9961 97.1014 59.0031 85.929 59.0031 74.7565C59.0031 63.2978 59.0031 51.839 59.0031 40.3825C59.0031 37.5333 60.5189 35.5498 63.1209 34.9978C63.5109 34.9154 63.9264 34.9177 64.328 34.9177C81.1847 34.9131 98.0437 34.9131 114.9 34.9131C118.257 34.9131 120.365 36.9905 120.367 40.323C120.372 51.6374 120.367 62.9542 120.369 74.2687V74.271ZM61.1525 74.2274H61.1572C61.1572 78.2837 61.1572 82.3423 61.1572 86.3985C61.1572 93.5422 61.1363 100.684 61.1873 107.827C61.1943 108.698 61.4195 109.655 61.8396 110.411C62.3828 111.384 63.4738 111.565 64.5717 111.565C77.285 111.556 90.0007 111.558 102.714 111.558C106.827 111.558 110.938 111.565 115.051 111.554C116.841 111.549 117.927 110.587 118.143 108.858C118.197 108.434 118.204 108.004 118.204 107.575C118.208 91.3755 118.21 75.1757 118.21 58.9758C118.21 52.8903 118.213 46.8047 118.206 40.7192C118.206 39.7756 118.197 38.8228 117.516 38.044C116.795 37.2195 115.859 36.9882 114.791 36.9882C98.0507 36.9973 81.3124 36.9927 64.5717 36.9927C64.3698 36.9927 64.1655 36.9859 63.9635 37.0019C62.4872 37.1096 61.4473 38.0669 61.2477 39.5236C61.185 39.9748 61.1549 40.4329 61.1549 40.8887C61.1502 52.0039 61.1502 63.1168 61.1502 74.232L61.1525 74.2274Z" fill="#C1BBBB"/>
<path d="M73.7702 58.1625C73.7818 49.5209 80.9428 42.5971 89.7495 42.5558C98.4773 42.5146 105.78 49.8324 105.62 58.5404C105.473 66.5292 99.0042 74.0165 89.6241 73.9798C80.2185 73.9432 73.617 66.3254 73.7702 58.1602V58.1625ZM100.873 66.0757C104.475 61.7515 104.768 53.7237 99.2967 48.504C93.7048 43.1719 84.8238 43.4239 79.6011 48.9666C74.4294 54.4589 75.207 62.3378 78.5171 66.0689C80.6967 64.8206 82.8438 63.5907 84.8726 62.4295C84.2551 61.3805 83.3266 60.3063 82.9854 59.074C82.6349 57.8098 82.6906 56.3668 82.881 55.0453C83.0736 53.7031 83.9464 52.606 84.9817 51.6784C87.4213 49.4934 91.3465 49.3399 94.0252 51.3761C95.4063 52.4251 96.3162 53.8108 96.6365 55.4988C97.1542 58.2266 96.293 60.5491 94.3269 62.3195C96.539 63.5884 98.6699 64.8092 100.87 66.0712L100.873 66.0757ZM88.879 64.0625C86.2491 64.0717 83.2709 65.2054 80.6665 67.3629C80.1443 67.7958 80.121 68.0867 80.6735 68.5631C85.7407 72.9125 93.4774 72.9583 98.6026 68.6364C99.3431 68.0111 99.357 67.9103 98.591 67.2782C96.0075 65.1481 93.034 64.0579 88.8767 64.0648L88.879 64.0625ZM89.7611 52.0747C86.9269 52.0678 84.7472 54.1383 84.7356 56.8524C84.7217 59.6695 86.8549 61.834 89.652 61.8385C92.449 61.8454 94.6287 59.7291 94.6357 57.0035C94.6426 54.2253 92.5233 52.0815 89.7634 52.0747H89.7611Z" fill="#C1BBBB"/>
<path d="M89.7006 90.8305C83.2731 90.8305 76.848 90.8305 70.4205 90.8305C68.3291 90.8305 67.338 89.8571 67.3333 87.8004C67.331 86.4009 67.3263 85.0015 67.3356 83.6021C67.3472 82.0813 68.3407 81.0209 69.8774 80.8834C70.1072 80.8628 70.3393 80.8766 70.5714 80.8766C83.3079 80.8766 96.0468 80.8766 108.783 80.8766C111.095 80.8766 112.04 81.8087 112.042 84.0968C112.042 85.297 112.042 86.4949 112.042 87.695C112.042 89.8755 111.079 90.8351 108.89 90.8351C102.493 90.8351 96.0956 90.8351 89.6983 90.8351L89.7006 90.8305ZM89.696 88.7394C96.0375 88.7394 102.379 88.7394 108.721 88.7394C109.8 88.7394 109.921 88.6249 109.928 87.6584C109.935 86.6025 109.93 85.5443 109.93 84.4885C109.93 83.002 109.907 82.9791 108.354 82.9791C95.9609 82.9791 83.5679 82.9791 71.1749 82.9791C70.8848 82.9791 70.5969 82.9814 70.3068 82.9906C69.7102 83.0112 69.4247 83.2883 69.4386 83.909C69.4642 85.0519 69.4433 86.1948 69.4456 87.3377C69.4456 88.7028 69.4874 88.7463 70.8453 88.7463C77.1289 88.7463 83.4124 88.7463 89.696 88.7463V88.7394Z" fill="#C1BBBB"/>
<path d="M89.6859 96.125C94.1473 96.125 98.6064 96.1228 103.068 96.125C104.862 96.125 105.937 97.1763 105.946 98.933C105.953 100.332 105.953 101.734 105.946 103.134C105.939 104.961 104.934 105.971 103.026 105.983C99.2609 106.006 95.4959 105.99 91.7286 105.99C86.7751 105.99 81.8216 105.99 76.8681 105.99C74.273 105.99 73.4234 105.156 73.4234 102.625C73.4234 101.368 73.4142 100.11 73.4258 98.8529C73.442 97.2061 74.5376 96.1296 76.2135 96.1273C80.7028 96.1228 85.192 96.1273 89.6836 96.125H89.6859ZM89.6836 103.85C94.0521 103.85 98.423 103.839 102.792 103.862C103.525 103.867 103.859 103.647 103.841 102.893C103.811 101.638 103.824 100.381 103.836 99.1254C103.841 98.4796 103.548 98.1933 102.887 98.2047C101.786 98.2253 100.688 98.2093 99.5882 98.2093C91.977 98.2093 84.368 98.2093 76.7567 98.2093C75.682 98.2093 75.552 98.3238 75.5427 99.2903C75.5311 100.403 75.5357 101.517 75.5427 102.63C75.5474 103.802 75.5938 103.85 76.7497 103.85C81.0602 103.85 85.3731 103.85 89.6836 103.85Z" fill="#C1BBBB"/>
<path d="M137.416 87.6576C136.872 84.0826 135.686 80.734 133.789 77.6464C132.481 75.5193 130.972 73.535 129.115 71.8318C127.003 69.8965 124.724 68.1948 122.099 66.9806C119.129 65.514 116 64.5953 112.687 64.3084C112.51 64.2824 112.333 64.2521 112.155 64.2305C110.822 64.0719 109.491 64.1872 108.158 64.2146C106.721 64.2435 105.317 64.4266 103.925 64.754C102.45 64.9876 101.037 65.4332 99.6531 65.9682C97.6362 66.7484 95.7041 67.6915 93.9517 68.9649C93.8889 68.9981 93.8202 69.0241 93.7617 69.0659C86.1574 74.4997 82.0738 81.8358 81.7567 91.1013C81.5418 97.3817 83.4345 103.079 87.2082 108.147C89.1111 110.702 91.3852 112.889 94.0876 114.625C95.8049 115.854 97.6918 116.769 99.6604 117.524C101.185 118.108 102.74 118.599 104.368 118.827C104.482 118.937 104.631 118.918 104.773 118.947C105.689 119.132 106.635 119.127 107.541 119.372H111.915C112.249 119.15 112.664 119.316 113.01 119.15C113.96 119.117 114.887 118.921 115.809 118.715C118.248 118.168 120.598 117.378 122.785 116.157C124.384 115.326 125.911 114.386 127.302 113.243C129.167 111.713 130.874 110.033 132.299 108.088C135.347 103.929 137.157 99.3098 137.616 94.1874C137.625 94.085 137.599 93.9668 137.725 93.9077V89.5914C137.492 88.9684 137.517 88.3036 137.419 87.659L137.416 87.6576ZM122.631 107.106C122.202 107.298 121.763 107.472 121.345 107.686C121.035 107.844 120.856 107.785 120.613 107.531C118.596 105.413 116.07 104.214 113.223 103.617C113.153 103.603 113.079 103.61 113.007 103.607C111.38 103.199 109.726 103.208 108.074 103.343C106.768 103.45 105.486 103.714 104.258 104.188C102.211 104.879 100.418 105.977 98.9034 107.498C98.6052 107.798 98.3889 107.83 98.025 107.642C97.3322 107.288 96.619 106.969 95.8999 106.669C95.5623 106.528 95.5258 106.411 95.7538 106.121C97.0881 104.428 98.7616 103.136 100.654 102.12C101.992 101.402 103.45 100.978 104.913 100.577C106.93 100.122 108.976 99.9948 111.038 100.05C111.038 98.8685 111.038 97.6889 111.038 96.5078C108.862 96.7501 106.831 96.3809 105.02 95.1003C103.741 94.1312 102.752 92.9314 102.119 91.4647C101.761 90.637 101.56 89.7659 101.559 88.856C101.555 86.8817 101.454 84.9017 101.559 82.9332C101.642 81.4075 102.266 80.0072 103.231 78.7886C103.554 78.3805 103.928 78.0098 104.279 77.6234C106.796 75.6001 109.605 75.1703 112.668 76.1293C114.838 77.0436 116.433 78.5276 117.317 80.7124C117.65 81.5372 117.859 82.3953 117.873 83.2779C117.903 85.3055 117.998 87.336 117.827 89.3593C117.539 92.7828 114.976 95.6252 111.563 96.3823C111.386 96.4213 111.212 96.466 111.036 96.5092C111.036 97.6903 111.036 98.87 111.036 100.051C112.68 100.236 114.314 100.458 115.899 100.96C118.146 101.671 120.166 102.775 121.971 104.269C121.998 104.187 122.019 104.103 122.034 104.02C122.017 104.103 121.997 104.187 121.971 104.269C122.643 104.966 123.362 105.62 123.929 106.47C123.48 106.691 123.054 106.9 122.628 107.109L122.631 107.106Z" fill="#1E1E1E"/>
</g>
</svg>
