<svg width="13" height="14" viewBox="0 0 13 14" fill="none" xmlns="http://www.w3.org/2000/svg">
<path d="M12.7704 2.80955C12.763 3.36816 12.5293 3.84944 12.1254 4.26095C9.74285 6.68914 7.35506 9.11244 4.9895 11.558C4.57169 11.9899 4.12728 12.2797 3.54592 12.421C2.56638 12.6587 1.60254 12.9631 0.628666 13.2262C0.508731 13.2587 0.355214 13.2422 0.239641 13.1933C0.0599562 13.1169 -0.0146215 12.8992 0.0420751 12.689C0.376585 11.4464 0.712838 10.2048 1.05563 8.9649C1.08311 8.86491 1.15333 8.76714 1.2266 8.69204C3.78143 6.07898 6.3367 3.46593 8.89851 0.859535C9.71102 0.0329553 10.9008 0.0431764 11.7163 0.865312C11.9422 1.09329 12.1721 1.31993 12.3727 1.56968C12.6514 1.91676 12.77 2.33093 12.7704 2.80955ZM8.46631 2.61402C6.36636 4.75779 4.26073 6.90689 2.16601 9.04489C2.82675 9.71949 3.50056 10.407 4.16697 11.0869C6.2643 8.94579 8.37123 6.79535 10.4673 4.65647C9.80129 3.97654 9.12791 3.2895 8.46674 2.61402H8.46631ZM11.1053 3.96721C11.2854 3.80011 11.493 3.64191 11.6583 3.44637C11.9806 3.06508 11.9797 2.47181 11.6566 2.08918C11.4424 1.83632 11.2113 1.59279 10.9588 1.38081C10.6238 1.09951 10.22 1.04707 9.84709 1.26482C9.56055 1.43192 9.32592 1.691 9.07994 1.89942C9.78603 2.62024 10.4585 3.30683 11.1053 3.96765V3.96721ZM1.69979 9.91947C1.50179 10.6518 1.30074 11.3944 1.08922 12.177C1.85767 11.9597 2.58382 11.7544 3.29951 11.5517C2.76613 11.0073 2.23754 10.4683 1.69936 9.91947H1.69979Z" fill="#A8A8A8"/>
</svg>
