<svg width="12" height="15" viewBox="0 0 12 15" fill="none" xmlns="http://www.w3.org/2000/svg">
<path d="M6.98094 0.297852C7.06766 0.324579 7.15584 0.347645 7.24108 0.378399C7.75768 0.564024 8.10269 1.04841 8.10747 1.59284C8.10857 1.73892 8.10747 1.88464 8.10747 2.05232C8.16038 2.05232 8.20851 2.05232 8.25664 2.05232C9.00362 2.05232 9.75023 2.05159 10.4972 2.05232C11.1578 2.05305 11.6267 2.52316 11.6281 3.18438C11.6285 3.45824 11.6292 3.7321 11.6281 4.00633C11.6267 4.28092 11.4474 4.46252 11.1733 4.46252C7.66325 4.46325 4.1536 4.46325 0.643589 4.46252C0.370592 4.46252 0.189818 4.27946 0.188349 4.00633C0.186879 3.72771 0.187614 3.44945 0.188349 3.17083C0.189818 2.52865 0.66343 2.05342 1.30532 2.05232C2.0523 2.05122 2.79891 2.05232 3.54588 2.05232C3.59512 2.05232 3.64435 2.05232 3.70865 2.05232C3.70865 1.90953 3.70865 1.77883 3.70865 1.64775C3.71012 0.977379 4.11576 0.472493 4.77272 0.322748C4.79439 0.317622 4.8146 0.306272 4.83555 0.297852C5.55056 0.297852 6.26557 0.297852 6.98094 0.297852ZM4.58864 2.04317H7.22785C7.22785 1.88866 7.23483 1.74295 7.22638 1.59796C7.21242 1.35742 7.03091 1.17875 6.78731 1.17655C6.20127 1.17106 5.61559 1.17143 5.02955 1.17655C4.78668 1.17875 4.6037 1.35925 4.59011 1.59796C4.58202 1.74295 4.58864 1.88866 4.58864 2.0428V2.04317Z" fill="#A8A8A8"/>
<path d="M5.91352 5.34076C7.50814 5.34076 9.10277 5.34076 10.6974 5.34076C10.9109 5.34076 10.9436 5.37957 10.9329 5.58863C10.8877 6.49112 10.8458 7.39399 10.8017 8.29685C10.7503 9.35459 10.697 10.4123 10.6463 11.4701C10.6224 11.9669 10.5993 12.4641 10.5809 12.9613C10.5637 13.4314 10.3961 13.8228 10.0004 14.0981C9.78508 14.2478 9.54441 14.3284 9.27987 14.3284C7.03453 14.3288 4.78919 14.3302 2.54386 14.3277C1.83252 14.3269 1.28469 13.7796 1.2428 13.0213C1.19541 12.169 1.16454 11.3159 1.12376 10.4636C1.07342 9.415 1.02051 8.36642 0.968704 7.31783C0.939677 6.72508 0.911018 6.13232 0.883461 5.53956C0.87648 5.38689 0.924613 5.34113 1.08812 5.34113C2.69634 5.34113 4.30493 5.34113 5.91315 5.34113L5.91352 5.34076ZM3.26879 9.27184C3.26879 9.55486 3.26879 9.83751 3.26879 10.1205C3.26879 10.7821 3.26658 11.4437 3.26989 12.1056C3.27136 12.4425 3.5675 12.657 3.86585 12.5443C4.0481 12.4754 4.14987 12.3092 4.14987 12.0738C4.14987 10.2164 4.14987 8.35946 4.14987 6.50211C4.14987 6.47025 4.15098 6.43804 4.14767 6.40655C4.11313 6.09388 3.79935 5.91155 3.52231 6.04518C3.33566 6.13525 3.26842 6.29488 3.26879 6.49332C3.26989 7.41962 3.26915 8.34591 3.26915 9.27221L3.26879 9.27184ZM5.46893 9.28795C5.46893 9.67128 5.46893 10.0546 5.46893 10.438C5.46893 10.9948 5.46636 11.5513 5.47003 12.1082C5.47224 12.4439 5.77096 12.6581 6.06857 12.5435C6.2464 12.4751 6.35002 12.3096 6.35002 12.0848C6.35039 10.2183 6.35002 8.35214 6.35002 6.48563C6.35002 6.45817 6.35075 6.43071 6.34745 6.40362C6.30997 6.0796 5.9723 5.89947 5.69527 6.05763C5.52698 6.15356 5.4682 6.30843 5.46856 6.49515C5.47003 7.42621 5.4693 8.3569 5.4693 9.28795H5.46893ZM8.55016 9.3015C8.55016 8.95478 8.55016 8.60806 8.55016 8.26097C8.55016 7.66309 8.55273 7.06521 8.54906 6.46769C8.54722 6.125 8.23932 5.90715 7.9406 6.03566C7.73962 6.12207 7.66797 6.28902 7.66797 6.49954C7.66908 8.3569 7.66871 10.2139 7.66871 12.0712C7.66871 12.1031 7.66761 12.1353 7.67091 12.1672C7.70288 12.4666 7.99829 12.6508 8.27202 12.5421C8.44875 12.4721 8.54943 12.307 8.54943 12.0808C8.55016 11.1545 8.54943 10.2282 8.54943 9.30186L8.55016 9.3015Z" fill="#A8A8A8"/>
</svg>
