<svg width="18" height="13" viewBox="0 0 18 13" fill="none" xmlns="http://www.w3.org/2000/svg">
<path d="M0.667969 1.72764C0.748216 1.43834 0.850708 1.16192 1.06223 0.939279C1.35705 0.629534 1.71206 0.463774 2.13685 0.463774C6.72883 0.463774 11.3208 0.462885 15.9128 0.463774C16.7371 0.463774 17.3839 1.12148 17.3843 1.9605C17.386 4.95485 17.386 7.94876 17.3843 10.9431C17.3839 11.7817 16.7366 12.4403 15.9128 12.4403C11.3265 12.4416 6.73973 12.4412 2.15342 12.4403C1.43599 12.4403 0.863352 11.9688 0.698932 11.252C0.692826 11.2257 0.678872 11.2017 0.668405 11.1769C0.668405 8.02653 0.668405 4.87664 0.668405 1.72631L0.667969 1.72764ZM2.38369 1.46589C2.42512 1.51389 2.44475 1.53966 2.46699 1.56232C4.5181 3.65988 6.56877 5.75744 8.62075 7.85366C8.86018 8.09808 9.20123 8.09097 9.44808 7.83899C11.4883 5.75388 13.5276 3.66832 15.5669 1.58232C15.5975 1.55077 15.6228 1.51388 15.6625 1.46545H2.38369V1.46589ZM2.39372 11.4337H15.6642C14.2564 10.0134 12.8638 8.60958 11.4717 7.20528C11.0469 7.63591 10.6034 8.08519 10.1607 8.53537C9.50347 9.20463 8.54879 9.20418 7.89242 8.53314C7.489 8.12119 7.08602 7.70879 6.6826 7.29683C6.6416 7.25506 6.59799 7.21639 6.58971 7.20839C5.18843 8.61936 3.79762 10.0197 2.39372 11.4337ZM1.65056 10.6596C3.03309 9.26729 4.43436 7.85544 5.82866 6.45114C4.42956 5.03885 3.03134 3.62788 1.65056 2.23425V10.6596ZM16.3969 10.6849V2.24759C15.0192 3.63499 13.6183 5.04551 12.2083 6.46492C13.6096 7.87677 15.0078 9.28551 16.3969 10.6849Z" fill="black"/>
</svg>
