<svg width="12" height="15" viewBox="0 0 12 15" fill="none" xmlns="http://www.w3.org/2000/svg">
<path d="M6.38816 0C6.7947 0.0674909 7.20732 0.113708 7.60615 0.207241C8.64176 0.449695 9.52577 0.940105 10.2752 1.62602C11.0988 2.38016 11.6306 3.28285 11.8742 4.31795C12.0655 5.13078 12.0339 5.94324 11.8114 6.75129C11.5666 7.64078 11.1706 8.47598 10.7049 9.28477C9.66155 11.0971 8.3406 12.7385 6.9017 14.3066C6.75011 14.4717 6.5969 14.6356 6.43923 14.7963C6.17455 15.0663 5.82071 15.0696 5.56008 14.7963C3.92623 13.0819 2.4391 11.2732 1.27947 9.2591C0.778891 8.38978 0.354112 7.49039 0.133211 6.52315C-0.176051 5.16672 0.0525518 3.88586 0.825503 2.6934C1.62399 1.46279 2.7901 0.638229 4.29993 0.229249C4.68864 0.123978 5.10085 0.0898656 5.50212 0.0227415C5.53901 0.0165059 5.57508 0.00770277 5.61156 0C5.87056 0 6.12956 0 6.38816 0ZM6.00472 8.1598C7.686 8.14953 9.02519 6.92039 9.01222 5.40037C8.99966 3.96363 7.72208 2.69854 5.98648 2.70257C4.3048 2.70661 2.97655 3.94198 2.98709 5.45319C2.99763 6.94606 4.36154 8.1697 6.00472 8.15943V8.1598Z" fill="#BCBCBC"/>
</svg>
