<svg width="18" height="19" viewBox="0 0 18 19" fill="none" xmlns="http://www.w3.org/2000/svg">
<path d="M0.121094 4.48496C0.153367 4.36364 0.181715 4.24099 0.217914 4.121C0.507939 3.16866 1.32611 2.55983 2.35363 2.55228C3.59136 2.54339 4.82952 2.55094 6.06769 2.54917C6.2779 2.54917 6.44712 2.61805 6.54525 2.81669C6.6255 2.97845 6.59627 3.13222 6.48942 3.27131C6.3865 3.40508 6.24781 3.44463 6.08383 3.44418C4.857 3.44063 3.63061 3.44196 2.40378 3.44285C1.94934 3.44285 1.55639 3.58595 1.26985 3.96502C1.11023 4.1761 1.01385 4.41386 1.00382 4.68316C1.00076 4.75827 0.997273 4.83381 0.997273 4.90892C0.997273 8.67074 0.999018 12.433 0.99422 16.1948C0.993784 16.6774 1.13073 17.081 1.50972 17.384C1.76224 17.5858 2.05706 17.6609 2.36889 17.6613C6.38388 17.6636 10.3989 17.6645 14.4139 17.6613C15.0833 17.6609 15.5665 17.2894 15.7362 16.6552C15.7759 16.5068 15.7863 16.3468 15.7868 16.1917C15.7907 14.9456 15.7881 13.6991 15.7898 12.453C15.7903 12.1215 15.9966 11.9193 16.2831 11.9566C16.4623 11.9802 16.6202 12.1339 16.6481 12.3166C16.6569 12.3735 16.659 12.4321 16.659 12.4899C16.6595 13.7475 16.6643 15.0056 16.6577 16.2633C16.6525 17.3058 16.0899 18.1226 15.1614 18.4337C14.949 18.5048 14.7209 18.5261 14.4998 18.5706H2.30173C2.24678 18.5604 2.19183 18.5444 2.13644 18.5404C1.23104 18.475 0.45822 17.8404 0.206139 16.9525C0.175174 16.8437 0.149442 16.733 0.121094 16.6232C0.121094 12.577 0.121094 8.5312 0.121094 4.48496Z" fill="black"/>
<path d="M17.5673 3.38816C17.5599 3.94677 17.3261 4.42805 16.9223 4.83957C14.5397 7.26775 12.1519 9.69105 9.78638 12.1366C9.36857 12.5685 8.92415 12.8583 8.3428 12.9996C7.36325 13.2373 6.39941 13.5418 5.42554 13.8048C5.30561 13.8373 5.15209 13.8208 5.03652 13.772C4.85683 13.6955 4.78225 13.4778 4.83895 13.2676C5.17346 12.025 5.50971 10.7834 5.85251 9.54351C5.87999 9.44352 5.9502 9.34576 6.02347 9.27065C8.57831 6.6576 11.1336 4.04454 13.6954 1.43815C14.5079 0.611569 15.6976 0.62179 16.5132 1.44392C16.7391 1.6719 16.969 1.89854 17.1696 2.14829C17.4483 2.49537 17.5669 2.90955 17.5673 3.38816ZM13.2632 3.19263C11.1632 5.3364 9.05761 7.48551 6.96289 9.6235C7.62362 10.2981 8.29744 10.9856 8.96384 11.6655C11.0612 9.5244 13.1681 7.37396 15.2641 5.23508C14.5982 4.55515 13.9248 3.86811 13.2636 3.19263H13.2632ZM15.9022 4.54582C16.0823 4.37873 16.2899 4.22052 16.4552 4.02499C16.7775 3.64369 16.7766 3.05042 16.4535 2.6678C16.2393 2.41493 16.0082 2.1714 15.7557 1.95943C15.4207 1.67812 15.0169 1.62568 14.644 1.84344C14.3574 2.01053 14.1228 2.26962 13.8768 2.47804C14.5829 3.19885 15.2554 3.88544 15.9022 4.54626V4.54582ZM6.49667 10.4981C6.29867 11.2304 6.09761 11.973 5.88609 12.7556C6.65455 12.5383 7.3807 12.333 8.09638 12.1304C7.563 11.586 7.03441 11.0469 6.49623 10.4981H6.49667Z" fill="black"/>
</svg>
