<svg width="17" height="17" viewBox="0 0 17 17" fill="none" xmlns="http://www.w3.org/2000/svg">
<path d="M12.2161 16.8136C11.5655 16.8059 10.9905 16.6504 10.4275 16.4019C9.82044 16.1337 9.22577 15.849 8.67007 15.484C7.33906 14.6101 6.15798 13.5574 5.03925 12.4309C3.95675 11.3411 2.94531 10.1911 2.1058 8.89865C1.59596 8.11325 1.16543 7.28108 0.930683 6.37601C0.568931 4.98036 0.916928 3.73463 1.89306 2.67825C2.31992 2.21609 2.772 1.77685 3.2227 1.33807C4.02827 0.553591 5.28134 0.736988 5.83703 1.71679C6.12176 2.21884 6.40236 2.72319 6.68066 3.22891C7.07772 3.95058 6.9608 4.72085 6.36935 5.29855C6.25472 5.41042 6.1456 5.53009 6.01951 5.62729C5.59036 5.95741 5.53489 6.40719 5.61191 6.89365C5.69949 7.44752 5.94937 7.93719 6.26389 8.3911C7.11073 9.61253 8.14051 10.6524 9.39633 11.4525C9.90663 11.7775 10.4559 12.0187 11.0813 12.0008C11.3761 11.9926 11.6388 11.9055 11.8451 11.6758C11.9942 11.5098 12.1555 11.3553 12.3142 11.198C12.8703 10.646 13.6255 10.5295 14.3128 10.9004C14.84 11.1852 15.365 11.4754 15.8831 11.7766C16.8469 12.3364 17.0147 13.5923 16.2316 14.3882C15.73 14.8976 15.2435 15.4244 14.7011 15.8907C13.9799 16.511 13.1266 16.7971 12.2152 16.8136H12.2161Z" fill="black"/>
<path d="M16.4129 4.34567C16.4129 6.47309 14.8586 8.2062 12.7922 8.43453C12.1549 8.50468 11.5396 8.42627 10.9408 8.20345C10.8555 8.17181 10.7853 8.1686 10.6987 8.2062C10.2287 8.41206 9.75419 8.60876 9.28332 8.81324C9.04811 8.91549 8.82574 8.92053 8.62997 8.73943C8.4296 8.55374 8.41172 8.32953 8.50709 8.07919C8.66343 7.66792 8.80603 7.25207 8.95962 6.83988C8.99447 6.74681 8.99309 6.67666 8.9367 6.58679C7.35489 4.08295 8.8074 0.836354 11.7211 0.357228C13.9306 -0.00590014 16.0828 1.5915 16.3744 3.80786C16.4001 4.0018 16.4065 4.19529 16.4129 4.34567ZM12.3369 1.27559C12.1883 1.26688 11.9894 1.29622 11.7977 1.35124C11.2503 1.50759 10.8234 1.7969 10.6978 2.39982C10.6272 2.73957 10.7771 3.04217 11.0907 3.16597C11.3562 3.2705 11.712 3.27876 11.9059 2.91792C12.0393 2.66987 12.2337 2.62999 12.5194 2.68363C12.7624 2.72948 12.816 2.88995 12.6702 3.0949C12.5891 3.20861 12.4809 3.29159 12.3685 3.37137C11.7638 3.80144 11.5304 4.39106 11.6372 5.11778C11.6913 5.48549 12.0375 5.6776 12.4685 5.59415C12.8192 5.5263 12.9797 5.33465 12.9788 4.97656C12.9783 4.71522 13.0641 4.50202 13.2768 4.33559C13.5932 4.08754 13.8811 3.81107 14.0549 3.43694C14.4235 2.64328 14.1301 1.84183 13.336 1.47595C13.0356 1.33749 12.7193 1.27743 12.3369 1.27605V1.27559ZM13.1273 6.61797C13.125 6.15718 12.739 5.77663 12.2819 5.78443C11.8307 5.79222 11.4612 6.17277 11.4635 6.6276C11.4658 7.08197 11.8408 7.46023 12.2901 7.46206C12.744 7.46389 13.1296 7.07555 13.1273 6.61797Z" fill="black"/>
</svg>
