<svg width="172" height="153" viewBox="0 0 172 153" fill="none" xmlns="http://www.w3.org/2000/svg">
<mask id="mask0_4102_130" style="mask-type:alpha" maskUnits="userSpaceOnUse" x="0" y="0" width="172" height="153">
<rect width="172" height="153" rx="10" fill="white"/>
</mask>
<g mask="url(#mask0_4102_130)">
<path d="M2 0.782239C2 -3.63604 5.58172 -7.21777 10 -7.21777H173V171.217H10C5.58172 171.217 2 167.635 2 163.217V0.782239Z" fill="#FFCB05"/>
<path d="M120.369 74.271C120.369 85.5854 120.372 96.9022 120.369 108.217C120.369 111.036 118.814 113.04 116.212 113.565C115.792 113.649 115.348 113.636 114.917 113.638C98.0878 113.64 81.259 113.638 64.4301 113.638C61.1293 113.638 59.0054 111.551 59.0031 108.274C58.9961 97.1014 59.0031 85.929 59.0031 74.7565C59.0031 63.2978 59.0031 51.839 59.0031 40.3825C59.0031 37.5333 60.5189 35.5498 63.1209 34.9978C63.5109 34.9154 63.9264 34.9177 64.328 34.9177C81.1847 34.9131 98.0437 34.9131 114.9 34.9131C118.257 34.9131 120.365 36.9905 120.367 40.323C120.372 51.6374 120.367 62.9542 120.369 74.2687V74.271ZM61.1525 74.2274H61.1572C61.1572 78.2837 61.1572 82.3423 61.1572 86.3985C61.1572 93.5422 61.1363 100.684 61.1873 107.827C61.1943 108.698 61.4195 109.655 61.8396 110.411C62.3828 111.384 63.4738 111.565 64.5717 111.565C77.285 111.556 90.0007 111.558 102.714 111.558C106.827 111.558 110.938 111.565 115.051 111.554C116.841 111.549 117.927 110.587 118.143 108.858C118.197 108.434 118.204 108.004 118.204 107.575C118.208 91.3755 118.21 75.1757 118.21 58.9758C118.21 52.8903 118.213 46.8047 118.206 40.7192C118.206 39.7756 118.197 38.8228 117.516 38.044C116.795 37.2195 115.859 36.9882 114.791 36.9882C98.0507 36.9973 81.3124 36.9927 64.5717 36.9927C64.3698 36.9927 64.1655 36.9859 63.9635 37.0019C62.4872 37.1096 61.4473 38.0669 61.2477 39.5236C61.185 39.9748 61.1549 40.4329 61.1549 40.8887C61.1502 52.0039 61.1502 63.1168 61.1502 74.232L61.1525 74.2274Z" fill="#C1BBBB"/>
<path d="M73.7682 58.1625C73.7798 49.5209 80.9408 42.5971 89.7475 42.5558C98.4753 42.5146 105.778 49.8324 105.618 58.5404C105.471 66.5292 99.0022 74.0165 89.6222 73.9798C80.2166 73.9432 73.615 66.3254 73.7682 58.1602V58.1625ZM100.871 66.0757C104.473 61.7515 104.766 53.7237 99.2947 48.504C93.7029 43.1719 84.8219 43.4239 79.5991 48.9666C74.4275 54.4589 75.2051 62.3378 78.5151 66.0689C80.6948 64.8206 82.8419 63.5907 84.8706 62.4295C84.2532 61.3805 83.3247 60.3063 82.9835 59.074C82.633 57.8098 82.6887 56.3668 82.879 55.0453C83.0717 53.7031 83.9445 52.606 84.9797 51.6784C87.4193 49.4934 91.3445 49.3399 94.0232 51.3761C95.4043 52.4251 96.3143 53.8108 96.6346 55.4988C97.1522 58.2266 96.291 60.5491 94.325 62.3195C96.5371 63.5884 98.668 64.8092 100.868 66.0712L100.871 66.0757ZM88.8771 64.0625C86.2471 64.0717 83.269 65.2054 80.6646 67.3629C80.1423 67.7958 80.1191 68.0867 80.6715 68.5631C85.7388 72.9125 93.4754 72.9583 98.6007 68.6364C99.3411 68.0111 99.355 67.9103 98.589 67.2782C96.0055 65.1481 93.032 64.0579 88.8747 64.0648L88.8771 64.0625ZM89.7591 52.0747C86.9249 52.0678 84.7453 54.1383 84.7337 56.8524C84.7198 59.6695 86.8529 61.834 89.65 61.8385C92.4471 61.8454 94.6267 59.7291 94.6337 57.0035C94.6407 54.2253 92.5214 52.0815 89.7615 52.0747H89.7591Z" fill="#C1BBBB"/>
<path d="M89.6986 90.8305C83.2712 90.8305 76.846 90.8305 70.4186 90.8305C68.3271 90.8305 67.336 89.8571 67.3314 87.8004C67.329 86.4009 67.3244 85.0015 67.3337 83.6021C67.3453 82.0813 68.3388 81.0209 69.8754 80.8834C70.1052 80.8628 70.3373 80.8766 70.5694 80.8766C83.306 80.8766 96.0449 80.8766 108.781 80.8766C111.093 80.8766 112.038 81.8087 112.04 84.0968C112.04 85.297 112.04 86.4949 112.04 87.695C112.04 89.8755 111.077 90.8351 108.888 90.8351C102.491 90.8351 96.0936 90.8351 89.6963 90.8351L89.6986 90.8305ZM89.694 88.7394C96.0356 88.7394 102.377 88.7394 108.719 88.7394C109.798 88.7394 109.919 88.6249 109.926 87.6584C109.933 86.6025 109.928 85.5443 109.928 84.4885C109.928 83.002 109.905 82.9791 108.352 82.9791C95.959 82.9791 83.566 82.9791 71.173 82.9791C70.8828 82.9791 70.595 82.9814 70.3048 82.9906C69.7083 83.0112 69.4228 83.2883 69.4367 83.909C69.4622 85.0519 69.4413 86.1948 69.4437 87.3377C69.4437 88.7028 69.4855 88.7463 70.8434 88.7463C77.1269 88.7463 83.4105 88.7463 89.694 88.7463V88.7394Z" fill="#C1BBBB"/>
<path d="M89.6879 96.125C94.1492 96.125 98.6083 96.1228 103.07 96.125C104.864 96.125 105.939 97.1763 105.948 98.933C105.955 100.332 105.955 101.734 105.948 103.134C105.941 104.961 104.936 105.971 103.028 105.983C99.2629 106.006 95.4979 105.99 91.7305 105.99C86.7771 105.99 81.8236 105.99 76.8701 105.99C74.2749 105.99 73.4254 105.156 73.4254 102.625C73.4254 101.368 73.4161 100.11 73.4277 98.8529C73.444 97.2061 74.5396 96.1296 76.2155 96.1273C80.7047 96.1228 85.194 96.1273 89.6855 96.125H89.6879ZM89.6855 103.85C94.0541 103.85 98.425 103.839 102.793 103.862C103.527 103.867 103.861 103.647 103.843 102.893C103.812 101.638 103.826 100.381 103.838 99.1254C103.843 98.4796 103.55 98.1933 102.889 98.2047C101.788 98.2253 100.69 98.2093 99.5902 98.2093C91.9789 98.2093 84.3699 98.2093 76.7587 98.2093C75.6839 98.2093 75.554 98.3238 75.5447 99.2903C75.5331 100.403 75.5377 101.517 75.5447 102.63C75.5493 103.802 75.5957 103.85 76.7517 103.85C81.0622 103.85 85.375 103.85 89.6855 103.85Z" fill="#C1BBBB"/>
<path d="M137.418 87.6576C136.874 84.0826 135.688 80.734 133.791 77.6464C132.483 75.5193 130.974 73.535 129.117 71.8318C127.005 69.8965 124.726 68.1948 122.101 66.9806C119.131 65.514 116.002 64.5953 112.689 64.3084C112.512 64.2824 112.335 64.2521 112.157 64.2305C110.824 64.0719 109.493 64.1872 108.16 64.2146C106.723 64.2435 105.319 64.4266 103.927 64.754C102.452 64.9876 101.039 65.4332 99.6551 65.9682C97.6382 66.7484 95.706 67.6915 93.9537 68.9649C93.8908 68.9981 93.8221 69.0241 93.7637 69.0659C86.1593 74.4997 82.0758 81.8358 81.7586 91.1013C81.5438 97.3817 83.4365 103.079 87.2101 108.147C89.1131 110.702 91.3872 112.889 94.0896 114.625C95.8069 115.854 97.6937 116.769 99.6624 117.524C101.187 118.108 102.742 118.599 104.37 118.827C104.484 118.937 104.633 118.918 104.775 118.947C105.691 119.132 106.637 119.127 107.543 119.372H111.917C112.251 119.15 112.666 119.316 113.012 119.15C113.962 119.117 114.889 118.921 115.811 118.715C118.25 118.168 120.6 117.378 122.787 116.157C124.386 115.326 125.913 114.386 127.304 113.243C129.169 111.713 130.876 110.033 132.301 108.088C135.349 103.929 137.159 99.3098 137.618 94.1874C137.627 94.085 137.601 93.9668 137.726 93.9077V89.5914C137.494 88.9684 137.519 88.3036 137.421 87.659L137.418 87.6576ZM122.633 107.106C122.204 107.298 121.765 107.472 121.347 107.686C121.037 107.844 120.857 107.785 120.615 107.531C118.598 105.413 116.072 104.214 113.225 103.617C113.155 103.603 113.081 103.61 113.009 103.607C111.382 103.199 109.728 103.208 108.076 103.343C106.77 103.45 105.488 103.714 104.26 104.188C102.213 104.879 100.419 105.977 98.9053 107.498C98.6072 107.798 98.3909 107.83 98.0269 107.642C97.3342 107.288 96.6209 106.969 95.9019 106.669C95.5643 106.528 95.5277 106.411 95.7557 106.121C97.0901 104.428 98.7635 103.136 100.656 102.12C101.994 101.402 103.452 100.978 104.915 100.577C106.932 100.122 108.978 99.9948 111.04 100.05C111.04 98.8685 111.04 97.6889 111.04 96.5078C108.864 96.7501 106.833 96.3809 105.022 95.1003C103.743 94.1312 102.754 92.9314 102.121 91.4647C101.763 90.637 101.562 89.7659 101.561 88.856C101.557 86.8817 101.456 84.9017 101.561 82.9332C101.644 81.4075 102.268 80.0072 103.233 78.7886C103.556 78.3805 103.93 78.0098 104.281 77.6234C106.798 75.6001 109.607 75.1703 112.67 76.1293C114.84 77.0436 116.435 78.5276 117.319 80.7124C117.652 81.5372 117.861 82.3953 117.875 83.2779C117.905 85.3055 118 87.336 117.829 89.3593C117.541 92.7828 114.978 95.6252 111.565 96.3823C111.388 96.4213 111.214 96.466 111.037 96.5092C111.037 97.6903 111.037 98.87 111.037 100.051C112.682 100.236 114.316 100.458 115.901 100.96C118.148 101.671 120.168 102.775 121.973 104.269C122 104.187 122.021 104.103 122.035 104.02C122.019 104.103 121.999 104.187 121.973 104.269C122.645 104.966 123.364 105.62 123.931 106.47C123.482 106.691 123.056 106.9 122.63 107.109L122.633 107.106Z" fill="#1E1E1E"/>
</g>
</svg>
