<svg width="86" height="66" viewBox="0 0 86 66" fill="none" xmlns="http://www.w3.org/2000/svg">
<path d="M43.2272 65.9946C32.3219 65.9946 21.4191 65.9946 10.5138 65.9946C4.62282 65.9946 0.78418 62.2019 0.78418 56.384C0.78418 40.7978 0.78418 25.2115 0.78418 9.62525C0.78418 3.80481 4.62536 0.00963889 10.5113 0.00963889C16.3896 0.00963889 22.2705 -0.0153952 28.1488 0.0196525C31.7822 0.0396799 34.9595 1.21128 37.4578 3.91747C37.6706 4.14778 37.9392 4.36057 38.0608 4.63344C38.6183 5.88515 39.6064 6.04287 40.8784 6.03536C50.5827 5.98529 60.2844 6.00531 69.9887 6.00782C75.8721 6.00782 79.7589 9.80049 79.6601 15.6334C79.6297 17.4559 79.8755 18.6425 81.7454 19.6539C84.459 21.1209 85.7386 23.7946 85.7512 26.8713C85.7943 36.93 85.7968 46.9862 85.7563 57.0449C85.736 62.1068 81.7048 65.9796 76.5132 65.9896C65.4178 66.0096 54.325 65.9946 43.2297 65.9946H43.2272ZM46.3108 35.9912C46.6781 36.3166 46.9087 36.5094 47.1241 36.7172C49.1359 38.6573 51.1401 40.61 53.162 42.5426C54.5024 43.8244 56.347 43.8494 57.5657 42.6378C58.792 41.4186 58.7642 39.5936 57.4314 38.2918C54.1477 35.09 50.8614 31.8881 47.532 28.7338C45.0717 26.4031 41.5498 26.3706 39.0743 28.6988C35.6867 31.8831 32.3548 35.1275 29.0533 38.402C28.5795 38.8701 28.2704 39.6212 28.1488 40.2896C27.9334 41.4887 28.6733 42.6578 29.7754 43.206C30.9435 43.7868 32.2611 43.6066 33.2746 42.6478C35.3725 40.6576 37.4401 38.6373 39.5228 36.6346C39.7103 36.4543 39.9231 36.2966 40.2424 36.0262C40.2424 36.5294 40.2424 36.8674 40.2424 37.2054C40.2424 42.7629 40.2247 48.323 40.2652 53.8806C40.2703 54.564 40.4527 55.3251 40.7948 55.9109C41.4713 57.0724 42.9181 57.5155 44.1875 57.1275C45.4569 56.737 46.3057 55.5679 46.3082 54.1234C46.3184 48.4707 46.3133 42.818 46.3133 37.1653C46.3133 36.8349 46.3133 36.5044 46.3133 35.9937L46.3108 35.9912ZM42.0439 12.006C42.7052 13.3503 43.3412 14.557 43.8986 15.7962C44.5954 17.3433 45.7331 18.0292 47.4661 18.0217C55.8352 17.9841 64.2042 18.0042 72.5706 18.0042H73.6221C73.6221 17.0979 73.6221 16.3219 73.6221 15.5458C73.6196 13.1375 72.4693 12.006 70.0217 12.006C61.0522 12.006 52.0852 12.006 43.1157 12.006H42.0388H42.0439Z" fill="#F1F1F1"/>
</svg>
