<svg width="70" height="29" viewBox="0 0 70 29" fill="none" xmlns="http://www.w3.org/2000/svg">
<path d="M16.8731 28.1763L13.6931 24.3663C12.8131 24.5863 11.9131 24.6963 10.9931 24.6963C9.03313 24.6963 7.23313 24.2363 5.59313 23.3163C3.95313 22.3963 2.65313 21.1263 1.69313 19.5063C0.733125 17.8663 0.253125 16.0163 0.253125 13.9563C0.253125 11.9163 0.733125 10.0863 1.69313 8.46633C2.65313 6.82633 3.95313 5.54633 5.59313 4.62633C7.23313 3.70633 9.03313 3.24633 10.9931 3.24633C12.9731 3.24633 14.7731 3.70633 16.3931 4.62633C18.0331 5.54633 19.3231 6.82633 20.2631 8.46633C21.2231 10.0863 21.7031 11.9163 21.7031 13.9563C21.7031 15.8163 21.3031 17.5163 20.5031 19.0563C19.7231 20.5763 18.6531 21.8163 17.2931 22.7763L22.0931 28.1763H16.8731ZM4.57313 13.9563C4.57313 15.3563 4.84313 16.5863 5.38313 17.6463C5.92313 18.7063 6.67313 19.5263 7.63313 20.1063C8.61313 20.6663 9.73313 20.9463 10.9931 20.9463C12.2531 20.9463 13.3631 20.6663 14.3231 20.1063C15.2831 19.5263 16.0331 18.7063 16.5731 17.6463C17.1131 16.5863 17.3831 15.3563 17.3831 13.9563C17.3831 12.5563 17.1131 11.3363 16.5731 10.2963C16.0331 9.23633 15.2831 8.42633 14.3231 7.86633C13.3631 7.30633 12.2531 7.02633 10.9931 7.02633C9.73313 7.02633 8.61313 7.30633 7.63313 7.86633C6.67313 8.42633 5.92313 9.23633 5.38313 10.2963C4.84313 11.3363 4.57313 12.5563 4.57313 13.9563ZM29.0864 10.4463C29.6264 9.56633 30.3264 8.87633 31.1864 8.37633C32.0664 7.87633 33.0664 7.62633 34.1864 7.62633V12.0363H33.0764C31.7564 12.0363 30.7564 12.3463 30.0764 12.9663C29.4164 13.5863 29.0864 14.6663 29.0864 16.2063V24.4863H24.8864V7.86633H29.0864V10.4463ZM52.7053 7.86633V24.4863H48.4753V22.3863C47.9353 23.1063 47.2253 23.6763 46.3453 24.0963C45.4853 24.4963 44.5453 24.6963 43.5253 24.6963C42.2253 24.6963 41.0753 24.4263 40.0753 23.8863C39.0753 23.3263 38.2853 22.5163 37.7053 21.4563C37.1453 20.3763 36.8653 19.0963 36.8653 17.6163V7.86633H41.0653V17.0163C41.0653 18.3363 41.3953 19.3563 42.0553 20.0763C42.7153 20.7763 43.6153 21.1263 44.7553 21.1263C45.9153 21.1263 46.8253 20.7763 47.4853 20.0763C48.1453 19.3563 48.4753 18.3363 48.4753 17.0163V7.86633H52.7053ZM58.9793 5.88633C58.2393 5.88633 57.6193 5.65633 57.1193 5.19633C56.6393 4.71633 56.3993 4.12633 56.3993 3.42633C56.3993 2.72633 56.6393 2.14633 57.1193 1.68633C57.6193 1.20633 58.2393 0.966327 58.9793 0.966327C59.7193 0.966327 60.3293 1.20633 60.8093 1.68633C61.3093 2.14633 61.5593 2.72633 61.5593 3.42633C61.5593 4.12633 61.3093 4.71633 60.8093 5.19633C60.3293 5.65633 59.7193 5.88633 58.9793 5.88633ZM61.0493 7.86633V24.4863H56.8493V7.86633H61.0493ZM69.3989 2.28633V24.4863H65.1989V2.28633H69.3989Z" fill="#1E1E1E"/>
</svg>
