<svg width="102" height="111" viewBox="0 0 102 111" fill="none" xmlns="http://www.w3.org/2000/svg">
<path d="M0 84.0578C2.24371 81.2966 4.50103 78.5562 7.0609 76.0835C16.2023 67.2606 26.9178 61.4668 39.3058 59.3872C62.2529 55.5339 81.7188 62.5275 97.6593 79.8151C98.9036 81.1644 100.012 82.6459 101.181 84.0648C100.219 85.9671 98.7812 87.5042 97.3942 89.0553C87.5082 100.111 75.3786 107.268 60.893 109.417C36.3176 113.062 16.1343 104.698 0.489538 84.9447C0.278765 84.6803 0.0135983 84.4404 0 84.0578Z" fill="#A9A9A9"/>
<path d="M50.5357 49.9639C37.0768 49.9395 26.171 38.7136 26.1914 24.9072C26.2118 11.139 37.172 -0.0104257 50.6785 7.31603e-06C64.1272 0.0104404 75.05 11.2538 75.0262 25.0567C75.0024 38.8248 64.0286 49.9882 50.5357 49.9639Z" fill="#A9A9A9"/>
</svg>
