<svg width="19" height="19" viewBox="0 0 19 19" fill="none" xmlns="http://www.w3.org/2000/svg">
<path d="M14.1072 18.8249C13.1944 18.7401 12.407 18.5311 11.6379 18.2472C9.80811 17.5714 8.18446 16.5458 6.682 15.3179C4.57938 13.5997 2.82301 11.5846 1.49314 9.21266C0.79961 7.97537 0.279203 6.67156 0.0342127 5.26507C-0.0387072 4.84653 -0.00408336 4.47199 0.226218 4.10479C1.08972 2.72868 2.08751 1.46835 3.3366 0.418591C3.41634 0.351541 3.50499 0.294443 3.58998 0.233679C4.10724 -0.136669 4.53112 -0.0439513 5.03421 0.351017C5.10032 0.402876 5.16064 0.466783 5.20943 0.535405C6.07241 1.75122 6.90443 2.98588 7.53133 4.34418C7.62628 4.55057 7.69501 4.77005 7.76321 4.98744C7.87337 5.33998 7.80885 5.67575 7.56071 5.93872C7.25696 6.26087 6.92331 6.55684 6.58967 6.84913C6.149 7.2352 6.13903 7.23101 6.37091 7.7716C7.34719 10.0487 8.99393 11.6359 11.3006 12.5458C11.512 12.6291 11.6448 12.6228 11.7948 12.43C12.0592 12.0901 12.3524 11.7721 12.6425 11.4526C13.0481 11.0063 13.5422 10.8674 14.0962 11.1252C14.7347 11.4222 15.3768 11.7208 15.9806 12.0801C16.7492 12.5379 17.4831 13.0534 18.2264 13.5521C18.5255 13.7527 18.7049 14.0429 18.7956 14.3933C18.8481 14.5955 18.8334 14.7862 18.7285 14.9601C18.601 15.1723 18.4751 15.3912 18.313 15.5756C17.2286 16.8072 15.9717 17.8328 14.5495 18.6521C14.3905 18.7438 14.2032 18.7878 14.1072 18.8239V18.8249Z" fill="#BCBCBC"/>
</svg>
