<svg width="32" height="35" viewBox="0 0 32 35" fill="none" xmlns="http://www.w3.org/2000/svg">
<path d="M24.763 15.8812C24.763 20.4467 24.764 25.0131 24.763 29.5786C24.763 30.7163 24.1355 31.525 23.0855 31.7366C22.916 31.7708 22.7371 31.7653 22.5629 31.7662C15.7723 31.7671 8.98169 31.7662 2.1911 31.7662C0.859205 31.7662 0.00218548 30.9242 0.00124884 29.6017C-0.00156106 25.0935 0.00124884 20.5854 0.00124884 16.0772C0.00124884 11.4535 0.00124884 6.82975 0.00124884 2.20696C0.00124884 1.05727 0.61287 0.256924 1.66284 0.034195C1.82019 0.000924264 1.98784 0.00184842 2.14988 0.00184842C8.95171 4.23473e-08 15.7545 0 22.5563 0C23.9107 0 24.7612 0.838238 24.7621 2.18293C24.764 6.74842 24.7621 11.3148 24.763 15.8803V15.8812ZM0.868572 15.8637H0.870436C0.870436 17.5004 0.870436 19.1381 0.870436 20.7748C0.870436 23.6574 0.862007 26.539 0.882613 29.4215C0.885422 29.7727 0.976281 30.159 1.14581 30.464C1.36498 30.8568 1.8052 30.9298 2.24823 30.9298C7.37817 30.9261 12.509 30.927 17.639 30.927C19.2987 30.927 20.9575 30.9298 22.6172 30.9252C23.3393 30.9233 23.7777 30.5352 23.8648 29.8374C23.8863 29.6664 23.8891 29.4927 23.8891 29.3199C23.891 22.7831 23.892 16.2463 23.892 9.70952C23.892 7.25395 23.8929 4.79838 23.8901 2.34282C23.8901 1.96205 23.8863 1.57759 23.6119 1.26337C23.3206 0.930657 22.9431 0.837314 22.5123 0.837314C15.7573 0.841011 9.00323 0.839163 2.24823 0.839163C2.16674 0.839163 2.08432 0.83639 2.00283 0.842859C1.40714 0.886296 0.987516 1.27261 0.906966 1.86039C0.881677 2.04246 0.86951 2.22729 0.86951 2.41121C0.867637 6.89629 0.867635 11.3804 0.867635 15.8655L0.868572 15.8637Z" fill="#C1BBBB"/>
<path d="M5.96004 9.38147C5.96472 5.89451 8.85423 3.10069 12.4078 3.08405C15.9296 3.06742 18.8762 6.0202 18.8116 9.53396C18.7526 12.7575 16.1422 15.7787 12.3572 15.7639C8.562 15.7491 5.89822 12.6753 5.96004 9.38055V9.38147ZM16.8962 12.5745C18.3498 10.8297 18.4678 7.59039 16.2602 5.48417C14.0038 3.33266 10.4203 3.43432 8.31286 5.67086C6.22604 7.88706 6.53981 11.0663 7.87545 12.5718C8.75495 12.0681 9.62133 11.5718 10.44 11.1032C10.1908 10.68 9.81615 10.2465 9.67847 9.7493C9.53704 9.23915 9.55952 8.65691 9.63632 8.12365C9.71406 7.58208 10.0662 7.13939 10.484 6.76509C11.4684 5.88342 13.0522 5.8215 14.1331 6.6431C14.6904 7.06638 15.0576 7.62551 15.1868 8.30664C15.3957 9.40735 15.0482 10.3445 14.2549 11.0589C15.1475 11.5709 16.0073 12.0635 16.8952 12.5727L16.8962 12.5745ZM12.0566 11.7622C10.9954 11.7659 9.79367 12.2233 8.74277 13.0939C8.53203 13.2686 8.52267 13.386 8.74558 13.5782C10.7903 15.3332 13.9121 15.3517 15.9801 13.6078C16.2789 13.3555 16.2845 13.3148 15.9755 13.0597C14.933 12.2002 13.7332 11.7603 12.0556 11.7631L12.0566 11.7622ZM12.4125 6.92498C11.2689 6.92221 10.3894 7.75767 10.3847 8.85283C10.3791 9.98959 11.2398 10.8629 12.3685 10.8648C13.4971 10.8676 14.3766 10.0136 14.3794 8.91383C14.3822 7.79279 13.5271 6.92775 12.4134 6.92498H12.4125Z" fill="#C1BBBB"/>
<path d="M12.388 22.5633C9.79449 22.5633 7.20189 22.5633 4.60835 22.5633C3.76444 22.5633 3.36451 22.1705 3.36263 21.3406C3.3617 20.7759 3.35982 20.2112 3.36357 19.6465C3.36825 19.0329 3.76913 18.605 4.38918 18.5495C4.48191 18.5412 4.57557 18.5467 4.66923 18.5467C9.80854 18.5467 14.9488 18.5467 20.0881 18.5467C21.021 18.5467 21.4022 18.9229 21.4031 19.8461C21.4031 20.3304 21.4031 20.8138 21.4031 21.298C21.4031 22.1779 21.0144 22.5651 20.1312 22.5651C17.5498 22.5651 14.9685 22.5651 12.3871 22.5651L12.388 22.5633ZM12.3862 21.7195C14.945 21.7195 17.5039 21.7195 20.0628 21.7195C20.4983 21.7195 20.547 21.6733 20.5499 21.2833C20.5527 20.8572 20.5508 20.4302 20.5508 20.0042C20.5508 19.4044 20.5414 19.3951 19.9148 19.3951C14.9141 19.3951 9.91344 19.3951 4.91275 19.3951C4.79567 19.3951 4.67953 19.3961 4.56245 19.3998C4.32174 19.4081 4.20653 19.5199 4.21215 19.7704C4.22246 20.2315 4.21403 20.6927 4.21497 21.1539C4.21497 21.7047 4.23183 21.7222 4.77976 21.7222C7.31523 21.7222 9.85069 21.7222 12.3862 21.7222V21.7195Z" fill="#C1BBBB"/>
<path d="M12.3818 24.6996C14.182 24.6996 15.9813 24.6987 17.7815 24.6996C18.5055 24.6996 18.9392 25.1238 18.9429 25.8327C18.9458 26.3974 18.9458 26.963 18.9429 27.5276C18.9401 28.2651 18.5346 28.6727 17.7647 28.6773C16.2454 28.6866 14.7262 28.6801 13.2061 28.6801C11.2073 28.6801 9.20851 28.6801 7.20974 28.6801C6.16258 28.6801 5.81978 28.3437 5.81978 27.3225C5.81978 26.8151 5.81603 26.3077 5.82072 25.8003C5.82727 25.1358 6.26936 24.7015 6.94561 24.7006C8.75706 24.6987 10.5685 24.7006 12.3809 24.6996H12.3818ZM12.3809 27.8169C14.1436 27.8169 15.9073 27.8123 17.6701 27.8215C17.966 27.8234 18.1009 27.7347 18.0934 27.4306C18.0812 26.9242 18.0869 26.4168 18.0915 25.9103C18.0934 25.6497 17.9754 25.5342 17.7085 25.5388C17.2645 25.5471 16.8215 25.5406 16.3775 25.5406C13.3063 25.5406 10.236 25.5406 7.16478 25.5406C6.73112 25.5406 6.67867 25.5869 6.67492 25.9769C6.67024 26.426 6.67211 26.8752 6.67492 27.3243C6.6768 27.7975 6.69553 27.8169 7.16197 27.8169C8.9013 27.8169 10.6416 27.8169 12.3809 27.8169Z" fill="#C1BBBB"/>
<path d="M25.6751 29.1304C25.5018 29.2078 25.3248 29.2782 25.1562 29.3643C25.0311 29.4283 24.9586 29.4045 24.8607 29.3021C24.0469 28.4472 23.0278 27.9637 21.879 27.7228C21.8507 27.7169 21.8206 27.7199 21.7917 27.7187C21.1353 27.554 20.4677 27.5575 19.8013 27.6122C19.2741 27.6553 18.7569 27.7618 18.2615 27.9532C17.4353 28.2319 16.7117 28.6748 16.1007 29.2887C15.9804 29.4097 15.8931 29.4225 15.7463 29.3469C15.4667 29.2037 15.1789 29.0751 14.8888 28.9541C14.7526 28.897 14.7378 28.8499 14.8298 28.733C15.3683 28.0498 16.0435 27.5284 16.8072 27.1187C17.3468 26.829 17.9354 26.6579 18.5257 26.4961C19.3396 26.3122 20.1652 26.261 20.9973 26.2831C21.6608 26.3576 22.3201 26.4472 22.96 26.6497C23.8664 26.9366 24.6814 27.3824 25.4098 27.9852C25.681 28.2663 25.9712 28.5304 26.2 28.8732C26.019 28.9622 25.8468 29.0466 25.6751 29.131V29.1304Z" fill="#FDFEFE"/>
<path d="M18.2703 17.2326C19.2858 16.4162 20.4193 16.2428 21.6554 16.6298C22.5312 16.9987 23.1746 17.5975 23.5314 18.479C23.6658 18.8119 23.7502 19.1581 23.7555 19.5143C23.7679 20.3324 23.8062 21.1517 23.7372 21.9681C23.621 23.3496 22.5866 24.4965 21.2096 24.802C21.1382 24.8177 21.068 24.8358 20.9967 24.8532C20.1185 24.951 19.2988 24.802 18.5681 24.2853C18.0521 23.8942 17.6528 23.4101 17.3975 22.8183C17.253 22.4843 17.1722 22.1328 17.1716 21.7656C17.1698 20.969 17.1292 20.1701 17.1716 19.3758C17.2052 18.7601 17.457 18.1951 17.8463 17.7034C17.9766 17.5387 18.1276 17.3891 18.2691 17.2332L18.2703 17.2326Z" fill="#FDFEFE"/>
<path d="M31.6415 21.283C31.4221 19.8405 30.9432 18.4893 30.1778 17.2434C29.6499 16.3851 29.0413 15.5844 28.2918 14.8972C27.4396 14.1163 26.5202 13.4296 25.461 12.9397C24.2627 12.3479 23 11.9772 21.6631 11.8614C21.5917 11.8509 21.5204 11.8387 21.4484 11.83C20.9106 11.766 20.3733 11.8125 19.8355 11.8236C19.2558 11.8352 18.689 11.9091 18.1276 12.0412C17.5326 12.1355 16.9623 12.3153 16.4038 12.5312C15.5899 12.846 14.8103 13.2266 14.1032 13.7404C14.0779 13.7538 14.0501 13.7642 14.0265 13.7811C10.9581 15.9737 9.3104 18.9339 9.18242 22.6726C9.09573 25.2068 9.85944 27.5059 11.3822 29.5507C12.15 30.5818 13.0676 31.464 14.1581 32.1646C14.851 32.6604 15.6124 33.0299 16.4067 33.3342C17.0218 33.5699 17.6493 33.7683 18.3063 33.8603C18.3523 33.9045 18.4124 33.8969 18.4696 33.9086C18.8394 33.9831 19.221 33.9813 19.5866 34.0802H21.3517C21.4862 33.9906 21.6537 34.0576 21.7934 33.9906C22.1768 33.9773 22.5507 33.8981 22.9228 33.8149C23.9071 33.5944 24.8554 33.2755 25.7376 32.7826C26.3828 32.4474 26.9991 32.068 27.5605 31.6072C28.313 30.9898 29.0018 30.3118 29.5768 29.5268C30.8064 27.8486 31.5371 25.9848 31.7223 23.9179C31.7258 23.8766 31.7152 23.8288 31.7659 23.805V22.0633C31.6722 21.812 31.6822 21.5437 31.6427 21.2836L31.6415 21.283ZM25.6757 29.1306C25.5023 29.208 25.3254 29.2784 25.1567 29.3645C25.0317 29.4285 24.9592 29.4046 24.8613 29.3022C24.0474 28.4474 23.0283 27.9639 21.8795 27.7229C21.8512 27.7171 21.8211 27.72 21.7922 27.7189C21.1359 27.5542 20.4683 27.5577 19.8019 27.6124C19.2746 27.6554 18.7574 27.7619 18.2621 27.9534C17.4358 28.2321 16.7122 28.6749 16.1013 29.2888C15.9809 29.4099 15.8937 29.4227 15.7468 29.347C15.4673 29.2039 15.1795 29.0753 14.8893 28.9543C14.7531 28.8972 14.7384 28.8501 14.8304 28.7331C15.3688 28.05 16.044 27.5286 16.8078 27.1189C17.3474 26.8291 17.9359 26.6581 18.5263 26.4963C19.3401 26.3124 20.1657 26.2612 20.9979 26.2833C20.9979 25.8067 20.9979 25.3307 20.9979 24.8542C20.1197 24.9519 19.3 24.803 18.5693 24.2862C18.0533 23.8952 17.654 23.411 17.3987 22.8192C17.2542 22.4852 17.1734 22.1338 17.1728 21.7666C17.171 20.9699 17.1303 20.171 17.1728 19.3767C17.2064 18.761 17.4582 18.196 17.8475 17.7043C17.9778 17.5396 18.1288 17.3901 18.2703 17.2341C19.2858 16.4177 20.4193 16.2443 21.6554 16.6313C22.5312 17.0002 23.1746 17.599 23.5314 18.4806C23.6659 18.8134 23.7502 19.1596 23.7555 19.5158C23.7679 20.3339 23.8062 21.1532 23.7372 21.9697C23.621 23.3511 22.5866 24.498 21.2096 24.8035C21.1382 24.8192 21.068 24.8373 20.9967 24.8547C20.9967 25.3313 20.9967 25.8073 20.9967 26.2839C21.6601 26.3584 22.3195 26.448 22.9593 26.6505C23.8658 26.9374 24.6808 27.3831 25.4091 27.986C25.4203 27.9528 25.4286 27.919 25.4345 27.8853C25.428 27.919 25.4197 27.9528 25.4091 27.986C25.6804 28.267 25.9706 28.5312 26.1994 28.874C26.0183 28.963 25.8461 29.0474 25.6745 29.1317L25.6757 29.1306Z" fill="#1E1E1E"/>
</svg>
