<svg width="17" height="13" viewBox="0 0 17 13" fill="none" xmlns="http://www.w3.org/2000/svg">
<path d="M0 11.0008C0 8.4873 0 5.9738 0 3.46072C0.0240034 3.47101 0.05015 3.47787 0.0711531 3.49201C2.29404 4.9738 4.5165 6.45644 6.73897 7.93865C7.70768 8.5846 8.71196 8.58974 9.67596 7.94722C11.8727 6.4843 14.0682 5.01966 16.264 3.55588C16.3108 3.52459 16.3592 3.49544 16.4269 3.45215V3.58288C16.4269 5.97808 16.4278 8.37371 16.4248 10.7689C16.4248 10.9009 16.4089 11.0368 16.3768 11.165C16.1993 11.8692 15.6035 12.3094 14.8311 12.3098C12.6442 12.3111 10.4574 12.3098 8.2709 12.3098C6.08444 12.3098 3.82255 12.309 1.59837 12.3107C1.16288 12.3107 0.779683 12.183 0.459923 11.8799C0.205315 11.639 0.0788684 11.3326 0 11.0008Z" fill="#BCBCBC"/>
<path d="M0 1.31096C0.0265752 1.21923 0.0492928 1.12665 0.0797257 1.03621C0.289327 0.413831 0.852122 0.012202 1.53451 0.00234347C1.84998 -0.0023715 2.16545 0.0014862 2.48093 0.0014862C6.5928 0.0014862 10.7047 0.00234347 14.8161 0.000628933C15.2945 0.000628933 15.7098 0.143364 16.0347 0.504273C16.6477 1.18494 16.5379 2.20209 15.7805 2.7173C14.7823 3.39626 13.7728 4.05978 12.7681 4.72974C11.5722 5.52699 10.3768 6.32468 9.18046 7.12151C8.4925 7.57972 7.93614 7.57972 7.24904 7.12151C5.14188 5.71645 3.03858 4.30582 0.924132 2.9119C0.472782 2.61443 0.111016 2.27667 0 1.72802C0 1.58871 0 1.44984 0 1.31096Z" fill="#BCBCBC"/>
</svg>
