<svg width="32" height="32" viewBox="0 0 32 32" fill="none" xmlns="http://www.w3.org/2000/svg">
<circle cx="16" cy="16" r="16" fill="#FFCB05"/>
<path d="M24 15.6911V16.5033C23.9765 16.6491 23.9567 16.7956 23.9296 16.9407C23.6628 18.3752 22.8861 19.5367 21.6955 20.4686C20.4249 21.4629 18.9415 22.0008 17.2953 22.154C16.112 22.2643 14.9493 22.1496 13.8203 21.7925C13.7136 21.759 13.6453 21.7691 13.5631 21.8393C13.0429 22.2832 12.4401 22.5976 11.7661 22.795C11.2935 22.9333 10.8088 23.0042 10.3124 22.9998C10.1356 22.9981 10.0038 22.9198 9.92716 22.7729C9.85121 22.6275 9.86222 22.4843 9.97046 22.3538C10.0178 22.2965 10.0699 22.2426 10.1205 22.1876C10.64 21.6264 10.8514 20.9787 10.7622 20.2451C10.742 20.08 10.6833 19.9423 10.559 19.8117C9.7749 18.9884 9.27114 18.0388 9.07962 16.9509C8.91488 16.0136 9.00331 15.098 9.368 14.2125C10.0402 12.5807 11.2957 11.4487 12.9809 10.7142C14.5332 10.0376 16.1681 9.8528 17.8596 10.1129C19.5543 10.3733 21.0274 11.0438 22.2293 12.188C23.0769 12.9944 23.6496 13.9439 23.8855 15.0552C23.9303 15.2662 23.9622 15.4791 24 15.6911ZM14.3314 16.0916C14.2977 15.3916 13.7462 14.8935 13.0117 14.883C12.2981 14.8728 11.6872 15.4381 11.7004 16.096C11.7147 16.7993 12.2838 17.3158 13.0238 17.3087C13.7899 17.3012 14.3076 16.7624 14.3311 16.0916H14.3314ZM16.5229 14.8799C15.7642 14.9115 15.2267 15.4228 15.216 16.1004C15.2058 16.7607 15.8178 17.3246 16.5292 17.3117C17.2923 17.2978 17.8489 16.7698 17.8405 16.0875C17.8317 15.3777 17.2468 14.9009 16.5229 14.8799ZM18.728 16.1028C18.7614 16.8024 19.3125 17.3009 20.0474 17.3114C20.761 17.3216 21.3719 16.7566 21.3587 16.0984C21.3447 15.395 20.7753 14.8786 20.0353 14.8857C19.2688 14.8931 18.7515 15.432 18.728 16.1028Z" fill="white"/>
</svg>
