<svg width="107" height="86" viewBox="0 0 107 86" fill="none" xmlns="http://www.w3.org/2000/svg">
<path d="M84.7741 43.2336C82.4565 43.9655 80.8708 44.6973 81.3587 47.3808C81.3587 47.8688 81.2367 48.2347 81.1148 48.7226C78.9192 64.0917 63.1841 74.9476 47.815 71.7762C34.5195 68.9708 25.6152 57.7489 25.1273 45.5512C25.1273 44.6974 24.7614 44.3314 23.9075 43.9655C19.2724 42.2578 14.6373 40.6721 10.0022 38.7205C7.07472 37.5007 4.39122 35.915 1.3418 34.4513C1.3418 35.4271 1.3418 36.2809 1.46378 37.1348C1.82971 40.5501 2.19564 44.0875 2.43959 47.5028C3.17145 55.3094 3.90332 63.2379 4.75716 71.0444C5.61099 78.363 9.2703 82.6322 16.345 84.3399C19.6383 85.1937 23.0537 85.6816 26.3471 85.6816C43.5458 85.8036 60.6226 85.8036 77.8214 85.6816C81.4807 85.6816 85.262 85.1937 88.7993 84.5838C95.752 83.2421 100.265 79.0949 101.363 71.7762C101.729 68.8488 102.095 65.7994 102.339 62.8719C102.949 56.2852 103.559 49.8204 104.168 43.2336C104.412 40.1842 104.656 37.1348 105.022 33.9634C104.412 34.3293 104.046 34.4513 103.68 34.6952C97.5816 38.2326 91.2389 41.038 84.5301 43.1117L84.7741 43.2336Z" fill="#EBEBEB"/>
<path d="M53.4169 63.3554C64.0289 63.3554 72.5673 54.6951 72.5673 44.0831C72.5673 33.3491 64.0289 24.8107 53.2949 24.9327C42.6829 24.9327 34.1445 33.593 34.1445 44.205C34.1445 54.817 42.8049 63.3554 53.5389 63.3554H53.4169ZM40.8533 41.5216C42.5609 39.8139 45.3664 39.8139 47.318 41.6435C48.1719 42.4974 49.0257 43.3512 50.0015 44.327C53.1729 41.3996 56.2224 38.5941 59.2718 35.7886C60.6135 34.5689 62.0773 33.959 63.9069 34.4469C67.0783 35.3007 68.2981 39.4479 65.9805 41.7655C62.3212 45.3028 58.6619 48.7182 54.8806 52.0116C51.8312 54.5731 47.806 54.2072 44.8785 51.5237C43.6587 50.3039 42.317 49.0841 41.0972 47.7424C39.2676 45.9127 39.2676 43.1073 41.0972 41.3996L40.8533 41.5216Z" fill="#EBEBEB"/>
<path d="M95.9815 1.63991C92.3222 0.664093 88.4189 0.054212 84.6377 0.054212C63.7796 -0.067765 43.0435 0.054212 22.1854 0.054212C17.6723 0.054212 13.1591 0.542118 8.88994 2.2498C4.8647 3.8355 1.93726 6.51899 0.717486 10.9102C-0.380307 14.8134 -0.0143782 18.7167 0.47353 22.62C0.47353 23.1079 1.08341 23.5958 1.57132 23.9617C7.06029 27.621 12.9152 30.6704 19.014 32.988C21.4536 33.9638 24.0151 34.6957 26.4546 35.5495C31.3337 23.4738 39.8721 16.2772 52.9236 16.0332C66.3411 15.7892 75.2454 22.9859 80.3685 35.1836C86.7113 33.8418 100.617 27.1331 105.862 22.9859C106.228 22.7419 106.472 22.254 106.472 21.8881C106.594 19.6925 106.837 17.4969 106.715 15.1794C106.35 7.73876 103.178 3.46957 95.9815 1.51793V1.63991Z" fill="#EBEBEB"/>
</svg>
