<svg width="15" height="15" viewBox="0 0 15 15" fill="none" xmlns="http://www.w3.org/2000/svg">
<path d="M6.21474 0.699219C6.45567 0.736653 6.69807 0.767045 6.93752 0.812262C9.21147 1.24368 11.0918 3.15615 11.4888 5.43184C11.779 7.09414 11.4202 8.60224 10.4265 9.96247C10.4128 9.981 10.399 9.99953 10.3861 10.0188C10.3813 10.0262 10.3794 10.0355 10.336 10.0844C10.3838 10.1129 10.4398 10.133 10.478 10.1711C11.6404 11.3301 12.8001 12.4917 13.9618 13.6514C14.1678 13.8571 14.2572 14.0958 14.1786 14.3819C14.04 14.8867 13.4384 15.072 13.0355 14.7366C12.9895 14.6984 12.9477 14.6543 12.9054 14.6121C11.7608 13.4679 10.6166 12.3234 9.47278 11.1789C9.43683 11.1429 9.40569 11.1029 9.36566 11.0573C9.26411 11.1285 9.17552 11.1926 9.08508 11.2541C7.92419 12.0499 6.64025 12.3835 5.24104 12.2619C2.79065 12.0484 0.672365 10.1815 0.143072 7.77165C0.081173 7.48849 0.047073 7.19977 0 6.91364C0 6.62714 0 6.34027 0 6.05377C0.0218685 5.89958 0.0411425 5.74503 0.0667176 5.59159C0.250932 4.48117 0.707577 3.49713 1.45778 2.65654C2.324 1.6851 3.39592 1.06355 4.67579 0.810038C4.90041 0.765192 5.12836 0.735912 5.35483 0.699219C5.64134 0.699219 5.92823 0.699219 6.21474 0.699219ZM5.81221 2.11986C3.39555 2.12282 1.44851 4.02158 1.42034 6.47184C1.39254 8.85539 3.33069 10.829 5.73178 10.8576C8.17142 10.8868 10.1303 8.97584 10.16 6.53893C10.1893 4.10646 8.26371 2.14951 5.81258 2.12023L5.81221 2.11986Z" fill="black"/>
</svg>
