<svg width="52" height="32" viewBox="0 0 52 32" fill="none" xmlns="http://www.w3.org/2000/svg">
<circle cx="16" cy="16" r="16" fill="#86D5AF"/>
<path d="M21.1072 25.8249C20.1944 25.7401 19.407 25.5311 18.6379 25.2472C16.8081 24.5714 15.1845 23.5458 13.682 22.3179C11.5794 20.5997 9.82301 18.5846 8.49314 16.2127C7.79961 14.9754 7.2792 13.6716 7.03421 12.2651C6.96129 11.8465 6.99592 11.472 7.22622 11.1048C8.08972 9.72868 9.08751 8.46835 10.3366 7.41859C10.4163 7.35154 10.505 7.29444 10.59 7.23368C11.1072 6.86333 11.5311 6.95605 12.0342 7.35102C12.1003 7.40288 12.1606 7.46678 12.2094 7.53541C13.0724 8.75122 13.9044 9.98588 14.5313 11.3442C14.6263 11.5506 14.695 11.7701 14.7632 11.9874C14.8734 12.34 14.8088 12.6758 14.5607 12.9387C14.257 13.2609 13.9233 13.5568 13.5897 13.8491C13.149 14.2352 13.139 14.231 13.3709 14.7716C14.3472 17.0487 15.9939 18.6359 18.3006 19.5458C18.512 19.6291 18.6448 19.6228 18.7948 19.43C19.0592 19.0901 19.3524 18.7721 19.6425 18.4526C20.0481 18.0063 20.5422 17.8674 21.0962 18.1252C21.7347 18.4222 22.3768 18.7208 22.9806 19.0801C23.7492 19.5379 24.4831 20.0534 25.2264 20.5521C25.5255 20.7527 25.7049 21.0429 25.7956 21.3933C25.8481 21.5955 25.8334 21.7862 25.7285 21.9601C25.601 22.1723 25.4751 22.3912 25.313 22.5756C24.2286 23.8072 22.9717 24.8328 21.5495 25.6521C21.3905 25.7438 21.2032 25.7878 21.1072 25.8239V25.8249Z" fill="white"/>
<circle cx="36" cy="16" r="15.5" fill="#FF2828" stroke="white"/>
<path d="M28 21.0006C28 18.4871 28 15.9736 28 13.4605C28.024 13.4708 28.0502 13.4776 28.0712 13.4918C30.294 14.9736 32.5165 16.4562 34.739 17.9384C35.7077 18.5844 36.712 18.5895 37.676 17.947C39.8727 16.4841 42.0682 15.0194 44.264 13.5556C44.3108 13.5243 44.3592 13.4952 44.4269 13.4519V13.5826C44.4269 15.9778 44.4278 18.3735 44.4248 20.7687C44.4248 20.9007 44.4089 21.0366 44.3768 21.1647C44.1993 21.869 43.6035 22.3092 42.8311 22.3096C40.6442 22.3109 38.4574 22.3096 36.2709 22.3096C34.0844 22.3096 31.8225 22.3087 29.5984 22.3105C29.1629 22.3105 28.7797 22.1827 28.4599 21.8797C28.2053 21.6388 28.0789 21.3323 28 21.0006Z" fill="white"/>
<path d="M28 11.311C28.0266 11.2192 28.0493 11.1266 28.0797 11.0362C28.2893 10.4138 28.8521 10.0122 29.5345 10.0023C29.85 9.99763 30.1655 10.0015 30.4809 10.0015C34.5928 10.0015 38.7047 10.0023 42.8161 10.0006C43.2945 10.0006 43.7098 10.1434 44.0347 10.5043C44.6477 11.1849 44.5379 12.2021 43.7805 12.7173C42.7823 13.3963 41.7728 14.0598 40.7681 14.7297C39.5722 15.527 38.3768 16.3247 37.1805 17.1215C36.4925 17.5797 35.9361 17.5797 35.249 17.1215C33.1419 15.7164 31.0386 14.3058 28.9241 12.9119C28.4728 12.6144 28.111 12.2767 28 11.728C28 11.5887 28 11.4498 28 11.311Z" fill="white"/>
</svg>
