<svg width="32" height="32" viewBox="0 0 32 32" fill="none" xmlns="http://www.w3.org/2000/svg">
<circle cx="16" cy="16" r="15.5" fill="#FF2828" stroke="white"/>
<path d="M8 21.0006C8 18.4871 8 15.9736 8 13.4605C8.024 13.4708 8.05015 13.4776 8.07115 13.4918C10.294 14.9736 12.5165 16.4562 14.739 17.9384C15.7077 18.5844 16.712 18.5895 17.676 17.947C19.8727 16.4841 22.0682 15.0194 24.264 13.5556C24.3108 13.5243 24.3592 13.4952 24.4269 13.4519V13.5826C24.4269 15.9778 24.4278 18.3735 24.4248 20.7687C24.4248 20.9007 24.4089 21.0366 24.3768 21.1647C24.1993 21.869 23.6035 22.3092 22.8311 22.3096C20.6442 22.3109 18.4574 22.3096 16.2709 22.3096C14.0844 22.3096 11.8225 22.3087 9.59837 22.3105C9.16288 22.3105 8.77968 22.1827 8.45992 21.8797C8.20532 21.6388 8.07887 21.3323 8 21.0006Z" fill="white"/>
<path d="M8 11.311C8.02658 11.2192 8.04929 11.1266 8.07973 11.0362C8.28933 10.4138 8.85212 10.0122 9.53451 10.0023C9.84998 9.99763 10.1655 10.0015 10.4809 10.0015C14.5928 10.0015 18.7047 10.0023 22.8161 10.0006C23.2945 10.0006 23.7098 10.1434 24.0347 10.5043C24.6477 11.1849 24.5379 12.2021 23.7805 12.7173C22.7823 13.3963 21.7728 14.0598 20.7681 14.7297C19.5722 15.527 18.3768 16.3247 17.1805 17.1215C16.4925 17.5797 15.9361 17.5797 15.249 17.1215C13.1419 15.7164 11.0386 14.3058 8.92413 12.9119C8.47278 12.6144 8.11102 12.2767 8 11.728C8 11.5887 8 11.4498 8 11.311Z" fill="white"/>
</svg>
