<svg className='float-right' width="250" height="220" viewBox="0 0 185 151" fill="none" xmlns="http://www.w3.org/2000/svg"><path d="M65.0471 34.4194C64.8999 34.3213 64.3337 33.7238 64.3515 33.6123C64.3693 33.5008 65.2477 33.0148 65.2477 33.0148L65.5911 32.9301C65.5911 32.9301 65.8051 32.7161 65.8764 32.9301C65.9478 33.1441 65.8898 33.6836 65.8898 33.6836L65.0515 34.4238L65.0471 34.4194Z" fill="#F7D5CF"/><path d="M184.167 107.577C181.456 114.631 176.694 120.637 173.88 127.637C173.715 128.048 173.586 128.471 173.439 128.886C173.011 128.872 172.578 128.859 172.15 128.846C173.376 121.921 176.359 115.589 178.945 109.111C177.171 110.301 176.894 112.299 176.123 113.98C173.938 118.742 172.19 123.669 171.281 128.855C170.674 128.868 170.072 128.886 169.466 128.899C169.591 127.267 169.72 125.631 169.845 123.999C170.826 118.171 172.039 112.406 174.821 107.109C175.65 105.535 176.564 103.996 178.058 102.957C179.958 101.637 182.089 102.034 184.162 104.014V107.568L184.167 107.577Z" fill="#4EC7E7"/><path d="M94.7796 59.0905C96.8842 58.8274 98.5875 59.6122 100.331 60.776C106.306 64.7622 111.969 69.1498 117.391 73.8495C120.24 77.4434 122.88 81.1755 124.003 85.7102C125.778 92.8623 126.772 100.13 127.272 107.487C127.419 109.681 126.848 110.649 124.601 110.341C119.87 109.971 115.224 111.295 110.524 111.068C108.134 110.952 107.858 111.902 108.263 113.77C108.259 113.935 108.254 114.1 108.25 114.265C108.192 121.056 108.134 127.847 108.076 134.638C106.462 135.356 104.799 135.984 103.247 136.814C98.3467 139.427 93.2948 141.598 87.8727 142.905C83.9444 143.85 80.083 145.081 76.0209 143.288C74.8616 142.775 73.4169 142.922 72.1016 142.766C71.5041 142.138 71.4639 141.295 71.2767 140.524C68.7351 129.947 66.1712 119.37 63.7099 108.772C63.206 106.6 62.1448 105.637 59.8797 105.766C57.5967 105.9 55.3004 105.789 53.0085 105.789C53.3563 103.408 53.7086 101.027 54.0564 98.641C54.5067 97.8429 53.7933 97.5753 53.3652 97.2766C50.293 95.1185 47.1985 92.996 44.1085 90.8647L43.6938 90.2315C47.2521 83.7706 50.6408 77.2204 55.0061 71.2232C57.8018 67.3841 61.3378 64.7087 65.7654 63.1035C70.0059 61.5696 74.2998 60.2454 78.7587 59.523C79.2001 60.6645 79.0842 62.0155 80.1989 62.9073C82.5844 64.8202 85.2152 66.0241 88.3275 65.7833C92.0998 65.4935 95.4306 61.9888 94.7796 59.086V59.0905Z" fill="#FFCB05"/><path d="M53.0083 105.788C55.3001 105.788 57.5965 105.899 59.8794 105.766C62.1446 105.632 63.2013 106.595 63.7096 108.771C66.1754 119.37 68.7348 129.942 71.2764 140.523C71.4637 141.294 71.5038 142.137 72.1013 142.766C72.1147 143.863 72.3109 144.901 72.9797 145.807C72.9797 147.332 73.3899 148.941 72.0879 150.208C52.2502 150.216 32.4126 150.216 12.5704 150.252C10.7066 150.252 9.7836 149.485 9.35108 147.662C6.33686 134.931 3.23792 122.219 0.2014 109.493C-0.440683 106.809 0.424346 105.806 3.20225 105.801C14.3049 105.788 25.4076 105.779 36.5148 105.77C40.9826 105.77 45.4549 105.77 49.9227 105.77C50.9527 105.779 51.9782 105.783 53.0083 105.792V105.788ZM37.3218 133.754C39.9882 133.059 41.2813 131.088 40.987 128.167C40.7507 125.804 38.7576 123.811 36.3944 123.575C33.4738 123.28 31.4985 124.578 30.8029 127.24C30.5532 127.681 30.3169 128.127 30.0493 128.56C29.0862 130.12 29.2779 131.641 30.2143 133.125C31.1239 134.566 32.4973 135.074 34.1382 135.128C35.4402 135.172 36.1982 134.057 37.3218 133.754Z" fill="#C6CCD3"/><path d="M64.7485 33.8126C64.5478 34.1916 64.521 34.6865 63.8968 34.9228C63.1254 32.9163 63.2726 30.8206 63.219 28.7472C63.1968 27.8465 63.2369 26.9637 61.8234 27.1153C60.4813 27.2624 59.05 27.1777 58.3811 25.7196C57.6855 24.2036 58.6085 23.022 59.4825 21.8984C59.9284 21.3276 60.4367 20.8015 60.9182 20.253C58.7958 18.4249 57.2753 16.2088 58.1002 13.4487C58.943 10.6351 61.7075 11.2416 63.9503 11.1256C62.354 7.505 63.7318 4.8787 67.7894 3.61237C70.1393 2.88111 72.4802 3.09068 74.7988 3.71492C75.481 3.89774 75.8779 4.08501 76.4486 3.34483C80.1094 -1.38607 86.2582 -1.04719 89.4954 4.03597C90.1732 5.10164 90.7528 5.83736 92.2733 6.0291C96.3889 6.54633 98.11 9.20384 97.294 13.529C96.9329 15.4463 96.6876 16.8642 98.8323 18.0637C100.545 19.0224 100.955 20.962 100.308 22.9729C99.8668 24.3374 99.0062 25.4476 98.3107 26.6605C96.6832 26.3127 95.6754 27.637 94.3556 28.1141C92.6033 27.7707 90.9891 28.181 89.4464 28.9969C86.0576 27.6414 83.2708 25.8802 84.7377 21.2295C79.4093 24.1189 73.9829 24.4934 68.5207 24.3998C66.5097 24.3686 65.8632 25.1578 65.9434 26.9012C66.0505 29.3001 65.4485 31.5608 64.7529 33.8126H64.7485Z" fill="#586B80"/><path d="M72.98 145.808C72.3111 144.902 72.1149 143.859 72.1016 142.767C73.4169 142.923 74.8616 142.78 76.0209 143.288C80.083 145.081 83.94 143.85 87.8727 142.905C93.2903 141.598 98.3467 139.427 103.247 136.814C104.803 135.985 106.466 135.356 108.076 134.638C109.186 134.393 109.637 133.947 109.543 132.578C109.338 129.577 108.723 126.59 109.03 123.562C108.789 121.355 109.543 119.085 108.602 116.923C108.455 116.04 108.888 115.086 108.25 114.265C108.254 114.1 108.259 113.935 108.263 113.77C113.766 113.525 119.21 112.763 124.659 112.022C125.35 114.435 125.341 116.958 125.403 119.402C125.564 125.809 125.782 132.239 125.02 138.629C124.494 143.034 123.798 147.426 119.705 150.231C118.951 150.222 118.198 150.213 117.444 150.204C114.644 149.513 111.848 149.509 109.048 150.204C106.52 150.213 103.992 150.222 101.459 150.231C102.275 149.183 102.757 148.033 102.092 146.766C101.455 145.553 100.228 145.785 99.1315 145.785C90.4143 145.785 81.6927 145.799 72.9755 145.803L72.98 145.808ZM114.341 135.151C114.51 135.258 114.675 135.369 114.849 135.463C114.858 135.467 114.929 135.36 114.974 135.302C114.782 135.227 114.591 135.155 114.399 135.079C114.087 133.648 112.736 133.372 111.728 132.734C111.291 132.458 110.711 132.275 110.462 132.97C110.23 133.617 110.462 134.09 111.193 134.277C112.245 134.544 113.289 134.857 114.336 135.146L114.341 135.151Z" fill="#FBD6D0"/><path d="M172.15 128.846C172.578 128.859 173.01 128.872 173.438 128.886C175.035 128.703 175.811 129.118 175.766 131.017C175.637 136.854 175.668 142.695 175.753 148.532C175.775 150.128 175.405 150.757 173.675 150.712C169.167 150.596 164.65 150.632 160.142 150.699C158.782 150.717 158.349 150.248 158.358 148.906C158.412 142.918 158.43 136.934 158.354 130.946C158.332 129.171 159.197 128.774 160.677 128.886C161.243 128.872 161.81 128.864 162.38 128.85H163.263C164.307 128.85 165.35 128.85 166.393 128.85C166.683 128.85 166.973 128.85 167.263 128.85L168.574 128.899C168.872 128.899 169.171 128.908 169.47 128.908C170.076 128.895 170.678 128.877 171.285 128.864C171.575 128.864 171.864 128.855 172.154 128.85L172.15 128.846Z" fill="#CED3DA"/><path d="M77.8712 57.4582C71.3835 55.4383 68.3514 50.5737 66.8398 44.1841C67.8163 44.3267 68.5877 44.4382 69.3591 44.5497C70.9376 45.2185 72.5472 45.2141 74.0321 44.4248C76.2169 43.2611 78.3973 43.0337 80.8542 43.4573C84.4436 44.077 87.819 43.4974 90.0797 40.1978C91.3371 38.3696 92.2556 35.6363 91.2301 34.2496C90.1376 32.7692 90.0886 31.2666 89.4643 29.8353C89.6115 29.7461 89.6516 29.6213 89.5803 29.4607L89.5491 29.483C91.1766 29.269 92.648 28.3326 94.3424 28.453C94.5297 29.8977 93.9991 31.2309 94.28 32.8317C94.7705 35.6586 96.4425 38.2225 96.117 41.201C96.0323 41.9992 96.1081 42.8152 96.1081 43.6222C95.3679 46.467 94.2443 49.1334 92.5098 51.5234C88.907 55.7237 84.6398 58.4615 78.8031 57.7614L78.812 57.7748C78.5534 57.4894 78.2368 57.3824 77.8623 57.4538L77.8712 57.4582ZM70.3802 46.8683C71.8472 49.9004 73.7155 50.9215 76.9437 50.6896C79.7083 50.4934 81.8708 48.9774 82.5486 46.7658C82.776 46.0167 83.0837 45.2185 81.7192 45.5128C78.0629 46.2976 74.362 46.7747 70.3802 46.8683Z" fill="#5A6C81"/><path d="M166.39 128.85C165.346 128.85 164.303 128.85 163.26 128.85C161.521 123.891 159.113 119.312 155.59 115.366C158.003 119.789 160.624 124.101 162.377 128.85C161.81 128.863 161.244 128.872 160.673 128.885C158.769 126.067 156.848 123.258 154.97 120.422C153.825 118.688 152.812 116.86 152.309 114.835C151.961 113.435 151.921 112.022 153.459 111.13C155.06 110.203 156.326 110.84 157.414 111.995C160.129 114.867 161.449 118.501 162.818 122.099C163.389 123.602 163.835 125.158 164.535 127.294C164.793 123.347 163.933 120.235 162.519 117.288C160.508 113.096 157.891 109.19 156.874 104.558C156.5 102.845 156.437 101.173 157.133 99.5547C158.382 96.6386 160.999 96.0723 163.384 98.1992C165.971 100.513 167.21 103.603 168.147 106.823C169.787 112.454 169.556 118.238 169.368 124.007C167.803 125.425 169.07 127.311 168.566 128.903C168.129 128.885 167.692 128.872 167.255 128.854C167.371 119.294 163.679 105.048 160.553 103.84C164.602 111.812 166.51 120.106 166.385 128.859L166.39 128.85Z" fill="#4EC7E7"/><path d="M119.704 150.235C123.793 147.43 124.493 143.038 125.019 138.633C125.782 132.243 125.563 125.813 125.403 119.406C125.34 116.962 125.349 114.439 124.658 112.026C124.636 111.464 124.618 110.907 124.6 110.345C126.843 110.653 127.418 109.685 127.271 107.492C126.772 100.139 125.782 92.8663 124.003 85.7142C122.875 81.175 120.239 77.4474 117.39 73.8535C120.98 73.9427 127.244 79.1864 128.528 84.4434C128.881 85.8747 129.064 87.315 129.059 88.8087C129.023 108.406 129.001 127.998 129.081 147.595C129.09 149.749 128.497 150.449 126.361 150.27C124.159 150.087 121.925 150.23 119.704 150.235Z" fill="#D8DCE2"/><path d="M64.7485 33.8125C65.4441 31.5608 66.0461 29.3001 65.9391 26.9012C65.8633 25.1578 66.5098 24.3686 68.5163 24.3998C73.9785 24.489 79.405 24.1144 84.7334 21.2295C83.2664 25.8801 86.0487 27.6414 89.442 28.9969C89.4821 29.1574 89.5178 29.318 89.5579 29.4785L89.5891 29.4562C88.2782 29.4027 87.101 29.5677 86.7889 31.155L86.8023 31.1416C85.6653 31.1595 84.5684 31.0302 83.6677 30.2276C82.6778 28.6848 81.2554 28.2523 79.5432 28.6937C79.0705 28.8141 78.4909 28.9702 78.4374 29.5899C78.366 30.3792 78.968 30.5085 79.5744 30.5843C79.4986 31.5385 77.9558 31.7258 78.3393 32.9252L78.3482 32.9163C77.2602 32.894 77.1354 33.7546 76.8455 34.5081C76.471 35.4891 75.6684 36.1579 74.9104 35.1279C73.8715 33.7189 72.3198 33.0233 71.1381 31.8506C71.3611 30.4817 70.6521 30.0403 69.4661 30.3613C68.2354 30.6913 67.1118 31.271 66.7595 32.6755C66.0907 33.0501 65.4174 33.4246 64.7485 33.7992V33.8125Z" fill="#F7D5CF"/><path d="M49.9226 105.766C45.4548 105.766 40.9825 105.766 36.5146 105.766C38.5702 100.433 40.871 95.212 43.6935 90.2314C43.8317 90.441 43.9699 90.6506 44.1082 90.8602C43.2833 91.8946 44.1661 92.1978 44.8394 92.6437C47.4345 94.3738 50.0118 96.1261 52.5979 97.8696C52.2145 100.67 50.4755 103.015 49.927 105.762L49.9226 105.766Z" fill="#FBD6D0"/><path d="M78.8163 57.7614C84.653 58.457 88.9202 55.7237 92.523 51.5234C93.281 54.0472 93.6912 56.669 94.7792 59.0902C95.4302 61.993 92.0949 65.4977 88.3271 65.7875C85.2148 66.0283 82.584 64.8244 80.1985 62.9115C79.0838 62.0152 79.1997 60.6687 78.7583 59.5272C78.7761 58.9386 78.7984 58.35 78.8163 57.7614Z" fill="#F7D5CF"/><path d="M72.9801 145.807C81.6973 145.803 90.4189 145.794 99.1361 145.789C100.233 145.789 101.459 145.557 102.097 146.77C102.761 148.041 102.28 149.191 101.464 150.235C91.6718 150.226 81.8801 150.212 72.0928 150.204C73.3903 148.942 72.9801 147.332 72.9801 145.803V145.807Z" fill="#ECEEF0"/><path d="M165.52 50.9033C166.167 57.5693 159.282 64.2621 152.179 64.1774C143.885 64.0749 138.624 56.4234 138.771 50.7516C138.963 43.39 144.822 37.4641 152.179 37.3482C159.05 37.2367 166.051 43.39 165.516 50.9077L165.52 50.9033ZM164.579 50.6848C164.557 43.4613 158.448 38.4674 149.994 38.7661C144.55 38.9578 140.234 44.906 140.144 52.339C140.082 57.4266 146.311 63.25 152.085 63.0627C159.26 62.8308 164.098 57.9706 164.579 50.6848Z" fill="#BDC3CD"/><path d="M86.352 40.0327C84.8672 40.9825 83.4537 42.173 81.4918 41.7494C78.6872 41.1385 76.8858 38.0797 77.6482 35.2483C77.8578 34.468 78.112 33.7011 78.3483 32.9252L78.3394 32.9341C81.9154 30.5174 82.776 30.5174 86.352 32.9341L86.3431 32.9252C87.391 35.2973 87.3954 37.6695 86.3431 40.0416L86.352 40.0327ZM82.7671 35.7522C82.5976 35.0699 82.5798 34.0444 81.5988 34.0489C80.9701 34.0489 80.9969 34.9317 81.0593 35.5069C81.1351 36.2248 81.251 37.1344 82.0848 37.1879C82.7671 37.2281 82.7537 36.4076 82.7671 35.7566V35.7522Z" fill="#FBD6D0"/><path d="M74.3928 38.4494C74.4775 41.6063 71.6104 44.0765 68.672 43.537C67.5127 43.323 66.6253 42.8369 66.4247 41.5171C66.2463 40.3622 66.0145 39.2118 65.7514 38.0704C65.4036 36.5633 64.8329 34.9625 66.5005 33.9102C68.7389 32.4967 70.8836 32.5948 72.5691 34.0573C73.9424 35.2434 75.1731 36.5276 74.3883 38.4494H74.3928ZM70.3173 37.5487C70.2237 36.8575 70.1568 35.89 69.3631 35.8008C68.4802 35.7027 68.5739 36.6524 68.614 37.2678C68.6631 37.999 68.8013 38.9309 69.6485 38.98C70.3708 39.0246 70.295 38.1685 70.3173 37.5487Z" fill="#FBD6D0"/><path d="M89.4724 29.8302C90.0967 31.266 90.1457 32.7642 91.2381 34.2445C92.2592 35.6312 91.3407 38.3646 90.0877 40.1927C87.8226 43.4923 84.4472 44.072 80.8623 43.4522C78.4099 43.0286 76.225 43.256 74.0401 44.4198C72.5553 45.209 70.9456 45.2179 69.3672 44.5446C71.6635 44.3172 73.5051 43.3139 74.7981 41.3699C75.5695 42.0521 76.3989 41.9317 77.2149 41.4903C77.3219 41.4323 77.3843 41.0265 77.2951 40.9017C76.7556 40.1526 75.953 40.5851 75.2574 40.4959C75.6364 39.2697 75.7122 37.9766 75.9708 36.6568C76.7868 38.0123 77.197 39.4615 78.1646 40.6341C79.9928 42.8413 82.9312 43.3318 85.2855 41.7622C85.9231 41.3387 86.5206 40.9195 86.3467 40.0188L86.3378 40.0277C88.9017 38.2798 88.9017 34.6547 86.3378 32.9113L86.3467 32.9202C86.311 32.2781 86.4671 31.6851 86.7971 31.1322L86.7837 31.1456C87.6799 30.7042 88.5717 30.2627 89.4679 29.8213L89.4724 29.8302Z" fill="#F7D5CF"/><path d="M96.1173 43.6177C96.1173 42.8107 96.037 41.9947 96.1262 41.1966C96.4517 38.218 94.7796 35.6497 94.2891 32.8272C94.0127 31.2264 94.5388 29.8932 94.3515 28.4485C94.3515 28.3371 94.3515 28.2256 94.3515 28.1141C95.6714 27.637 96.6791 26.3127 98.3066 26.6605C101.508 29.1307 101.722 34.1515 98.5607 36.5682C97.0269 37.7409 97.6333 39.4085 97.1027 40.7908C96.7504 41.7093 96.8262 42.8018 96.1128 43.6177H96.1173ZM95.7516 35.3465C95.7873 32.952 97.0135 30.9009 97.6378 28.6804C95.2567 30.3837 94.949 32.7113 95.7516 35.3465Z" fill="#F7D5CF"/><path d="M66.7598 32.6887C67.1165 31.2797 68.2357 30.7045 69.4663 30.3746C70.6524 30.058 71.3569 30.4994 71.1384 31.8638C69.6937 32.225 68.1108 31.8371 66.7598 32.6887Z" fill="#5A6C81"/><path d="M168.57 128.894C169.074 127.302 167.808 125.416 169.373 123.998C169.529 123.998 169.689 123.998 169.845 124.003C169.72 125.634 169.591 127.271 169.466 128.903C169.168 128.903 168.869 128.894 168.57 128.894Z" fill="#ECEEF0"/><path d="M109.048 150.208C111.849 149.512 114.644 149.517 117.444 150.208C114.644 150.208 111.849 150.208 109.048 150.208Z" fill="#FBC7BF"/><path d="M75.2586 40.5056C75.9497 40.5948 76.7568 40.1623 77.2963 40.9114C77.3855 41.0362 77.3231 41.442 77.216 41.5C76.4001 41.9369 75.5707 42.0618 74.7993 41.3796C74.9509 41.0897 75.107 40.7999 75.2586 40.5101V40.5056Z" fill="#F3ACA5"/><path d="M77.8711 57.4584C78.2501 57.387 78.5667 57.4896 78.8208 57.7794C78.4418 57.8597 78.1119 57.7883 77.8711 57.4584Z" fill="#F7D5CF"/><path d="M172.15 128.845C171.86 128.845 171.57 128.854 171.28 128.859C172.194 123.673 173.942 118.746 176.123 113.984C176.894 112.303 177.17 110.305 178.945 109.115C176.355 115.594 173.371 121.925 172.15 128.85V128.845Z" fill="#04AACD"/><path d="M124.596 110.341C124.614 110.903 124.636 111.46 124.654 112.022C119.205 112.767 113.761 113.525 108.258 113.77C107.853 111.902 108.129 110.952 110.519 111.068C115.214 111.3 119.865 109.975 124.596 110.341Z" fill="#F3ACA5"/><path d="M49.9229 105.766C50.4713 103.02 52.2103 100.674 52.5937 97.874C53.0798 98.1282 53.5702 98.3868 54.0563 98.641C53.7085 101.022 53.3562 103.408 53.0084 105.789C51.9784 105.78 50.9529 105.775 49.9229 105.766Z" fill="white"/><path d="M109.025 123.557C108.718 126.585 109.333 129.572 109.538 132.573C109.632 133.942 109.182 134.388 108.071 134.633C108.129 127.842 108.187 121.051 108.245 114.26C108.878 115.076 108.446 116.035 108.597 116.918C108.794 119.125 108.08 121.395 109.025 123.557Z" fill="#D8DCE2"/><path d="M54.0559 98.6406C53.5698 98.382 53.0794 98.1278 52.5933 97.8737C50.0072 96.1302 47.4299 94.3734 44.8348 92.6478C44.1616 92.2019 43.2787 91.8987 44.1036 90.8643C47.1936 93.0001 50.2881 95.1225 53.3603 97.2762C53.7883 97.5794 54.5062 97.8469 54.0514 98.6406H54.0559Z" fill="#F3ACA5"/><path d="M37.3216 133.754C36.1935 134.057 35.44 135.172 34.138 135.128C32.4971 135.074 31.1237 134.566 30.2141 133.126C29.2778 131.641 29.086 130.12 30.0491 128.56C30.3167 128.127 30.553 127.681 30.8027 127.24C32.2206 126.647 33.5628 125.84 35.2304 126.464C38.2179 127.579 38.9447 130.031 37.3216 133.759V133.754Z" fill="white"/><path d="M37.3217 133.755C38.9447 130.027 38.2179 127.575 35.2304 126.46C33.5628 125.836 32.2162 126.643 30.8027 127.236C31.4983 124.574 33.4736 123.281 36.3942 123.571C38.7574 123.807 40.7506 125.8 40.9869 128.163C41.2812 131.084 39.9836 133.055 37.3217 133.75V133.755Z" fill="#BDC3CD"/><path d="M94.3512 28.114C94.3512 28.2255 94.3512 28.3369 94.3512 28.4484C92.6523 28.328 91.1809 29.2644 89.5578 29.4784C89.5222 29.3179 89.482 29.1574 89.4419 28.9968C90.9847 28.1809 92.5988 27.7707 94.3512 28.114Z" fill="white"/><path d="M114.336 135.155C113.288 134.86 112.244 134.553 111.192 134.281C110.461 134.093 110.225 133.616 110.461 132.974C110.711 132.279 111.29 132.461 111.727 132.738C112.735 133.375 114.081 133.652 114.398 135.083L114.34 135.15L114.336 135.155Z" fill="#F3ACA5"/><path d="M109.025 123.557C108.08 121.395 108.789 119.13 108.597 116.918C109.542 119.081 108.784 121.35 109.025 123.557Z" fill="#FBC7BF"/><path d="M114.398 135.083C114.59 135.159 114.782 135.23 114.974 135.306C114.929 135.359 114.858 135.471 114.849 135.466C114.675 135.368 114.51 135.261 114.34 135.154L114.398 135.087V135.083Z" fill="#F3ACA5"/><path d="M166.39 128.85C166.515 120.097 164.606 111.804 160.558 103.831C163.683 105.039 167.371 119.29 167.259 128.846C166.97 128.846 166.68 128.846 166.39 128.846V128.85Z" fill="#04AACD"/><path d="M162.376 128.849C160.624 124.101 158.002 119.789 155.59 115.366C159.112 119.312 161.52 123.887 163.259 128.849C162.965 128.849 162.671 128.849 162.376 128.849Z" fill="#04AACD"/><path d="M70.3848 46.8637C74.3666 46.77 78.0675 46.2929 81.7238 45.5081C83.0927 45.2139 82.785 46.0075 82.5531 46.7611C81.8754 48.9727 79.7128 50.4887 76.9483 50.6849C73.72 50.9168 71.8517 49.8957 70.3848 46.8637Z" fill="#ECEEF0"/><path d="M89.4733 29.8311C88.5771 30.2725 87.6853 30.714 86.7891 31.1554C87.1012 29.568 88.2783 29.403 89.5893 29.4565C89.6606 29.6171 89.6205 29.7419 89.4733 29.8311Z" fill="white"/><path d="M86.7977 31.1459C86.4722 31.6989 86.3117 32.2919 86.3474 32.934C82.7758 30.5172 81.9108 30.5172 78.3347 32.934C77.9513 31.7345 79.4896 31.5517 79.5698 30.593L79.6011 30.6243C80.1094 30.7268 80.6088 30.7803 81.0056 30.33C81.8929 30.2988 82.7758 30.2675 83.6631 30.2363C84.5638 31.0389 85.6563 31.1682 86.7977 31.1504V31.1459Z" fill="white"/><path d="M83.6672 30.2326C82.7799 30.2638 81.897 30.295 81.0097 30.3263C80.5014 30.2237 79.9886 30.1256 79.6052 30.6205L79.5739 30.5893C78.9675 30.5135 78.3656 30.3842 78.4369 29.595C78.4904 28.9752 79.0701 28.8191 79.5427 28.6988C81.255 28.2573 82.6773 28.6898 83.6672 30.2326Z" fill="#5A6C81"/><path d="M164.579 50.6848C164.097 57.9707 159.255 62.8309 152.085 63.0627C146.311 63.25 140.082 57.4267 140.144 52.3391C140.233 44.9061 144.549 38.9579 149.994 38.7661C158.443 38.4674 164.552 43.4614 164.579 50.6848ZM145.419 50.6982C145.401 50.8453 145.388 50.9925 145.37 51.1396C147.43 51.1396 149.494 51.1262 151.554 51.1441C152.281 51.1485 152.629 50.8988 152.607 50.1141C152.567 48.5178 152.593 46.917 152.593 45.3163C152.134 46.5781 152.072 47.8266 152.152 49.0662C152.232 50.3281 151.737 50.7784 150.489 50.7205C148.803 50.6402 147.109 50.7026 145.419 50.7026V50.6982Z" fill="white"/><path d="M86.3433 32.9209C88.9071 34.6688 88.9071 38.2939 86.3433 40.0373C87.3956 37.6652 87.3911 35.293 86.3433 32.9209Z" fill="white"/><path d="M82.7667 35.7517C82.7533 36.4027 82.7667 37.2276 82.0844 37.183C81.2506 37.134 81.1347 36.2244 81.0589 35.502C80.9965 34.9268 80.9697 34.0484 81.5984 34.044C82.5794 34.0395 82.5972 35.065 82.7667 35.7473V35.7517Z" fill="#5A6C81"/><path d="M70.3177 37.5445C70.2954 38.1643 70.3712 39.0204 69.6489 38.9758C68.8017 38.9267 68.6634 37.9948 68.6144 37.2636C68.5743 36.6482 68.4806 35.6985 69.3635 35.7966C70.1572 35.8858 70.2241 36.8533 70.3177 37.5445Z" fill="#5A6C81"/><path d="M95.7509 35.3462C94.9439 32.711 95.256 30.3835 97.6371 28.6802C97.0128 30.8963 95.7911 32.9518 95.7509 35.3462Z" fill="#F3ACA5"/><path d="M79.6055 30.6201C79.9889 30.1207 80.4972 30.2188 81.01 30.3258C80.6176 30.7762 80.1182 30.7227 79.6055 30.6201Z" fill="#F7D5CF"/><path d="M145.419 50.6989C147.109 50.6989 148.803 50.6409 150.488 50.7167C151.741 50.7747 152.232 50.3243 152.152 49.0624C152.071 47.8229 152.134 46.5699 152.593 45.3125C152.593 46.9132 152.562 48.514 152.606 50.1103C152.629 50.8995 152.281 51.1492 151.554 51.1403C149.494 51.1225 147.43 51.1358 145.37 51.1358C145.387 50.9887 145.401 50.8415 145.419 50.6944V50.6989Z" fill="#868B97"/><path d="M82.3656 30.0586C79.0616 30.0586 76.3862 32.8499 76.3862 36.2877C76.3862 39.7255 79.0616 42.5168 82.3656 42.5168C85.6697 42.5168 88.345 39.7255 88.345 36.2877C88.345 32.8499 85.6697 30.0586 82.3656 30.0586ZM82.3656 41.625C79.561 41.625 77.278 39.2306 77.278 36.2877C77.278 33.3448 79.561 30.9504 82.3656 30.9504C85.1703 30.9504 87.4532 33.3448 87.4532 36.2877C87.4532 39.2306 85.1703 41.625 82.3656 41.625Z" fill="#5A6C81" stroke="#5A6C81" stroke-miterlimit="10"/><path d="M69.7646 31.8506C66.4605 31.8506 63.7852 34.6419 63.7852 38.0797C63.7852 41.5175 66.4605 44.3088 69.7646 44.3088C73.0686 44.3088 75.7439 41.5175 75.7439 38.0797C75.7439 34.6419 73.0686 31.8506 69.7646 31.8506ZM69.7646 43.417C66.9599 43.417 64.6769 41.0226 64.6769 38.0797C64.6769 35.1368 66.9599 32.7424 69.7646 32.7424C72.5692 32.7424 74.8522 35.1368 74.8522 38.0797C74.8522 41.0226 72.5692 43.417 69.7646 43.417Z" fill="#5A6C81" stroke="#5A6C81" stroke-miterlimit="10"/><path d="M63.8613 34.829C63.8613 34.829 63.9862 35.3284 64.1868 35.4622L64.4588 35.2125L64.3161 34.6507L64.1601 34.5972L63.8613 34.829Z" fill="#5A6C81"/><path d="M85.9951 31.1193C85.9951 31.1193 88.5456 27.2891 94.3511 28.1139V28.7337C94.3511 28.7337 89.7986 28.5643 86.7843 31.7881L86.1467 31.6722L85.9951 31.1148V31.1193Z" fill="#5A6C81"/><path d="M64.7484 33.8125C64.7484 33.8125 64.9357 34.41 64.9267 34.4234C64.9178 34.4367 64.6369 35.0298 64.6369 35.0298L64.2178 34.7355V34.1246L64.7484 33.8125Z" fill="#5A6C81"/><path d="M75.0176 35.6539C75.0176 35.6539 75.8069 35.2437 76.6853 35.4131C76.6853 35.4131 76.6987 37.2457 75.8738 37.1833C75.0489 37.1209 75.0132 35.6539 75.0132 35.6539H75.0176Z" fill="#5A6C81" stroke="#5A6C81" stroke-miterlimit="10"/></svg>