<svg width="84" height="42" viewBox="0 0 84 42" fill="none" xmlns="http://www.w3.org/2000/svg">
<path fill-rule="evenodd" clip-rule="evenodd" d="M36.0469 14.6014C42.9045 -1.59709 50.1088 3.37534 57.2076 12.283C55.0674 13.6252 52.9272 14.7692 50.8925 15.4098C45.6626 9.30869 40.6438 6.47166 36.0469 14.6014Z" fill="#76B639"/>
<path style="mix-blend-mode:multiply" opacity="0.92" d="M53.272 11.2154C59.7981 8.86641 65.3897 8.8054 65.6911 11.0781C66.0227 13.3507 60.9134 17.1182 54.4024 19.4519C47.7859 21.8313 42.1792 21.9076 41.8929 19.6197C41.5763 17.347 46.6857 13.5795 53.272 11.2154Z" fill="url(#paint0_radial_3334_218)"/>
<path fill-rule="evenodd" clip-rule="evenodd" d="M60.1178 16.1268C68.4374 27.5206 76.5159 41.0804 83.6297 28.5273C74.2099 50.7812 64.142 33.1032 54.6016 20.1383C56.4403 18.9638 58.3092 17.4843 60.1178 16.1268Z" fill="#76B639"/>
<path fill-rule="evenodd" clip-rule="evenodd" d="M73.0773 30.6627L73.4239 13.1982C73.4239 12.9847 73.2581 12.7254 73.0471 12.6186C72.8361 12.5119 72.6552 12.6186 72.6552 12.8169L72.3086 30.2814C72.3086 30.495 72.4744 30.7695 72.6854 30.861C72.8964 30.9678 73.0773 30.861 73.0773 30.6627Z" fill="#76B639"/>
<path fill-rule="evenodd" clip-rule="evenodd" d="M70.3351 28.2527L70.5159 11.3831C70.5159 11.1696 70.3501 10.9103 70.1391 10.8035C69.9281 10.6967 69.7473 10.8035 69.7473 11.017L69.5664 27.8867C69.5664 28.1002 69.7322 28.3748 69.9432 28.4663C70.1542 28.573 70.3351 28.4663 70.3351 28.268V28.2527Z" fill="#1B73D4"/>
<path fill-rule="evenodd" clip-rule="evenodd" d="M67.3792 24.6989L67.2887 12.3288C67.2887 12.1153 67.123 11.856 66.9119 11.7492C66.7009 11.6424 66.5352 11.7187 66.5352 11.9322L66.6256 24.3023C66.6256 24.5006 66.7914 24.7751 67.0024 24.8819C67.2134 24.9887 67.3792 24.9124 67.3792 24.6989Z" fill="#76B639"/>
<path fill-rule="evenodd" clip-rule="evenodd" d="M47.1983 18.2316L47.4093 12.7863C47.4093 12.5728 47.2586 12.2677 47.0326 12.2067C46.8065 12.1305 46.6407 12.2067 46.6407 12.405L46.4297 17.8503C46.4297 18.0791 46.5804 18.3689 46.8065 18.4299C47.0326 18.5062 47.1983 18.4299 47.1983 18.2316Z" fill="#1B73D4"/>
<path fill-rule="evenodd" clip-rule="evenodd" d="M44.3194 18.1554L44.4702 10.9561C44.4702 10.7425 44.3194 10.4527 44.0934 10.3765C43.8673 10.3002 43.7015 10.3765 43.7015 10.59L43.5508 17.7893C43.5508 18.0029 43.7618 18.2012 43.9276 18.369C44.0934 18.5367 44.3194 18.369 44.3194 18.1707V18.1554Z" fill="#76B639"/>
<path fill-rule="evenodd" clip-rule="evenodd" d="M41.3211 17.3317L41.2458 11.917C41.2458 11.7034 41.0649 11.4441 40.869 11.3374C40.658 11.2306 40.4922 11.3069 40.4922 11.5204L40.5675 16.9352C40.5675 17.1335 40.7333 17.408 40.9443 17.5148C41.1553 17.6215 41.3211 17.5605 41.3211 17.347V17.3317Z" fill="#1B73D4"/>
<path style="mix-blend-mode:multiply" opacity="0.92" d="M51.8723 18.8113C55.6704 13.6253 60.0261 10.7578 61.5484 12.4356C63.1008 14.0982 61.2319 19.7112 57.4489 24.8819C53.5905 30.1441 49.2348 33.0422 47.7125 31.3339C46.1602 29.6713 48.0441 24.043 51.8723 18.8113Z" fill="url(#paint1_radial_3334_218)"/>
<path fill-rule="evenodd" clip-rule="evenodd" d="M38.2188 15.7455C53.9084 44.4818 64.323 -4.03746 75.3856 13.8236C77.1339 -25.666 53.0041 34.5827 38.2188 15.7455Z" fill="#1B73D4"/>
<path d="M0.763998 39.0365C0.929787 38.9297 1.12572 38.884 1.3518 38.884C1.80395 38.884 2.0451 39.1128 2.0451 39.5856V40.577H1.89438V40.3025C1.89438 40.3025 1.89438 40.333 1.86423 40.3482C1.86423 40.3482 1.83409 40.3635 1.83409 40.3787C1.81902 40.3787 1.80395 40.4245 1.7738 40.4398C1.75873 40.4398 1.72859 40.4703 1.71352 40.4855C1.68337 40.5008 1.65323 40.5313 1.62309 40.5465C1.59294 40.5465 1.54773 40.577 1.51758 40.5923C1.48744 40.5923 1.44223 40.6075 1.39701 40.6228C1.3518 40.6228 1.30658 40.6228 1.26137 40.6228C1.05036 40.6228 0.899644 40.577 0.794142 40.4703C0.673568 40.3635 0.613281 40.2262 0.613281 40.0737C0.613281 39.9212 0.673568 39.7839 0.809214 39.6924C0.944859 39.5856 1.11065 39.5398 1.30658 39.5398H1.87931C1.87931 39.2958 1.78888 39.128 1.57787 39.0518C1.51758 39.0365 1.4573 39.0212 1.38194 39.0212C1.30658 39.0212 1.24629 39.0212 1.17094 39.0212C1.11065 39.0212 1.06543 39.0365 1.02022 39.0518C0.975003 39.0518 0.944859 39.0823 0.914716 39.0975C0.899644 39.0975 0.869501 39.128 0.854429 39.128C0.824285 39.1433 0.824285 39.1433 0.809214 39.1433L0.763998 39.006V39.0365ZM1.89438 39.8907V39.7076H1.47237C1.33672 39.7076 1.20108 39.7076 1.09558 39.7381C0.990074 39.7534 0.914716 39.7991 0.854429 39.8602C0.824285 39.8907 0.809214 39.9212 0.809214 39.9517C0.809214 39.9822 0.77907 40.0279 0.77907 40.0737C0.77907 40.1195 0.77907 40.1652 0.794142 40.211C0.809214 40.2567 0.839357 40.3025 0.869501 40.3482C0.899644 40.3787 0.944859 40.4093 1.02022 40.4398C1.0805 40.455 1.17094 40.4855 1.26137 40.4855C1.32165 40.4855 1.38194 40.4855 1.44223 40.455C1.48744 40.455 1.53266 40.4398 1.57787 40.4093C1.62309 40.4093 1.65323 40.3787 1.68337 40.3482C1.71352 40.3177 1.74366 40.3025 1.75873 40.272C1.78888 40.2415 1.80395 40.2262 1.81902 40.1957C1.81902 40.1652 1.84916 40.15 1.84916 40.1195C1.84916 40.0889 1.87931 40.0737 1.87931 40.0584C1.87931 40.0432 1.87931 40.0279 1.89438 40.0127V39.8754V39.8907Z" fill="#727880"/>
<path d="M3.70436 38.9145H4.27709V39.0518H3.70436V39.8449V39.9517C3.70436 39.9517 3.70436 40.028 3.70436 40.0432C3.70436 40.0585 3.70436 40.089 3.70436 40.1195C3.70436 40.15 3.70436 40.1805 3.70436 40.1957C3.70436 40.2262 3.71944 40.2415 3.73451 40.272C3.74958 40.3025 3.76465 40.3178 3.77972 40.333C3.88523 40.455 4.05101 40.4703 4.27709 40.394V40.5466H4.26202C4.26202 40.5466 4.24695 40.5466 4.23188 40.5466C4.23188 40.5466 4.20173 40.5466 4.18666 40.5466C4.17159 40.5466 4.15652 40.5466 4.12637 40.5466C4.1113 40.5466 4.08116 40.5466 4.06609 40.5466H3.99073C3.99073 40.5466 3.94551 40.5466 3.91537 40.5466C3.88523 40.5466 3.87015 40.5466 3.84001 40.5161C3.80987 40.5161 3.7948 40.5008 3.76465 40.4703C3.73451 40.4703 3.71944 40.4398 3.68929 40.4093C3.64408 40.3635 3.61393 40.2873 3.58379 40.211C3.56872 40.1042 3.55365 40.0585 3.55365 40.0127V38.9908H3.3125V38.8535H3.55365V38.3196H3.71944V38.8535L3.70436 38.9145Z" fill="#727880"/>
<path d="M4.57539 39.0365C4.75625 38.9297 4.95219 38.884 5.16319 38.884C5.61534 38.884 5.85649 39.1128 5.85649 39.5856V40.577H5.6907V40.3025C5.6907 40.3025 5.6907 40.333 5.66056 40.3482C5.66056 40.3482 5.64548 40.3635 5.61534 40.3787C5.61534 40.3787 5.5852 40.4245 5.57013 40.4398C5.55505 40.4398 5.52491 40.4703 5.49477 40.4855C5.46462 40.5008 5.44955 40.5313 5.40434 40.5465C5.37419 40.5465 5.32898 40.577 5.29883 40.5923C5.26869 40.5923 5.22348 40.6075 5.17826 40.6228C5.13305 40.6228 5.08783 40.6228 5.04262 40.6228C4.84668 40.6228 4.68089 40.577 4.57539 40.4703C4.45482 40.3635 4.39453 40.2262 4.39453 40.0737C4.39453 39.9212 4.45482 39.7839 4.59046 39.6924C4.72611 39.5856 4.8919 39.5398 5.08783 39.5398H5.66056C5.66056 39.2958 5.57013 39.128 5.37419 39.0518C5.31391 39.0365 5.25362 39.0212 5.17826 39.0212C5.1029 39.0212 5.02754 39.0212 4.96726 39.0212C4.90697 39.0212 4.84668 39.0365 4.81654 39.0518C4.77132 39.0518 4.74118 39.0823 4.71104 39.0975C4.68089 39.0975 4.66582 39.128 4.63568 39.128C4.62061 39.1433 4.60554 39.1433 4.60554 39.1433L4.54525 39.006L4.57539 39.0365ZM5.70577 39.8907V39.7076H5.28376C5.13305 39.7076 5.02754 39.7076 4.92204 39.7381C4.81654 39.7534 4.74118 39.7991 4.68089 39.8602C4.66582 39.8907 4.65075 39.9212 4.62061 39.9517C4.62061 39.9822 4.60554 40.0279 4.60554 40.0737C4.60554 40.1195 4.60554 40.1652 4.60554 40.211C4.62061 40.2567 4.65075 40.3025 4.68089 40.3482C4.72611 40.3787 4.77132 40.4093 4.83161 40.4398C4.90697 40.455 4.98233 40.4855 5.07276 40.4855C5.13305 40.4855 5.19333 40.4855 5.23855 40.455C5.29883 40.455 5.34405 40.4398 5.37419 40.4093C5.41941 40.4093 5.44955 40.3787 5.4797 40.3482C5.50984 40.3177 5.53998 40.3025 5.55505 40.272C5.57013 40.2415 5.60027 40.2262 5.60027 40.1957C5.61534 40.1652 5.63041 40.15 5.64548 40.1195C5.64548 40.0889 5.64548 40.0737 5.66056 40.0584C5.66056 40.0432 5.66056 40.0279 5.66056 40.0127C5.66056 40.0127 5.66056 39.9669 5.66056 39.8754L5.70577 39.8907Z" fill="#727880"/>
<path d="M7.92462 40.3177C7.92462 40.3177 7.92462 40.4245 7.90955 40.5008C7.90955 40.577 7.87941 40.638 7.83419 40.7143C7.78898 40.7906 7.74376 40.8516 7.6684 40.9126C7.59304 40.9736 7.51769 41.0194 7.41218 41.0651C7.32175 41.1109 7.21625 41.1261 7.11075 41.1261C6.89974 41.1261 6.68874 41.0651 6.47774 40.9584V40.7601C6.61338 40.8973 6.80931 40.9736 7.09568 40.9736C7.18611 40.9736 7.26147 40.9736 7.33682 40.9279C7.41218 40.8973 7.4574 40.8821 7.50261 40.8516C7.54783 40.8211 7.59304 40.7753 7.62319 40.7296C7.6684 40.6838 7.68347 40.638 7.69855 40.6075C7.71362 40.5618 7.72869 40.5313 7.74376 40.4703C7.74376 40.4245 7.74376 40.3787 7.74376 40.3635C7.74376 40.3635 7.74376 40.333 7.74376 40.3025V40.0584C7.74376 40.0584 7.6684 40.15 7.63826 40.1805C7.59304 40.2262 7.54783 40.2567 7.50261 40.3025C7.44233 40.3482 7.38204 40.3788 7.30668 40.394C7.23132 40.4245 7.15596 40.4398 7.0806 40.4398C6.99017 40.4398 6.89974 40.4398 6.80931 40.394C6.71888 40.3635 6.62845 40.3177 6.53802 40.2567C6.46266 40.1957 6.38731 40.1042 6.35716 40.0127C6.31195 39.9059 6.29688 39.7839 6.29688 39.6619C6.29688 39.5398 6.32702 39.4178 6.37223 39.3111C6.43252 39.189 6.50788 39.0975 6.64352 39.006C6.7641 38.9297 6.89974 38.884 7.03539 38.884C7.12582 38.884 7.20118 38.884 7.27654 38.9145C7.3519 38.945 7.39711 38.9602 7.44233 38.9755C7.48754 39.006 7.53276 39.0365 7.57797 39.0823C7.62319 39.128 7.65333 39.1585 7.6684 39.1738C7.68347 39.189 7.69855 39.2195 7.72869 39.25C7.72869 39.25 7.72869 39.2653 7.74376 39.2653V38.9145H7.90955V40.3177H7.92462ZM7.09568 40.3025C7.26147 40.3025 7.41218 40.2415 7.5629 40.1195C7.69855 39.9974 7.7739 39.8449 7.7739 39.6619C7.7739 39.4788 7.71362 39.3263 7.5629 39.2043C7.41218 39.0823 7.26147 39.0212 7.09568 39.0212C6.92989 39.0212 6.7641 39.0823 6.64352 39.2043C6.52295 39.3263 6.44759 39.4941 6.44759 39.6619C6.44759 39.8296 6.50788 39.9974 6.64352 40.1195C6.7641 40.2415 6.91482 40.3025 7.09568 40.3025Z" fill="#727880"/>
<path d="M8.56924 39.8297V39.8602C8.56924 39.8602 8.56924 39.906 8.56924 39.9517C8.56924 40.0127 8.56924 40.0585 8.56924 40.0737C8.56924 40.0737 8.56924 40.1195 8.56924 40.1653C8.56924 40.211 8.56924 40.2415 8.59938 40.2568C8.61445 40.2873 8.62953 40.3178 8.65967 40.333C8.76517 40.4551 8.93096 40.4703 9.14196 40.3941V40.5466C9.14196 40.5466 9.09675 40.5466 9.08168 40.5618C9.08168 40.5618 9.05153 40.5618 9.03646 40.5618H8.99125C8.97618 40.5618 8.94603 40.5618 8.93096 40.5618C8.90082 40.5618 8.88575 40.5618 8.8556 40.5618C8.82546 40.5618 8.81039 40.5618 8.78024 40.5618C8.7501 40.5618 8.73503 40.5618 8.70488 40.5313C8.67474 40.5313 8.65967 40.5161 8.62953 40.4856C8.59938 40.4703 8.58431 40.4551 8.55417 40.4246C8.52402 40.4093 8.49388 40.3636 8.47881 40.333C8.44867 40.2873 8.44867 40.2415 8.43359 40.1958C8.43359 40.15 8.43359 40.1043 8.43359 40.0737C8.43359 40.028 8.43359 39.9822 8.43359 39.9517C8.43359 39.906 8.43359 39.8755 8.43359 39.845V38.1671H8.59938V39.8145L8.56924 39.8297Z" fill="#727880"/>
<path d="M9.50391 38.3959H9.72998V38.6704H9.50391V38.3959ZM9.69984 39.2195V38.8992H9.54912V40.577H9.69984V39.2195Z" fill="#727880"/>
<path d="M10.3499 40.5771H10.1992V38.8992H10.3499V39.189C10.4856 38.9603 10.6664 38.8535 10.9076 38.8535C11.1487 38.8535 11.3145 38.9145 11.4351 39.0518C11.5557 39.1738 11.616 39.3568 11.616 39.5856V40.5771H11.4502V39.6619C11.4502 39.2348 11.2693 39.0213 10.8925 39.0213C10.6363 39.0213 10.4705 39.1738 10.365 39.4636V40.5923L10.3499 40.5771Z" fill="#727880"/>
<path d="M12.2316 39.8145C12.2316 39.8145 12.2467 39.9518 12.2769 40.028C12.307 40.1195 12.3673 40.1958 12.4276 40.2568C12.4879 40.3331 12.5632 40.3788 12.6386 40.4093C12.7139 40.4551 12.8194 40.4704 12.9099 40.4704C13.0154 40.4704 13.0907 40.4398 13.1812 40.4093C13.2264 40.3941 13.2867 40.3636 13.3319 40.3178V40.5009C13.3319 40.5009 13.2716 40.5314 13.2414 40.5466C13.1359 40.5924 13.0154 40.6229 12.8948 40.6229C12.7742 40.6229 12.6536 40.5924 12.5632 40.5466C12.4577 40.5009 12.3673 40.4398 12.2919 40.3636C12.2166 40.2873 12.1563 40.1958 12.1111 40.089C12.0659 39.9823 12.0508 39.8755 12.0508 39.7535C12.0508 39.6314 12.0659 39.5247 12.1111 39.4179C12.1563 39.3111 12.2166 39.2196 12.2919 39.1434C12.3673 39.0671 12.4577 38.9908 12.5632 38.9451C12.6687 38.8993 12.7893 38.8688 12.9099 38.8688C12.9702 38.8688 13.0154 38.8688 13.0757 38.8993C13.1359 38.8993 13.1812 38.9451 13.2565 38.9908C13.3319 39.0366 13.3922 39.0976 13.4374 39.1586C13.4826 39.2196 13.5278 39.3111 13.558 39.4332C13.6032 39.5399 13.6032 39.6772 13.6032 39.8145H12.2316ZM12.8948 39.0213C12.8044 39.0213 12.7139 39.0518 12.6235 39.0823C12.5331 39.1128 12.4728 39.1739 12.4125 39.2349C12.3522 39.3111 12.307 39.3721 12.2769 39.4637C12.2467 39.5399 12.2467 39.6009 12.2316 39.6772H13.4374C13.4374 39.6772 13.4072 39.5552 13.3922 39.4484C13.3771 39.3874 13.3469 39.3111 13.3168 39.2654C13.2867 39.2044 13.2414 39.1739 13.2264 39.1434C13.1962 39.1129 13.151 39.0976 13.1058 39.0823C13.0606 39.0671 13.0304 39.0518 13.0154 39.0366C13.0003 39.0366 12.9702 39.0366 12.9249 39.0366C12.9249 39.0366 12.9249 39.0366 12.9099 39.0366L12.8948 39.0213Z" fill="#727880"/>
<path d="M16.5424 40.3177C16.5424 40.3177 16.5424 40.4245 16.5273 40.5008C16.5273 40.577 16.4971 40.638 16.4519 40.7143C16.4067 40.7906 16.3615 40.8516 16.2861 40.9126C16.2108 40.9736 16.1354 41.0194 16.0299 41.0651C15.9395 41.1109 15.834 41.1261 15.7285 41.1261C15.5175 41.1261 15.3065 41.0651 15.0955 40.9584V40.7601C15.216 40.8973 15.4271 40.9736 15.7134 40.9736C15.8038 40.9736 15.8792 40.9736 15.9395 40.9279C16.0149 40.8973 16.0601 40.8821 16.1204 40.8516C16.1656 40.8211 16.2108 40.7753 16.2409 40.7296C16.2861 40.6838 16.3012 40.638 16.3163 40.6075C16.3314 40.5618 16.3464 40.5313 16.3615 40.4703C16.3615 40.4245 16.3615 40.3787 16.3615 40.3635V40.0584C16.3615 40.0584 16.3012 40.15 16.2711 40.1805C16.2259 40.2262 16.1806 40.2567 16.1354 40.3025C16.0751 40.3482 16.0149 40.3788 15.9395 40.394C15.8641 40.4245 15.7888 40.4398 15.7134 40.4398C15.623 40.4398 15.5326 40.4398 15.4421 40.394C15.3517 40.3635 15.2613 40.3177 15.1859 40.2567C15.0955 40.1957 15.0352 40.1042 14.99 40.0127C14.9448 39.9059 14.9297 39.7839 14.9297 39.6619C14.9297 39.5398 14.9598 39.4178 15.0201 39.3111C15.0653 39.189 15.1558 39.0975 15.2763 39.006C15.3969 38.9297 15.5326 38.884 15.6833 38.884C15.7737 38.884 15.8491 38.884 15.9244 38.9145C15.9998 38.945 16.0601 38.9602 16.0902 38.9755C16.1505 39.006 16.1806 39.0365 16.2259 39.0823C16.2711 39.128 16.3012 39.1585 16.3163 39.1738C16.3314 39.189 16.3464 39.2195 16.3766 39.25V39.2653V38.9145H16.5424V40.3177ZM15.6983 40.3025C15.8792 40.3025 16.0299 40.2415 16.1656 40.1195C16.3012 39.9974 16.3766 39.8449 16.3766 39.6619C16.3766 39.4788 16.3163 39.3263 16.1656 39.2043C16.0149 39.0823 15.8641 39.0212 15.6983 39.0212C15.5326 39.0212 15.3668 39.0823 15.2462 39.2043C15.1256 39.3263 15.0653 39.4941 15.0653 39.6619C15.0653 39.8296 15.1256 39.9974 15.2462 40.1195C15.3668 40.2415 15.5175 40.3025 15.6983 40.3025Z" fill="#727880"/>
<path d="M17.8401 40.6229C17.7195 40.6229 17.599 40.5924 17.4935 40.5466C17.403 40.5009 17.3126 40.4398 17.2372 40.3636C17.1619 40.2873 17.1016 40.1958 17.0564 40.089C17.0112 39.9823 16.9961 39.8755 16.9961 39.7535C16.9961 39.6314 17.0262 39.5247 17.0564 39.4179C17.1016 39.3111 17.1619 39.2196 17.2372 39.1434C17.3126 39.0671 17.403 38.9908 17.4935 38.9451C17.599 38.8993 17.7195 38.8688 17.8401 38.8688C17.9607 38.8688 18.0662 38.8993 18.1717 38.9451C18.2772 38.9908 18.3676 39.0518 18.443 39.1434C18.5183 39.2196 18.5786 39.3111 18.6238 39.4179C18.654 39.5094 18.6841 39.6314 18.6841 39.7535C18.6841 39.8755 18.6691 39.9823 18.6238 40.089C18.5786 40.1958 18.5183 40.2873 18.443 40.3788C18.3676 40.4551 18.2772 40.5161 18.1717 40.5619C18.0662 40.6076 17.9456 40.6381 17.825 40.6381L17.8401 40.6229ZM17.8401 40.4704C17.9305 40.4704 18.021 40.4398 18.1114 40.4093C18.1868 40.3788 18.2621 40.3178 18.3224 40.2568C18.3827 40.1958 18.4279 40.1195 18.4581 40.028C18.4882 39.9518 18.5033 39.845 18.5033 39.7535C18.5033 39.662 18.4882 39.5552 18.4581 39.4637C18.4279 39.3721 18.3676 39.2959 18.3073 39.2349C18.247 39.1739 18.1717 39.1281 18.0813 39.0823C18.0059 39.0518 17.9155 39.0213 17.825 39.0213C17.7195 39.0213 17.6291 39.0518 17.5537 39.0823C17.4784 39.1128 17.403 39.1739 17.3427 39.2349C17.2825 39.3111 17.2372 39.3721 17.192 39.4637C17.1619 39.5552 17.1468 39.6467 17.1468 39.7382C17.1468 39.845 17.1619 39.9365 17.2071 40.028C17.2372 40.1195 17.2825 40.1958 17.3578 40.2568C17.403 40.3331 17.4935 40.3788 17.5688 40.4093C17.6442 40.4551 17.7346 40.4704 17.8401 40.4704Z" fill="#727880"/>
<path d="M19.3176 39.8145C19.3176 39.8145 19.3477 39.9518 19.3779 40.028C19.408 40.1195 19.4532 40.1958 19.5286 40.2568C19.5738 40.3331 19.6642 40.3788 19.7396 40.4093C19.8149 40.4551 19.9204 40.4704 19.9958 40.4704C20.1013 40.4704 20.1917 40.4398 20.2671 40.4093C20.3274 40.3941 20.3726 40.3636 20.4178 40.3178V40.5009C20.4178 40.5009 20.3575 40.5314 20.3274 40.5466C20.2219 40.5924 20.1013 40.6229 19.9807 40.6229C19.8602 40.6229 19.7396 40.5924 19.6492 40.5466C19.5437 40.5009 19.4532 40.4398 19.3779 40.3636C19.3025 40.2873 19.2422 40.1958 19.197 40.089C19.1518 39.9823 19.1367 39.8755 19.1367 39.7535C19.1367 39.6314 19.1669 39.5247 19.197 39.4179C19.2422 39.3111 19.3025 39.2196 19.3779 39.1434C19.4532 39.0671 19.5437 38.9908 19.6492 38.9451C19.7396 38.8993 19.8602 38.8688 19.9807 38.8688C20.041 38.8688 20.1013 38.8688 20.1465 38.8993C20.2068 38.8993 20.2671 38.9451 20.3274 38.9908C20.3877 39.0366 20.448 39.0976 20.5082 39.1586C20.5685 39.2196 20.5987 39.3111 20.6439 39.4332C20.674 39.5399 20.6891 39.6772 20.6891 39.8145H19.3176ZM19.9958 39.0213C19.9054 39.0213 19.8149 39.0518 19.7245 39.0823C19.6492 39.1128 19.5738 39.1739 19.5135 39.2349C19.4532 39.3111 19.408 39.3721 19.3779 39.4637C19.3477 39.5399 19.3327 39.6009 19.3176 39.6772H20.5233C20.5233 39.6772 20.5082 39.5552 20.4781 39.4484C20.448 39.3874 20.4178 39.3111 20.3877 39.2654C20.3425 39.2044 20.3123 39.1739 20.2822 39.1434C20.252 39.1129 20.2068 39.0976 20.1616 39.0823C20.1164 39.0671 20.0862 39.0518 20.0712 39.0366C20.041 39.0366 20.026 39.0366 19.9958 39.0366H19.9807L19.9958 39.0213Z" fill="#727880"/>
<path d="M22.0612 39.1891C22.0612 39.1891 22.031 39.1586 22.0009 39.1586C21.9707 39.1433 21.9255 39.1128 21.8502 39.0823C21.7748 39.0518 21.6995 39.0365 21.6392 39.0213C21.5789 39.0213 21.4884 39.0213 21.4131 39.0518C21.3377 39.0823 21.2774 39.1128 21.2172 39.1891C21.1719 39.2806 21.1719 39.3569 21.187 39.4179C21.2322 39.4789 21.2774 39.5246 21.3679 39.5551C21.4432 39.5857 21.5337 39.6162 21.6392 39.6467C21.7296 39.6924 21.82 39.7077 21.9255 39.7534C22.0009 39.7839 22.0762 39.8449 22.1365 39.906C22.1968 39.9822 22.2119 40.0585 22.1968 40.1653C22.1968 40.3025 22.1365 40.4093 22.0612 40.4856C21.9707 40.5618 21.8954 40.6076 21.7748 40.6228C21.6693 40.6228 21.5487 40.6228 21.4432 40.6228C21.3377 40.6076 21.2322 40.5771 21.1418 40.5313C21.0514 40.5008 20.9911 40.4551 20.9609 40.4093L21.0363 40.272C21.0363 40.272 21.0815 40.3025 21.1267 40.333C21.1719 40.3635 21.2322 40.3941 21.3377 40.4246C21.4432 40.4703 21.5337 40.4856 21.6241 40.4856C21.7597 40.4856 21.8652 40.4551 21.9406 40.394C22.0009 40.333 22.0461 40.2415 22.0461 40.1348C22.0461 40.0737 22.016 40.0127 21.9557 39.967C21.8954 39.9212 21.8351 39.8907 21.7597 39.8602C21.6844 39.8297 21.594 39.7992 21.4734 39.7839C21.3227 39.7534 21.187 39.6772 21.1117 39.5856C21.0363 39.4789 21.0062 39.3721 21.0514 39.2501C21.0815 39.1281 21.1719 39.0365 21.2925 38.9755C21.398 38.9145 21.5337 38.884 21.6693 38.9145C21.7447 38.9145 21.8351 38.945 21.9105 38.9755C21.9858 39.006 22.0612 39.0365 22.1064 39.0671L22.1667 39.0976L22.0913 39.2196L22.0612 39.1891Z" fill="#727880"/>
<path d="M23.6574 39.2044C23.6574 39.2044 23.7026 39.1281 23.7328 39.0976C23.7629 39.0671 23.7931 39.0213 23.8383 38.9908C23.8835 38.9451 23.9438 38.9298 24.0191 38.8993C24.0945 38.8688 24.1699 38.8536 24.2603 38.8536C24.3658 38.8536 24.4713 38.8841 24.5617 38.9146C24.6522 38.9603 24.7124 39.0213 24.7577 39.0976C24.8179 39.1586 24.8481 39.2501 24.8782 39.3264C24.9084 39.4027 24.9084 39.4942 24.9084 39.5857V40.5771H24.7426V39.5857C24.7426 39.5857 24.7426 39.5399 24.7426 39.4942C24.7426 39.4484 24.7275 39.4179 24.7124 39.3722C24.7124 39.3417 24.6823 39.2959 24.6672 39.2349C24.6371 39.1891 24.6069 39.1586 24.5768 39.1281C24.5467 39.0976 24.4864 39.0671 24.4261 39.0366C24.3658 39.0061 24.3055 39.0061 24.2151 39.0061C23.9589 39.0061 23.778 39.1434 23.6424 39.4179V40.5771H23.4766V38.1824H23.6424V39.2044H23.6574Z" fill="#727880"/>
<path d="M25.5436 39.8145C25.5436 39.8145 25.5737 39.9518 25.5888 40.028C25.6189 40.1195 25.6792 40.1958 25.7244 40.2568C25.7847 40.3331 25.8601 40.3788 25.9355 40.4093C26.0259 40.4551 26.1163 40.4704 26.2067 40.4704C26.2972 40.4704 26.3876 40.4398 26.478 40.4093C26.5383 40.3941 26.5835 40.3636 26.6288 40.3178V40.5009C26.6288 40.5009 26.5685 40.5314 26.5383 40.5466C26.4328 40.5924 26.3122 40.6229 26.1917 40.6229C26.0711 40.6229 25.9656 40.5924 25.845 40.5466C25.7395 40.5009 25.6642 40.4398 25.5737 40.3636C25.4984 40.2873 25.4381 40.1958 25.4079 40.089C25.3627 39.9823 25.3477 39.8755 25.3477 39.7535C25.3477 39.6314 25.3778 39.5247 25.4079 39.4179C25.4532 39.3111 25.4984 39.2196 25.5737 39.1434C25.6491 39.0671 25.7395 38.9908 25.845 38.9451C25.9505 38.8993 26.056 38.8688 26.1917 38.8688C26.252 38.8688 26.2972 38.8688 26.3575 38.8993C26.4177 38.8993 26.463 38.9451 26.5383 38.9908C26.6137 39.0366 26.674 39.0976 26.7192 39.1586C26.7644 39.2196 26.8096 39.3111 26.8548 39.4332C26.885 39.5399 26.9 39.6772 26.9 39.8145H25.5285H25.5436ZM26.2067 39.0213C26.1163 39.0213 26.0259 39.0518 25.9355 39.0823C25.845 39.1128 25.7847 39.1739 25.7244 39.2349C25.6642 39.3111 25.6189 39.3721 25.5888 39.4637C25.5587 39.5399 25.5436 39.6009 25.5436 39.6772H26.7493C26.7493 39.6772 26.7343 39.5552 26.7041 39.4484C26.689 39.3874 26.6589 39.3111 26.6288 39.2654C26.5986 39.2044 26.5534 39.1739 26.5383 39.1434C26.5082 39.1129 26.463 39.0976 26.4178 39.0823C26.3876 39.0671 26.3424 39.0518 26.3273 39.0366C26.3122 39.0366 26.2821 39.0366 26.252 39.0366C26.2369 39.0366 26.2369 39.0366 26.2218 39.0366L26.2067 39.0213Z" fill="#727880"/>
<path d="M28.2229 39.0671C28.2229 39.0671 28.1476 39.0671 28.1174 39.0671C28.0722 39.0671 28.027 39.0671 27.9667 39.1129C27.9064 39.1434 27.8461 39.1739 27.7858 39.2196C27.7406 39.2654 27.6803 39.3416 27.6351 39.4179C27.5899 39.5094 27.5447 39.6314 27.5296 39.7535V40.5771H27.3789V38.8993H27.5296V39.3569C27.6201 39.1739 27.7406 39.0366 27.8612 38.9756C27.9818 38.9146 28.1023 38.8688 28.2229 38.8688V39.0518V39.0671Z" fill="#727880"/>
<path d="M28.2702 39.8145C28.2702 39.8145 28.3003 39.9518 28.3304 40.028C28.3606 40.1195 28.4058 40.1958 28.4661 40.2568C28.5264 40.3331 28.6017 40.3788 28.6771 40.4093C28.7524 40.4551 28.8429 40.4704 28.9333 40.4704C29.0388 40.4704 29.1292 40.4398 29.2197 40.4093C29.2649 40.3941 29.3252 40.3636 29.3704 40.3178V40.5009C29.3704 40.5009 29.3101 40.5314 29.28 40.5466C29.1745 40.5924 29.069 40.6229 28.9333 40.6229C28.7977 40.6229 28.6922 40.5924 28.5867 40.5466C28.4962 40.5009 28.3907 40.4398 28.3154 40.3636C28.24 40.2873 28.1797 40.1958 28.1345 40.089C28.1044 39.9823 28.0742 39.8755 28.0742 39.7535C28.0742 39.6314 28.1044 39.5247 28.1345 39.4179C28.1797 39.3111 28.24 39.2196 28.3154 39.1434C28.3907 39.0671 28.4812 38.9908 28.5867 38.9451C28.6922 38.8993 28.7977 38.8688 28.9182 38.8688C28.9785 38.8688 29.0237 38.8688 29.0991 38.8993C29.1443 38.8993 29.2046 38.9451 29.28 38.9908C29.3402 39.0366 29.4005 39.0976 29.4608 39.1586C29.506 39.2196 29.5512 39.3111 29.5814 39.4332C29.6115 39.5399 29.6266 39.6772 29.6266 39.8145H28.2551H28.2702ZM28.9333 39.0213C28.8278 39.0213 28.7524 39.0518 28.662 39.0823C28.5867 39.1128 28.5113 39.1739 28.451 39.2349C28.3907 39.3111 28.3455 39.3721 28.3154 39.4637C28.2852 39.5399 28.2702 39.6009 28.2551 39.6772H29.4608C29.4608 39.6772 29.4608 39.5552 29.4156 39.4484C29.3855 39.3874 29.3704 39.3111 29.3252 39.2654C29.295 39.2044 29.2649 39.1739 29.2347 39.1434C29.2046 39.1129 29.1594 39.0976 29.1292 39.0823C29.084 39.0671 29.0539 39.0518 29.0237 39.0366C29.0087 39.0366 28.9785 39.0366 28.9484 39.0366H28.9182L28.9333 39.0213Z" fill="#727880"/>
<path d="M60.0422 39.5246L35.8672 39.5856V39.4178L60.0422 39.3568V39.5246Z" fill="#727880"/>
<path d="M1.03516 27.1547H2.12032C2.40668 27.1547 2.64783 27.2614 2.84376 27.4597C3.0397 27.658 3.1452 27.9021 3.1452 28.1919V28.8325H1.03516V27.1547ZM1.03516 29.5494H2.12032C2.40668 29.5494 2.64783 29.6561 2.84376 29.8544C3.0397 30.0527 3.1452 30.312 3.1452 30.5866V37.6944H1.03516V29.5494Z" fill="#1B73D4"/>
<path d="M10.5469 37.6791H9.49184C9.19041 37.6791 8.94926 37.5876 8.75333 37.3893C8.55739 37.191 8.46696 36.947 8.46696 36.6419V32.4779C8.46696 31.9898 8.31625 31.6237 8.02988 31.4102C7.74352 31.1814 7.41194 31.0746 7.05022 31.0746C6.6885 31.0746 6.35692 31.1814 6.08563 31.4102C5.79927 31.639 5.66362 31.9898 5.66362 32.4779V37.6791H3.52344V32.905C3.52344 31.5169 3.88516 30.5865 4.59353 30.1137C5.31697 29.6408 6.1007 29.3815 6.97486 29.351C7.86409 29.351 8.67797 29.5798 9.43155 30.0527C10.1851 30.5255 10.5469 31.4712 10.5469 32.905V37.6791Z" fill="#1B73D4"/>
<path d="M10.8784 37.6791V29.29C10.8784 28.5579 11.0743 28.0088 11.4511 27.6275C11.8128 27.2767 12.4157 27.1089 13.2295 27.1089C13.4255 27.1089 13.5913 27.1089 13.7118 27.1394C13.9379 27.1394 14.1037 27.1394 14.2243 27.1699V28.863H13.6817C13.3953 28.863 13.1994 28.9087 13.0788 28.985C12.9733 29.0612 12.9281 29.229 12.9281 29.4731V30.0222H14.2243V30.4798C14.2243 30.7848 14.1188 31.0441 13.9228 31.2272C13.7269 31.4254 13.4858 31.517 13.2295 31.517H12.9281V37.6791H10.8633H10.8784Z" fill="#1B73D4"/>
<path d="M14.5698 27.1547H15.6549C15.9413 27.1547 16.1824 27.2614 16.3784 27.4597C16.5743 27.658 16.6798 27.9021 16.6798 28.1919V28.8325H14.5547V27.1547H14.5698ZM14.5698 29.5494H15.6549C15.9413 29.5494 16.1824 29.6561 16.3784 29.8544C16.5743 30.0527 16.6798 30.312 16.6798 30.5866V37.6944H14.5547V29.5494H14.5698Z" fill="#1B73D4"/>
<path d="M24.0044 37.6791H22.9494C22.648 37.6791 22.3918 37.5876 22.2109 37.3893C22.015 37.191 21.9245 36.947 21.9245 36.6419V32.4779C21.9245 31.9898 21.7738 31.6237 21.4875 31.4102C21.2011 31.1814 20.8695 31.0746 20.5078 31.0746C20.1461 31.0746 19.8145 31.1814 19.5432 31.4102C19.2569 31.639 19.1212 31.9898 19.1212 32.4779V37.6791H16.9961V32.905C16.9961 31.5169 17.3578 30.5865 18.0662 30.1137C18.7746 29.6408 19.5734 29.3815 20.4475 29.351C21.3368 29.351 22.1506 29.5798 22.9042 30.0527C23.6578 30.5255 24.0195 31.4712 24.0195 32.905V37.6791H24.0044Z" fill="#1B73D4"/>
<path d="M24.5307 27.1547H25.6159C25.9022 27.1547 26.1434 27.2614 26.3393 27.4597C26.5352 27.658 26.6407 27.9021 26.6407 28.1919V28.8325H24.5156V27.1547H24.5307ZM24.5307 29.5494H25.6159C25.9022 29.5494 26.1434 29.6561 26.3393 29.8544C26.5352 30.0527 26.6407 30.312 26.6407 30.5866V37.6944H24.5156V29.5494H24.5307Z" fill="#1B73D4"/>
<path d="M30.3191 37.6639C29.656 37.7097 28.9325 37.6944 28.1488 37.6334C27.3651 37.5724 26.9883 37.0691 26.9883 36.1386V27.1242H28.0734C28.3297 27.1242 28.5708 27.231 28.7667 27.4293C28.9627 27.6276 29.0682 27.8716 29.0682 28.1614V29.5342H30.3041V29.9612C30.3041 30.2663 30.1986 30.5256 30.0026 30.7086C29.8067 30.9069 29.5655 30.9984 29.2792 30.9984H29.0682V35.5285C29.0682 35.8793 29.2641 36.0471 29.671 36.0471H30.3041V37.6334L30.3191 37.6639Z" fill="#1B73D4"/>
<path d="M31.6605 40.5467V38.8689H32.2332C32.6402 38.8689 32.9567 38.7774 33.1828 38.5791C33.4088 38.3808 33.4541 38.0757 33.3184 37.6487L30.5 29.5341H32.8361L34.4639 35.2997L35.8806 30.2815C36.0012 29.7934 36.3177 29.5494 36.8452 29.5494H38.2921L35.2024 38.8231C34.9612 39.4943 34.6598 39.9823 34.2981 40.2569C33.9364 40.5009 33.3335 40.623 32.5045 40.623H32.0825C32.0825 40.623 31.9469 40.5925 31.8565 40.5772C31.766 40.5772 31.6907 40.5772 31.6304 40.5772L31.6605 40.5467Z" fill="#1B73D4"/>
<path d="M43.6418 27.1089H44.6667C44.953 27.1089 45.1942 27.2157 45.3901 27.4292C45.5861 27.6427 45.6916 27.8868 45.6916 28.1461V34.1252C45.6916 35.5742 45.2846 36.5504 44.4557 37.069C43.6267 37.5723 42.7224 37.8316 41.7578 37.8316C41.2303 37.8316 40.7179 37.7401 40.2205 37.5723C39.7232 37.4046 39.3162 37.1147 39.0148 36.7334C38.427 35.9708 38.1406 34.9488 38.1406 33.6371C38.1406 32.3254 38.427 31.3187 39.0148 30.5408C39.6177 29.7476 40.4014 29.3511 41.3509 29.3511C41.8633 29.3511 42.3004 29.4578 42.6772 29.6561C43.0842 29.9002 43.4007 30.2205 43.6418 30.6018V27.1089ZM40.1904 33.5456C40.1904 34.3692 40.3411 34.9946 40.6425 35.4217C40.944 35.8488 41.381 36.0623 41.9387 36.0623C42.4964 36.0623 42.9033 35.8488 43.2047 35.4217C43.4911 34.9946 43.6267 34.3692 43.6267 33.5456C43.6267 32.8134 43.476 32.2338 43.1746 31.8068C42.8581 31.3949 42.421 31.1966 41.8784 31.1966C41.3358 31.1966 40.944 31.4102 40.6275 31.8373C40.326 32.2491 40.1753 32.8134 40.1753 33.5456H40.1904Z" fill="#76B639"/>
<path d="M53.0787 37.6791H52.0236C51.7222 37.6791 51.4811 37.5876 51.2851 37.3893C51.0892 37.191 50.9988 36.947 50.9988 36.6419V32.4779C50.9988 31.9898 50.848 31.6237 50.5617 31.4102C50.2753 31.1814 49.9437 31.0746 49.582 31.0746C49.2203 31.0746 48.8887 31.1814 48.6174 31.4102C48.3311 31.639 48.1954 31.9898 48.1954 32.4779V37.6791H46.0703V32.905C46.0703 31.5169 46.432 30.5865 47.1404 30.1137C47.8638 29.6408 48.6476 29.3815 49.5217 29.351C50.411 29.351 51.2248 29.5798 51.9784 30.0527C52.732 30.5255 53.0937 31.4712 53.0937 32.905V37.6791H53.0787Z" fill="#76B639"/>
<path d="M58.5625 37.3436C58.1405 37.5724 57.6884 37.7097 57.2211 37.7554C56.7539 37.8012 56.3319 37.8317 55.9702 37.8317C55.2467 37.8317 54.5986 37.6334 54.0561 37.2368C53.5135 36.8403 53.2422 36.1844 53.2422 35.254C53.2422 34.3998 53.4833 33.7897 53.9807 33.4084C54.4781 33.0423 55.1111 32.7983 55.8647 32.6762C55.9702 32.6762 56.0907 32.661 56.2264 32.6305C56.362 32.6 56.5278 32.5695 56.7087 32.5542C57.5979 32.4322 58.035 32.1577 58.035 31.7611C58.035 31.456 57.8843 31.2577 57.5678 31.1662C57.2513 31.0747 56.9649 31.0289 56.7087 31.0289C56.4223 31.0289 56.1661 31.0747 55.9551 31.151C55.729 31.2272 55.5783 31.3798 55.4728 31.6085H53.4381C53.5135 30.9679 53.7998 30.4493 54.2821 30.0375C54.8247 29.5647 55.6085 29.3359 56.6183 29.3359C57.7486 29.3359 58.5927 29.5342 59.1654 29.9155C59.7532 30.3273 60.0395 30.8917 60.0395 31.6238V34.4151C60.0395 35.2387 59.8888 35.8641 59.6025 36.3369C59.3161 36.7945 58.9694 37.1301 58.5625 37.3284V37.3436ZM58.0802 33.5762C57.7939 33.7134 57.402 33.8507 56.9046 33.9727L56.2113 34.1253C55.8496 34.232 55.5934 34.3541 55.4276 34.5218C55.2919 34.7506 55.2166 34.9642 55.2166 35.193C55.2166 35.498 55.307 35.7421 55.4879 35.9251C55.6687 36.0929 55.925 36.1691 56.2716 36.1691C56.8293 36.1691 57.2814 36.0014 57.5979 35.6811C57.9144 35.3607 58.0802 34.9032 58.0802 34.3388V33.5762Z" fill="#76B639"/>
<defs>
<radialGradient id="paint0_radial_3334_218" cx="0" cy="0" r="1" gradientUnits="userSpaceOnUse" gradientTransform="translate(74.5385 178.616) rotate(-97.0363) scale(3.88877 12.2103)">
<stop offset="0.06" stop-color="#272727"/>
<stop offset="0.23" stop-color="#5D5D5D"/>
<stop offset="0.42" stop-color="#969696"/>
<stop offset="0.6" stop-color="#C3C3C3"/>
<stop offset="0.75" stop-color="#E4E4E4"/>
<stop offset="0.88" stop-color="#F7F7F7"/>
<stop offset="0.97" stop-color="white"/>
</radialGradient>
<radialGradient id="paint1_radial_3334_218" cx="0" cy="0" r="1" gradientUnits="userSpaceOnUse" gradientTransform="translate(158.667 135.62) rotate(-131.85) scale(3.86871 11.3645)">
<stop offset="0.06" stop-color="#272727"/>
<stop offset="0.23" stop-color="#5D5D5D"/>
<stop offset="0.42" stop-color="#969696"/>
<stop offset="0.6" stop-color="#C3C3C3"/>
<stop offset="0.75" stop-color="#E4E4E4"/>
<stop offset="0.88" stop-color="#F7F7F7"/>
<stop offset="0.97" stop-color="white"/>
</radialGradient>
</defs>
</svg>
