<svg width="36" height="36" viewBox="0 0 36 36" fill="none" xmlns="http://www.w3.org/2000/svg">
<path d="M7.979 21L11.389 14.279H12.698L9.387 21H7.979ZM7.396 14.466V13.3H12.698V14.279L11.499 14.466H7.396ZM16.2384 21.132C15.901 21.132 15.5564 21.0807 15.2044 20.978C14.8597 20.868 14.5407 20.7067 14.2474 20.494C13.954 20.274 13.7304 19.999 13.5764 19.669L14.7094 19.251C14.9 19.5223 15.1237 19.7203 15.3804 19.845C15.637 19.9623 15.901 20.021 16.1724 20.021C16.605 20.021 16.957 19.8927 17.2284 19.636C17.4997 19.372 17.6354 19.0237 17.6354 18.591C17.6354 18.173 17.5034 17.8283 17.2394 17.557C16.9754 17.2857 16.6307 17.15 16.2054 17.15C15.956 17.15 15.7214 17.205 15.5014 17.315C15.2887 17.425 15.1237 17.557 15.0064 17.711L13.8514 17.458L14.2804 13.3H18.5374V14.455H15.3804L15.1604 16.545C15.3584 16.4277 15.5784 16.336 15.8204 16.27C16.0697 16.1967 16.33 16.16 16.6014 16.16C17.0414 16.16 17.4374 16.2627 17.7894 16.468C18.1414 16.6733 18.42 16.9557 18.6254 17.315C18.8307 17.667 18.9334 18.074 18.9334 18.536C18.9334 19.0493 18.816 19.5003 18.5814 19.889C18.354 20.2777 18.0387 20.582 17.6354 20.802C17.232 21.022 16.7664 21.132 16.2384 21.132ZM20.4087 21L25.8757 13.3H27.1517L21.6517 21H20.4087ZM25.9747 21.176C25.6301 21.176 25.3257 21.0953 25.0617 20.934C24.7977 20.7727 24.5887 20.549 24.4347 20.263C24.2881 19.977 24.2147 19.6543 24.2147 19.295C24.2147 18.9283 24.2881 18.6057 24.4347 18.327C24.5814 18.0483 24.7867 17.8283 25.0507 17.667C25.3221 17.5057 25.6301 17.425 25.9747 17.425C26.3194 17.425 26.6237 17.5057 26.8877 17.667C27.1517 17.8283 27.3571 18.0483 27.5037 18.327C27.6577 18.6057 27.7347 18.9283 27.7347 19.295C27.7347 19.6543 27.6577 19.977 27.5037 20.263C27.3571 20.549 27.1517 20.7727 26.8877 20.934C26.6237 21.0953 26.3194 21.176 25.9747 21.176ZM25.9747 20.307C26.2167 20.307 26.4147 20.2117 26.5687 20.021C26.7227 19.8303 26.7997 19.5883 26.7997 19.295C26.7997 19.009 26.7227 18.7707 26.5687 18.58C26.4147 18.382 26.2167 18.283 25.9747 18.283C25.7327 18.283 25.5311 18.382 25.3697 18.58C25.2157 18.7707 25.1387 19.009 25.1387 19.295C25.1387 19.5883 25.2157 19.8303 25.3697 20.021C25.5311 20.2117 25.7327 20.307 25.9747 20.307ZM21.6187 16.875C21.2814 16.875 20.9771 16.7943 20.7057 16.633C20.4417 16.4717 20.2364 16.248 20.0897 15.962C19.9431 15.676 19.8697 15.3533 19.8697 14.994C19.8697 14.6273 19.9431 14.3047 20.0897 14.026C20.2364 13.7473 20.4417 13.5273 20.7057 13.366C20.9771 13.2047 21.2851 13.124 21.6297 13.124C21.9744 13.124 22.2787 13.2047 22.5427 13.366C22.8067 13.5273 23.0121 13.7473 23.1587 14.026C23.3054 14.3047 23.3787 14.6273 23.3787 14.994C23.3787 15.3533 23.3054 15.676 23.1587 15.962C23.0121 16.248 22.8031 16.4717 22.5317 16.633C22.2677 16.7943 21.9634 16.875 21.6187 16.875ZM21.6187 16.006C21.8681 16.006 22.0697 15.9107 22.2237 15.72C22.3777 15.5293 22.4547 15.2873 22.4547 14.994C22.4547 14.708 22.3777 14.4697 22.2237 14.279C22.0697 14.0883 21.8681 13.993 21.6187 13.993C21.3767 13.993 21.1787 14.0883 21.0247 14.279C20.8707 14.4697 20.7937 14.708 20.7937 14.994C20.7937 15.2873 20.8707 15.5293 21.0247 15.72C21.1787 15.9107 21.3767 16.006 21.6187 16.006Z" fill="#2E2D46"/>
<path d="M34 17C34 26.3888 26.3888 34 17 34C7.61116 34 0 26.3888 0 17C0 7.61116 7.61116 0 17 0C26.3888 0 34 7.61116 34 17ZM3.24301 17C3.24301 24.5978 9.40222 30.757 17 30.757C24.5978 30.757 30.757 24.5978 30.757 17C30.757 9.40222 24.5978 3.24301 17 3.24301C9.40222 3.24301 3.24301 9.40222 3.24301 17Z" fill="#EEEEEE"/>
<path d="M32.3742 17C33.2721 17 34.0081 17.7296 33.9223 18.6234C33.6497 21.4653 32.6646 24.2023 31.0466 26.5757C29.1224 29.3983 26.3924 31.5758 23.2126 32.8242C20.0327 34.0726 16.5505 34.334 13.2199 33.5744C9.88931 32.8148 6.86481 31.0694 4.54069 28.5657C2.21658 26.062 0.700671 22.9162 0.190582 19.5384C-0.319506 16.1606 0.199891 12.7074 1.68106 9.6291C3.16224 6.55078 5.53647 3.9901 8.49426 2.28088C10.9813 0.843704 13.7839 0.0645788 16.6382 0.00383723C17.5359 -0.0152661 18.2088 0.772851 18.1421 1.66827C18.0754 2.56369 17.2936 3.22541 16.3966 3.26482C14.1959 3.36149 12.0421 3.98612 10.1211 5.0962C7.72909 6.4785 5.80898 8.54939 4.61111 11.0389C3.41324 13.5285 2.99319 16.3211 3.40571 19.0529C3.81823 21.7846 5.0442 24.3287 6.92378 26.3535C8.80336 28.3783 11.2494 29.7899 13.9429 30.4042C16.6365 31.0185 19.4527 30.8071 22.0243 29.7975C24.5959 28.7879 26.8037 27.0269 28.3599 24.7441C29.6096 22.9109 30.3925 20.8095 30.6524 18.622C30.7583 17.7304 31.4763 17 32.3742 17Z" fill="#D8D8D8"/>
</svg>
