<svg width="13" height="13" viewBox="0 0 13 13" fill="none" xmlns="http://www.w3.org/2000/svg">
<path d="M12.9995 0.888692C12.7543 1.64815 12.5087 2.40727 12.2642 3.16673C11.2725 6.24628 10.2807 9.32584 9.29103 12.4061C9.1886 12.7242 8.99019 12.9356 8.65645 12.9888C8.36069 13.036 8.11378 12.9294 7.93266 12.6907C7.87771 12.6181 7.83634 12.5306 7.80751 12.4437C7.31944 10.9862 6.83477 9.52732 6.34603 8.06979C6.31957 7.9911 6.33382 7.93751 6.37893 7.8734C7.30893 6.54715 8.23689 5.21988 9.1652 3.89261C9.19301 3.85292 9.21811 3.81154 9.2293 3.75625C9.19573 3.77728 9.16113 3.79695 9.12891 3.81968C7.79157 4.74806 6.45355 5.67575 5.1179 6.60651C5.04091 6.6601 4.97918 6.67061 4.88828 6.64009C3.45495 6.15877 2.02027 5.68186 0.585925 5.2036C0.144667 5.05638 -0.0839329 4.67615 0.028332 4.26199C0.10261 3.98826 0.283048 3.8112 0.553365 3.72403C1.82355 3.31496 3.0934 2.90487 4.36359 2.49648C6.9277 1.67189 9.49284 0.847649 12.0576 0.0223869C12.0681 0.0189949 12.0763 0.00780149 12.0854 0C12.1784 0 12.2716 0 12.3646 0C12.4195 0.0200125 12.4751 0.0376507 12.5291 0.0596984C12.7892 0.166545 12.9229 0.377524 12.9992 0.634634V0.888692H12.9995Z" fill="#02A2FF"/>
</svg>
