<svg width="12" height="21" viewBox="0 0 12 21" fill="none" xmlns="http://www.w3.org/2000/svg">
<path d="M11.3525 5.92212C11.3612 7.14065 10.9628 8.26537 10.2858 9.16959C9.45702 10.2769 8.98895 11.6115 8.98895 12.9944V13.1695C8.98895 13.8222 8.45996 14.3512 7.80717 14.3512H4.18254C3.52976 14.3512 3.00076 13.8222 3.00076 13.1695V13.0524C3.00076 11.6434 2.52883 10.2808 1.6894 9.14929C1.02791 8.2586 0.637207 7.15516 0.637207 5.95984C0.637207 2.98799 3.05685 0.580915 6.03354 0.602191C8.9493 0.623467 11.3312 3.00443 11.3515 5.92019L11.3525 5.92212Z" fill="#FEBF2A"/>
<path d="M8.21031 15.0097H3.79847C3.66791 15.0097 3.5625 14.9043 3.5625 14.7737V14.5377C3.5625 14.4072 3.66791 14.3018 3.79847 14.3018H8.21031C8.34086 14.3018 8.44628 14.4072 8.44628 14.5377V14.7737C8.44628 14.9043 8.34086 15.0097 8.21031 15.0097Z" fill="#FEE480"/>
<path d="M8.21031 15.7196H3.79847C3.66791 15.7196 3.5625 15.6142 3.5625 15.4837V15.2477C3.5625 15.1171 3.66791 15.0117 3.79847 15.0117H8.21031C8.34086 15.0117 8.44628 15.1171 8.44628 15.2477V15.4837C8.44628 15.6142 8.34086 15.7196 8.21031 15.7196Z" fill="#FEE480"/>
<path d="M8.21031 16.4286H3.79847C3.66791 16.4286 3.5625 16.3232 3.5625 16.1926V15.9567C3.5625 15.8261 3.66791 15.7207 3.79847 15.7207H8.21031C8.34086 15.7207 8.44628 15.8261 8.44628 15.9567V16.1926C8.44628 16.3232 8.34086 16.4286 8.21031 16.4286Z" fill="#FEE480"/>
<path d="M8.21031 17.1376H3.79847C3.66791 17.1376 3.5625 17.0322 3.5625 16.9016V16.6657C3.5625 16.5351 3.66791 16.4297 3.79847 16.4297H8.21031C8.34086 16.4297 8.44628 16.5351 8.44628 16.6657V16.9016C8.44628 17.0322 8.34086 17.1376 8.21031 17.1376Z" fill="#FEE480"/>
<path d="M7.41728 17.8461H4.59243C4.37 17.8461 4.16401 17.7407 4.04796 17.5676L3.75977 17.1372H8.25091L7.96271 17.5676C7.84666 17.7407 7.64068 17.8461 7.41825 17.8461H7.41728Z" fill="#FEE480"/>
<path d="M6.52301 18.5164H5.48629C5.22905 18.5164 4.99018 18.4003 4.84995 18.2089L4.58594 17.8472H7.4224L7.15838 18.2089C7.01912 18.4003 6.77929 18.5164 6.52204 18.5164H6.52301Z" fill="#FEE480"/>
<path d="M7.42321 17.8462L7.1592 18.2079C7.01897 18.3994 6.7801 18.5154 6.52285 18.5154H5.48614C5.29176 18.5154 5.10801 18.4497 4.96875 18.3336C5.06739 18.3742 5.17667 18.3974 5.28885 18.3974H6.32557C6.58281 18.3974 6.82168 18.2814 6.96191 18.0899L7.13985 17.8462H7.42224H7.42321Z" fill="#FEBF2A"/>
<path d="M11.362 5.87087C11.3707 7.08939 10.9722 8.21411 10.2953 9.11834C9.46648 10.2256 8.99841 11.5602 8.99841 12.9441V13.1192C8.99841 13.7719 8.46942 14.3009 7.81664 14.3009H4.192C3.53922 14.3009 3.01023 13.7719 3.01023 13.1192V13.0021C3.01023 12.9422 3.01023 12.8813 3.00732 12.8213C3.23556 13.1114 3.61078 13.4335 4.15332 13.4335C5.13298 13.4335 6.05074 13.1037 6.78669 12.5379C7.52264 11.9712 8.07678 11.1686 8.32919 10.2218C8.5052 9.56126 8.79146 8.89494 9.07675 8.23442C10.5738 4.76742 9.39202 0.119615 3.72974 1.05865C4.43087 0.728878 5.21518 0.547067 6.043 0.552869C8.95973 0.574145 11.3407 2.95511 11.361 5.87087H11.362Z" fill="#E8A42A"/>
<path d="M8.44725 14.5371V14.773C8.44725 14.9036 8.34088 15.009 8.21129 15.009H3.79945C3.66889 15.009 3.56348 14.9026 3.56348 14.773V14.7411C3.59829 14.7614 3.63794 14.773 3.68146 14.773H8.0933C8.22386 14.773 8.32927 14.6667 8.32927 14.5371V14.333C8.39987 14.3736 8.44725 14.45 8.44725 14.5371Z" fill="#FEBF2A"/>
<path d="M8.44725 15.2465V15.4825C8.44725 15.6131 8.34088 15.7185 8.21129 15.7185H3.79945C3.66889 15.7185 3.56348 15.6121 3.56348 15.4825V15.4506C3.59829 15.4709 3.63794 15.4825 3.68146 15.4825H8.0933C8.22386 15.4825 8.32927 15.3761 8.32927 15.2465V15.0425C8.39987 15.0831 8.44725 15.1595 8.44725 15.2465Z" fill="#FEBF2A"/>
<path d="M8.44725 15.9555V16.1915C8.44725 16.322 8.34088 16.4275 8.21129 16.4275H3.79945C3.66889 16.4275 3.56348 16.3211 3.56348 16.1915V16.1596C3.59829 16.1799 3.63794 16.1915 3.68146 16.1915H8.0933C8.22386 16.1915 8.32927 16.0851 8.32927 15.9555V15.7515C8.39987 15.7921 8.44725 15.8685 8.44725 15.9555Z" fill="#FEBF2A"/>
<path d="M8.44725 16.6645V16.9005C8.44725 17.031 8.34088 17.1364 8.21129 17.1364H3.79945C3.66889 17.1364 3.56348 17.0301 3.56348 16.9005V16.8686C3.59829 16.8889 3.63794 16.9005 3.68146 16.9005H8.0933C8.22386 16.9005 8.32927 16.7941 8.32927 16.6645V16.4604C8.39987 16.5011 8.44725 16.5775 8.44725 16.6645Z" fill="#FEBF2A"/>
<path d="M8.25028 17.1372L7.96209 17.5676C7.84604 17.7407 7.64005 17.8461 7.41762 17.8461H4.59277C4.37034 17.8461 4.16339 17.7407 4.0483 17.5676L4.04443 17.5618C4.12567 17.5927 4.21464 17.6101 4.30748 17.6101H7.23098C7.46114 17.6101 7.67487 17.5047 7.79479 17.3316L7.92921 17.1382H8.25028V17.1372Z" fill="#FEBF2A"/>
<path d="M4.62638 14.5766H3.79953C3.75601 14.5766 3.72119 14.5418 3.72119 14.4983C3.72119 14.4547 3.75601 14.4199 3.79953 14.4199H4.62638C4.6699 14.4199 4.70472 14.4547 4.70472 14.4983C4.70472 14.5418 4.6699 14.5766 4.62638 14.5766Z" fill="#FFF4CD"/>
<path d="M4.62638 15.2856H3.79953C3.75601 15.2856 3.72119 15.2508 3.72119 15.2072C3.72119 15.1637 3.75601 15.1289 3.79953 15.1289H4.62638C4.6699 15.1289 4.70472 15.1637 4.70472 15.2072C4.70472 15.2508 4.6699 15.2856 4.62638 15.2856Z" fill="#FFF4CD"/>
<path d="M4.62638 15.995H3.79953C3.75601 15.995 3.72119 15.9602 3.72119 15.9167C3.72119 15.8732 3.75601 15.8384 3.79953 15.8384H4.62638C4.6699 15.8384 4.70472 15.8732 4.70472 15.9167C4.70472 15.9602 4.6699 15.995 4.62638 15.995Z" fill="#FFF4CD"/>
<path d="M4.62638 16.704H3.79953C3.75601 16.704 3.72119 16.6692 3.72119 16.6257C3.72119 16.5822 3.75601 16.5474 3.79953 16.5474H4.62638C4.6699 16.5474 4.70472 16.5822 4.70472 16.6257C4.70472 16.6692 4.6699 16.704 4.62638 16.704Z" fill="#FFF4CD"/>
<path d="M5.01994 17.413H4.19308C4.14956 17.413 4.11475 17.3782 4.11475 17.3347C4.11475 17.2912 4.14956 17.2563 4.19308 17.2563H5.01994C5.06346 17.2563 5.09827 17.2912 5.09827 17.3347C5.09827 17.3782 5.06346 17.413 5.01994 17.413Z" fill="#FFF4CD"/>
<path d="M5.80802 18.0834H4.98117C4.93765 18.0834 4.90283 18.0486 4.90283 18.0051C4.90283 17.9616 4.93765 17.9268 4.98117 17.9268H5.80802C5.85154 17.9268 5.88636 17.9616 5.88636 18.0051C5.88636 18.0486 5.85154 18.0834 5.80802 18.0834Z" fill="#FFF4CD"/>
<path d="M3.7205 9.77104C3.7205 9.77104 -0.222306 7.57189 2.04551 3.47145C2.12094 3.33606 2.28825 3.28093 2.42847 3.34766L3.30562 3.76157C3.45842 3.83411 3.51838 4.01882 3.43811 4.16775C3.06868 4.85148 2.30952 6.8253 3.7205 9.77201V9.77104Z" fill="#FEE480"/>
<path d="M2.67296 2.82535L3.56074 3.26925C3.65068 3.3147 3.75996 3.29052 3.82379 3.21219C3.94661 3.06036 4.17581 2.80505 4.49785 2.56037C4.62357 2.4656 4.60519 2.27122 4.46593 2.19965L3.65551 1.78187C3.59459 1.74996 3.52206 1.74996 3.46113 1.7809C3.28029 1.87084 2.89248 2.09811 2.59559 2.50622C2.51726 2.61356 2.55401 2.76636 2.67296 2.82535Z" fill="#FEE480"/>
</svg>
