<svg width="18" height="18" viewBox="0 0 18 18" fill="none" xmlns="http://www.w3.org/2000/svg">
<circle cx="9" cy="9" r="9" fill="#1E1E1E"/>
<path d="M8.56092 11.1026L8.52492 8.97859L9.30492 8.93059C9.76092 8.91459 10.1369 8.78659 10.4329 8.54659C10.7289 8.29859 10.8769 7.95059 10.8769 7.50259C10.8769 7.10259 10.7369 6.77459 10.4569 6.51859C10.1849 6.26259 9.82892 6.13459 9.38892 6.13459C9.07692 6.13459 8.80492 6.21059 8.57292 6.36259C8.34092 6.51459 8.18092 6.70259 8.09292 6.92659L6.85692 6.56659C7.01692 6.07059 7.31692 5.67059 7.75692 5.36659C8.20492 5.06259 8.74892 4.91059 9.38892 4.91059C9.93292 4.91059 10.4129 5.02259 10.8289 5.24659C11.2529 5.46259 11.5849 5.76659 11.8249 6.15859C12.0649 6.54259 12.1849 6.99059 12.1849 7.50259C12.1849 7.93459 12.0889 8.32259 11.8969 8.66659C11.7049 9.01059 11.4329 9.28659 11.0809 9.49459C10.7369 9.70259 10.3369 9.83059 9.88092 9.87859L9.85692 11.1026H8.56092ZM9.20892 13.6226C8.96892 13.6226 8.76492 13.5426 8.59692 13.3826C8.43692 13.2146 8.35692 13.0146 8.35692 12.7826C8.35692 12.5426 8.43692 12.3426 8.59692 12.1826C8.76492 12.0146 8.96892 11.9306 9.20892 11.9306C9.44092 11.9306 9.63692 12.0146 9.79692 12.1826C9.96492 12.3426 10.0489 12.5426 10.0489 12.7826C10.0489 13.0146 9.96492 13.2146 9.79692 13.3826C9.63692 13.5426 9.44092 13.6226 9.20892 13.6226Z" fill="white"/>
</svg>
