<svg width="17" height="17" viewBox="0 0 17 17" fill="none" xmlns="http://www.w3.org/2000/svg">
<path d="M7.97035 0C8.32439 0 8.67888 0 9.03292 0C9.32263 0.0377219 9.61411 0.0643492 9.9016 0.115385C12.1048 0.507249 13.9061 1.5821 15.2597 3.36169C16.7304 5.29527 17.2704 7.48758 16.8866 9.88359C16.5552 11.9521 15.5631 13.6731 13.9558 15.0133C12.0414 16.6096 9.82529 17.2442 7.35455 16.9274C5.64069 16.7073 4.13402 15.999 2.84874 14.8442C1.39265 13.5368 0.480927 11.9161 0.132654 9.9861C0.0758659 9.67146 0.0434787 9.35237 0 9.03551C0 8.68137 0 8.32678 0 7.97264C0.0257323 7.76495 0.0474716 7.55681 0.0771968 7.34956C0.320766 5.64497 1.00666 4.14142 2.15486 2.85843C3.42284 1.44187 4.98984 0.534764 6.85854 0.164645C7.22545 0.0923078 7.59945 0.0541421 7.97035 0ZM8.50186 1.41746C4.58168 1.41746 1.42992 4.56613 1.41572 8.49675C1.40152 12.4127 4.5799 15.5902 8.50629 15.5858C12.4322 15.5814 15.5853 12.4234 15.5809 8.5003C15.5765 4.57323 12.4225 1.41746 8.50141 1.41746H8.50186Z" fill="#EEBD00"/>
<path d="M9.20421 9.92481C9.20421 10.6389 9.20776 11.3529 9.20243 12.0665C9.20022 12.3767 8.99613 12.6341 8.70687 12.7216C8.41582 12.8099 8.08707 12.7167 7.93312 12.4557C7.84838 12.3119 7.80091 12.1256 7.79869 11.9574C7.78671 10.9726 7.79248 9.98694 7.79293 9.00218C7.79293 8.58723 7.78627 8.17185 7.79781 7.75691C7.80801 7.397 8.07509 7.12984 8.43756 7.08945C8.7641 7.05262 9.08797 7.27362 9.17715 7.60336C9.2011 7.69212 9.20376 7.7893 9.20376 7.8825C9.20598 8.56327 9.2051 9.24404 9.2051 9.92481H9.20376H9.20421Z" fill="#EEBD00"/>
<path d="M7.43848 5.31873C7.43627 4.72716 7.90743 4.25187 8.49706 4.25098C9.08668 4.25009 9.56362 4.72539 9.56273 5.3134C9.56228 5.89166 9.08801 6.37051 8.51037 6.37583C7.92429 6.3816 7.44026 5.90453 7.43848 5.31873Z" fill="#EEBD00"/>
</svg>
