<svg width="17" height="16" viewBox="0 0 17 16" fill="none" xmlns="http://www.w3.org/2000/svg">
<path d="M10.5057 0.310303C10.5209 0.320315 10.5352 0.333794 10.552 0.33957C10.9849 0.482828 11.2139 0.785516 11.2159 1.228C11.2183 1.72786 11.2167 2.22733 11.2167 2.72719C11.2167 2.77995 11.2167 2.83232 11.2167 2.90588H11.3974C12.5442 2.90588 13.6909 2.90588 14.8381 2.90588C15.1403 2.90588 15.233 2.99368 15.233 3.28097C15.233 5.33278 15.2338 7.38421 15.231 9.43602C15.231 9.54847 15.2618 9.62934 15.3393 9.71714C16.1779 10.6622 16.4241 11.7408 16.0001 12.9131C15.5844 14.0611 14.7238 14.7808 13.4795 15.0107C11.8271 15.3161 10.2834 14.4454 9.70225 12.9212C9.69026 12.89 9.67627 12.8596 9.66108 12.8237C8.90044 12.8237 8.14299 12.8237 7.38514 12.8237C7.10055 12.8237 6.96305 12.7271 6.96665 12.5299C6.97024 12.3389 7.10415 12.2484 7.38274 12.2484C8.04106 12.2484 8.69898 12.2484 9.3573 12.2484C9.41127 12.2484 9.46562 12.2484 9.52918 12.2484C9.43365 10.9291 9.9097 9.86425 11.0657 9.1522C12.2232 8.43938 13.4251 8.48136 14.6263 9.1187V6.16305C14.5783 6.20503 14.5387 6.23699 14.5024 6.27165C14.1494 6.61093 13.7949 6.94904 13.4455 7.29178C13.344 7.39152 13.2345 7.43774 13.0878 7.43388C12.78 7.42618 12.4722 7.43157 12.1673 7.43157C12.0721 8.015 11.7052 8.35581 11.1908 8.35119C10.7975 8.34773 10.293 8.08817 10.2303 7.43889H5.87305C5.84666 7.73388 5.72955 7.98458 5.47893 8.16519C5.29267 8.29959 5.08122 8.36275 4.84899 8.34965C4.35815 8.32231 4.00001 7.96532 3.94285 7.43157C3.88849 7.43157 3.83133 7.43157 3.77418 7.43157C3.53475 7.43157 3.29493 7.42195 3.0563 7.43466C2.87523 7.44428 2.74613 7.38113 2.62302 7.25828C2.28686 6.92324 1.94111 6.59706 1.59856 6.2678C1.56459 6.23507 1.52821 6.20426 1.47825 6.1592V12.2476C1.52542 12.2476 1.57738 12.2476 1.62934 12.2476C2.60183 12.2476 3.57392 12.2469 4.54641 12.2484C4.79303 12.2488 4.94412 12.4583 4.8426 12.657C4.78784 12.7641 4.6963 12.823 4.5676 12.823C3.43562 12.823 2.30365 12.8226 1.17207 12.8234C1.02058 12.8234 0.938644 12.734 0.871094 12.6216V3.10728C0.951435 2.95055 1.08174 2.90241 1.26121 2.90318C2.40637 2.90896 3.55154 2.90588 4.6967 2.90588C4.75506 2.90588 4.81342 2.90588 4.88736 2.90588C4.88736 2.84003 4.88736 2.78842 4.88736 2.7372C4.88736 2.23349 4.88577 1.7294 4.88776 1.22569C4.88976 0.785516 5.11999 0.481672 5.55208 0.33957C5.56887 0.333794 5.58286 0.320315 5.59845 0.310303C7.23405 0.310303 8.87006 0.310303 10.5057 0.310303ZM14.6351 3.49162H1.46866C1.46866 4.08736 1.46746 4.6731 1.47146 5.25884C1.47146 5.29927 1.50303 5.34818 1.53461 5.37899C2.02265 5.85305 2.5131 6.32518 3.00434 6.79616C3.03072 6.82158 3.06829 6.85238 3.10147 6.85277C3.37926 6.85739 3.65666 6.85546 3.95005 6.85546C3.95005 6.73108 3.94725 6.62132 3.95085 6.51234C3.95684 6.32903 4.05677 6.22005 4.24543 6.21735C4.68391 6.21081 5.12279 6.21119 5.56167 6.21697C5.75313 6.21966 5.86065 6.33519 5.86545 6.52081C5.86825 6.62941 5.86585 6.73839 5.86585 6.84622H10.2383C10.2383 6.72646 10.2351 6.61632 10.2391 6.50656C10.2455 6.33712 10.3522 6.2212 10.5277 6.21851C10.9761 6.21196 11.425 6.21196 11.8735 6.21928C12.0453 6.22197 12.1453 6.33173 12.1521 6.49809C12.1569 6.61208 12.1529 6.72646 12.1529 6.85546C12.4467 6.85546 12.7244 6.85739 13.0022 6.85277C13.035 6.85238 13.073 6.82158 13.0994 6.79616C13.5906 6.32518 14.0811 5.85305 14.5691 5.37899C14.6007 5.34818 14.6319 5.29928 14.6323 5.25845C14.6363 4.67272 14.6351 4.08698 14.6351 3.49123V3.49162ZM10.116 11.8606C10.1172 13.309 11.3582 14.5012 12.8607 14.497C14.3585 14.4928 15.59 13.3047 15.5924 11.8622C15.5948 10.4134 14.3585 9.21998 12.8548 9.21998C11.3506 9.21998 10.1148 10.4115 10.116 11.861V11.8606ZM6.08409 2.89779C6.08409 2.83656 6.08409 2.78457 6.08409 2.73297C6.08409 2.42527 6.08249 2.11796 6.08489 1.81027C6.08689 1.57343 6.19961 1.46445 6.44063 1.46445C7.51785 1.46406 8.59466 1.46368 9.67188 1.46445C9.89491 1.46445 10.0152 1.5742 10.0184 1.78986C10.0232 2.09717 10.0196 2.40486 10.0196 2.71256C10.0196 2.77302 10.0196 2.83386 10.0196 2.89509H10.6036C10.6036 2.31282 10.6068 1.74095 10.6016 1.16946C10.6 0.985768 10.4745 0.887183 10.261 0.887183C8.79012 0.886027 7.31919 0.886027 5.84786 0.887183C5.61004 0.887183 5.50012 0.993085 5.49852 1.22145C5.49572 1.55302 5.49772 1.88459 5.49772 2.21616C5.49772 2.44068 5.49772 2.66558 5.49772 2.89818H6.08369L6.08409 2.89779ZM6.70284 2.89779H9.39767V2.0498H6.70284V2.89779ZM4.55001 6.80155C4.55001 7.02029 4.54641 7.22169 4.55121 7.4231C4.55561 7.6145 4.6951 7.75313 4.88417 7.76546C5.06603 7.77739 5.23431 7.66263 5.2507 7.47817C5.27029 7.25597 5.2555 7.03107 5.2555 6.80155H4.55041H4.55001ZM10.8382 6.80194C10.8382 6.99256 10.8382 7.16508 10.8382 7.33761C10.8382 7.36649 10.837 7.39538 10.8398 7.42387C10.8582 7.62181 10.9889 7.7539 11.1772 7.76546C11.3566 7.77662 11.5333 7.65378 11.5461 7.4774C11.5625 7.25443 11.5501 7.02992 11.5501 6.80194H10.8378H10.8382Z" fill="black"/>
<path d="M5.91342 12.8234C5.74434 12.8226 5.61443 12.694 5.61723 12.5303C5.62003 12.3728 5.74674 12.2507 5.91022 12.2484C6.0765 12.2461 6.21719 12.377 6.21839 12.5342C6.21959 12.6909 6.07889 12.8241 5.91342 12.8234Z" fill="black"/>
<path d="M12.8445 11.4566C13.2066 11.1066 13.5488 10.7704 13.8985 10.4427C13.9617 10.3838 14.0612 10.3202 14.1383 10.326C14.2331 10.3333 14.359 10.3911 14.4034 10.4646C14.4477 10.5386 14.4173 10.6606 14.4014 10.7588C14.395 10.7989 14.3422 10.8336 14.3074 10.8674C13.9133 11.2483 13.5188 11.6288 13.1235 12.0085C12.9292 12.1953 12.7781 12.1957 12.5859 12.0127C12.4724 11.9045 12.358 11.7975 12.2481 11.6862C12.1162 11.5525 12.1106 11.3785 12.2293 11.2614C12.3477 11.1447 12.5315 11.147 12.6698 11.2714C12.7278 11.3238 12.7773 11.3846 12.8445 11.4563V11.4566Z" fill="black"/>
<path d="M11.0194 11.5664C11.1837 11.571 11.3164 11.7081 11.3112 11.8683C11.306 12.0274 11.1605 12.1575 10.9982 12.1483C10.8328 12.1391 10.7068 12.0023 10.7152 11.8402C10.7228 11.6881 10.8631 11.5618 11.0198 11.5664H11.0194Z" fill="black"/>
<path d="M14.3949 11.8556C14.3957 11.6962 14.5364 11.5625 14.6987 11.566C14.863 11.5695 14.9957 11.7062 14.9913 11.8664C14.9869 12.0204 14.8538 12.1471 14.6947 12.1483C14.5304 12.1494 14.3937 12.0162 14.3945 11.8556H14.3949Z" fill="black"/>
<path d="M13.1552 10.0818C13.1568 10.2397 13.0177 10.373 12.8518 10.3722C12.6867 10.3714 12.5476 10.2359 12.5508 10.0791C12.554 9.92703 12.6875 9.79956 12.847 9.79725C13.0145 9.79456 13.1536 9.9228 13.1552 10.0818Z" fill="black"/>
<path d="M12.8522 13.344C13.0193 13.3436 13.1572 13.4757 13.1552 13.634C13.1532 13.7931 13.0133 13.9221 12.8466 13.919C12.6876 13.9163 12.554 13.7884 12.5508 13.6359C12.5473 13.4796 12.6868 13.3444 12.8522 13.344Z" fill="black"/>
<path d="M13.8555 13.1156C13.8535 12.9512 13.9826 12.8249 14.1533 12.8249C14.3231 12.8249 14.4539 12.9516 14.4523 13.1153C14.4507 13.2724 14.3239 13.3964 14.1613 13.3998C13.9914 13.4037 13.8575 13.2789 13.8555 13.116V13.1156Z" fill="black"/>
<path d="M11.5537 10.3163C11.7236 10.3171 11.8531 10.4446 11.8507 10.6086C11.8483 10.7712 11.7132 10.8955 11.5433 10.8913C11.3806 10.8875 11.2551 10.7634 11.2539 10.6059C11.2527 10.4419 11.3834 10.316 11.5537 10.3163Z" fill="black"/>
<path d="M11.2539 13.1149C11.2523 12.9508 11.3822 12.8245 11.5525 12.8249C11.7168 12.8249 11.8455 12.9447 11.8503 13.1014C11.8555 13.2651 11.7272 13.3964 11.5589 13.3995C11.3894 13.4029 11.2555 13.2778 11.2539 13.1149Z" fill="black"/>
</svg>
