<svg width="16" height="15" viewBox="0 0 16 15" fill="none" xmlns="http://www.w3.org/2000/svg">
<path d="M0.769531 7.38272C0.869188 7.15321 0.931237 6.89753 1.07565 6.69933C1.59311 5.98721 2.572 5.84869 3.29103 6.36814C3.96643 6.8559 4.63507 7.35288 5.30672 7.84581C5.73054 8.15711 6.15361 8.46951 6.57856 8.77934C7.45892 9.4222 8.50964 9.4141 9.40203 8.75908C10.4825 7.96591 11.5614 7.17052 12.6441 6.37992C13.2507 5.9371 14.0129 5.94595 14.5962 6.4024C14.9723 6.69676 15.1765 7.08726 15.1795 7.55992C15.1866 8.69498 15.1851 9.83003 15.181 10.9651C15.1757 12.4615 14.0607 13.8165 12.5685 14.133C12.3188 14.186 12.0585 14.2159 11.8032 14.2166C9.25123 14.2225 6.69928 14.2218 4.14732 14.2199C2.47836 14.2188 1.06286 13.0296 0.803753 11.4167C0.794351 11.3585 0.78119 11.3007 0.769908 11.2429C0.769908 9.95602 0.769908 8.66919 0.769908 7.38199L0.769531 7.38272ZM7.97864 13.1191C9.22641 13.1191 10.4742 13.1202 11.722 13.1177C11.8807 13.1177 12.0424 13.1103 12.1977 13.0808C13.3044 12.8708 14.0539 11.98 14.0566 10.8748C14.0588 9.80866 14.0558 8.7425 14.0581 7.67671C14.0584 7.47814 14.0009 7.31457 13.8117 7.21768C13.6154 7.11711 13.4462 7.17347 13.2789 7.29688C12.2229 8.07606 11.165 8.85228 10.1064 9.62814C8.76085 10.6144 7.19004 10.6125 5.84261 9.62446C4.78437 8.84823 3.72575 8.07237 2.6694 7.29394C2.50656 7.17421 2.34109 7.12042 2.14893 7.2151C1.95789 7.30904 1.89433 7.46893 1.89471 7.66897C1.89659 8.74434 1.89019 9.81971 1.89997 10.8947C1.90185 11.1121 1.9357 11.3364 1.99775 11.545C2.27716 12.484 3.15151 13.1158 4.16537 13.1191C5.43646 13.1232 6.70793 13.1202 7.97901 13.1202L7.97864 13.1191Z" fill="black"/>
<path d="M10.7927 0.102295C11.0375 0.158292 11.2921 0.189604 11.526 0.274705C12.8305 0.747368 13.6146 1.65622 13.7974 3.01232C13.8632 3.50045 13.8331 4.00259 13.8263 4.49809C13.8222 4.77881 13.5484 4.98991 13.2461 4.98291C12.9599 4.97591 12.714 4.74529 12.7091 4.46604C12.703 4.13079 12.7079 3.79518 12.7072 3.45993C12.7042 2.34919 11.9694 1.46612 10.8588 1.24619C10.7129 1.21745 10.561 1.20714 10.4117 1.20677C8.8078 1.20419 7.20352 1.20382 5.59961 1.20566C4.4688 1.20677 3.55572 1.93363 3.34888 3.02226C3.29285 3.31662 3.31466 3.62571 3.30526 3.92817C3.3 4.098 3.30601 4.2682 3.30376 4.43804C3.29962 4.74823 3.05292 4.98401 2.73703 4.98254C2.42904 4.98107 2.17896 4.74566 2.18084 4.44283C2.18384 3.96096 2.16542 3.47614 2.21205 2.99795C2.3354 1.73211 3.32482 0.595587 4.57823 0.24413C4.78845 0.185185 5.00506 0.149083 5.21904 0.102664C7.07679 0.102664 8.93491 0.102664 10.7927 0.102664V0.102295Z" fill="black"/>
<path d="M7.44273 7.29907C7.19678 7.22207 6.96738 7.15797 6.744 7.07839C6.42924 6.9664 6.28295 6.66431 6.39051 6.36995C6.49881 6.07339 6.8132 5.94297 7.13736 6.03876C7.40926 6.11944 7.68829 6.17764 7.96545 6.24027C8.02299 6.25317 8.08843 6.2528 8.14634 6.24027C8.27458 6.21375 8.3528 6.12754 8.36633 6.00228C8.38025 5.87702 8.30692 5.78713 8.19146 5.74919C8.09594 5.71787 7.99178 5.70645 7.89024 5.69945C7.37955 5.66446 6.93843 5.48946 6.63156 5.0728C6.10169 4.35294 6.4518 3.32951 7.32765 3.02079C7.40324 2.99427 7.44799 2.967 7.46228 2.87711C7.5123 2.56323 7.74546 2.3794 8.05646 2.39156C8.33174 2.40224 8.5585 2.6137 8.57994 2.90806C8.58859 3.02447 8.63409 3.06132 8.736 3.08711C8.85333 3.11658 8.96841 3.15821 9.0801 3.20462C9.36741 3.32325 9.49978 3.63123 9.38997 3.91196C9.28167 4.18789 8.9842 4.3242 8.68975 4.24094C8.45245 4.1739 8.21328 4.11053 7.97222 4.05859C7.88911 4.04053 7.79397 4.04901 7.70973 4.0678C7.5939 4.09395 7.53185 4.17869 7.52132 4.29694C7.51117 4.41115 7.57435 4.49035 7.67175 4.52019C7.80337 4.56072 7.94326 4.59093 8.0809 4.59572C8.69614 4.61635 9.26926 5.02675 9.43886 5.58046C9.63705 6.22738 9.33244 6.91114 8.70968 7.2147C8.64763 7.24491 8.59272 7.26259 8.58445 7.3547C8.55399 7.69584 8.33249 7.90509 8.02111 7.90546C7.70973 7.90583 7.49199 7.69694 7.45137 7.35764C7.44874 7.33517 7.44498 7.31307 7.4431 7.29833L7.44273 7.29907Z" fill="black"/>
</svg>
