<svg width="13" height="13" viewBox="0 0 13 13" fill="none" xmlns="http://www.w3.org/2000/svg">
<path d="M2.25492 1.12197C2.25492 0.963922 2.25341 0.822455 2.25492 0.68062C2.25868 0.42421 2.45272 0.237429 2.71033 0.239271C2.95815 0.241482 3.14995 0.430474 3.15371 0.679147C3.15596 0.820982 3.15408 0.962448 3.15408 1.11276H5.85759C5.85759 0.967974 5.85609 0.826877 5.85759 0.685778C5.8606 0.427527 6.05164 0.238903 6.30736 0.239271C6.56195 0.239271 6.75337 0.429368 6.75638 0.687251C6.75788 0.824665 6.75638 0.962448 6.75638 1.11092H9.45989C9.45989 0.972764 9.45876 0.832033 9.45989 0.691303C9.46252 0.430841 9.6498 0.240745 9.90439 0.239271C10.1658 0.237429 10.3568 0.42863 10.3591 0.695723C10.3602 0.832769 10.3591 0.969449 10.3591 1.1216C10.6554 1.1216 10.9401 1.12123 11.2247 1.1216C11.9378 1.12271 12.4793 1.56921 12.6 2.25628C12.6087 2.30565 12.6102 2.35686 12.6102 2.40733C12.6109 3.44586 12.6113 4.48476 12.6102 5.52329C12.6102 5.75096 12.4473 5.94106 12.2337 5.97127C12.0047 6.00369 11.7836 5.86811 11.7264 5.65076C11.708 5.58113 11.7121 5.50524 11.7114 5.43229C11.7091 5.18399 11.7091 4.93605 11.708 4.68775C11.708 4.67965 11.7012 4.67191 11.6948 4.65717H0.900341C0.900341 4.7047 0.900341 4.75332 0.900341 4.80159C0.900341 6.92949 0.900341 9.05739 0.900341 11.1853C0.900341 11.5375 1.07634 11.7106 1.43473 11.7106C2.7532 11.7106 4.0713 11.7106 5.38977 11.711C5.62405 11.711 5.81773 11.8661 5.8512 12.075C5.8873 12.2986 5.75079 12.5138 5.52929 12.5756C5.48077 12.5893 5.42775 12.5915 5.37661 12.5915C4.03031 12.5922 2.68363 12.5941 1.33732 12.5915C0.601748 12.59 0.00193051 12.0046 0.00155445 11.2855C-0.000701924 8.33495 -0.000325862 5.3844 0.00155445 2.43349C0.00193051 1.70699 0.601747 1.12602 1.34635 1.12197C1.64156 1.12049 1.93677 1.12197 2.25266 1.12197H2.25492ZM6.75788 2.00945C6.75788 2.16308 6.75939 2.30086 6.75788 2.43864C6.7545 2.69579 6.56271 2.88589 6.30774 2.88589C6.05389 2.88589 5.86172 2.69468 5.85872 2.43754C5.85721 2.29644 5.85872 2.15571 5.85872 2.0124H3.15521C3.15521 2.15387 3.15596 2.28649 3.15521 2.41875C3.1537 2.68989 2.96868 2.88367 2.71108 2.88552C2.44558 2.88773 2.25717 2.69358 2.25567 2.4158C2.25492 2.28023 2.25567 2.14429 2.25567 2.00393C1.93903 2.00393 1.64381 1.9984 1.34861 2.00577C1.11432 2.0113 0.919896 2.16971 0.911999 2.39517C0.895828 2.84831 0.90711 3.30218 0.90711 3.76232H11.7095C11.7095 3.30181 11.7193 2.84794 11.705 2.3948C11.6986 2.19108 11.5305 2.02529 11.3229 2.0135C11.0066 1.99619 10.6889 2.00908 10.3613 2.00908C10.3613 2.15239 10.3621 2.28465 10.3613 2.41728C10.3598 2.69505 10.171 2.88846 9.90477 2.88589C9.6483 2.88367 9.46327 2.68842 9.46177 2.41801C9.46102 2.28207 9.46177 2.1465 9.46177 2.00982H6.75826L6.75788 2.00945Z" fill="black"/>
<path d="M9.00855 12.5926C7.01542 12.5926 5.40625 11.0158 5.40625 9.06288C5.40625 7.10997 7.01504 5.53394 9.00892 5.53394C11.0088 5.53394 12.6146 7.11328 12.6116 9.07688C12.6086 11.0187 10.996 12.5926 9.00892 12.5926H9.00855ZM11.7113 9.06509C11.7128 7.61137 10.4951 6.41663 9.0108 6.41553C7.52724 6.41405 6.30767 7.60731 6.30617 9.06103C6.30466 10.514 7.5231 11.7095 9.00667 11.711C10.4895 11.7124 11.7102 10.5184 11.7113 9.06509Z" fill="black"/>
<path d="M8.73391 9.27517C8.987 8.94471 9.22806 8.63009 9.46911 8.31547C9.56764 8.1869 9.66316 8.05649 9.7647 7.93012C9.93656 7.71645 10.2069 7.67519 10.41 7.82771C10.615 7.9817 10.6507 8.24585 10.4856 8.46357C10.0467 9.04197 9.60637 9.61962 9.16149 10.1932C8.96669 10.4445 8.67449 10.4581 8.44434 10.2356C8.15741 9.95819 7.87273 9.67857 7.58918 9.39784C7.38874 9.19927 7.38197 8.9296 7.56887 8.74872C7.7554 8.5682 8.02691 8.57815 8.23149 8.77672C8.39734 8.93771 8.55979 9.10202 8.73391 9.27517Z" fill="black"/>
</svg>
