<svg width="16" height="15" viewBox="0 0 16 15" fill="none" xmlns="http://www.w3.org/2000/svg">
<path d="M7.68123 14.8695C7.47266 14.842 7.26336 14.8186 7.05515 14.7865C5.28554 14.5151 3.80707 13.727 2.62009 12.4379C1.73908 11.4813 1.15863 10.3726 0.913845 9.11386C0.497424 6.97318 0.981196 5.02857 2.3782 3.31911C3.59922 1.82559 5.21059 0.948524 7.16342 0.668729C8.17768 0.523599 9.17926 0.615003 10.166 0.871772C10.4336 0.941198 10.6994 1.01795 11.0122 1.10377C10.9217 1.18157 10.8558 1.2332 10.7961 1.29077C10.4919 1.58207 10.187 1.87268 9.88754 2.16853C9.82526 2.22993 9.77239 2.24353 9.68657 2.22121C9.01993 2.04642 8.3399 2.00002 7.65444 2.05514C6.81363 2.12248 6.0246 2.36564 5.29097 2.76475C4.32089 3.29259 3.5583 4.02661 3.01224 4.96194C2.63348 5.61014 2.39123 6.3044 2.29962 7.04644C2.17904 8.02468 2.30614 8.97012 2.6954 9.88102C3.09046 10.8052 3.69626 11.5783 4.50774 12.2007C5.23919 12.7613 6.06262 13.1391 6.97766 13.3198C8.23236 13.5675 9.44686 13.4385 10.6132 12.9232C11.8031 12.3974 12.7156 11.5769 13.3525 10.4786C13.7776 9.74531 14.0271 8.95617 14.0749 8.11294C14.0818 7.99293 14.0894 7.87292 14.0977 7.73721H15.5748V8.21098C15.5653 8.2511 15.553 8.29087 15.5472 8.33169C15.511 8.58392 15.4889 8.8386 15.439 9.08839C15.1848 10.3548 14.6137 11.475 13.7251 12.4389C12.5378 13.7273 11.0597 14.5158 9.29006 14.7872C9.08222 14.8189 8.87292 14.8427 8.66398 14.8702H7.68087L7.68123 14.8695Z" fill="black"/>
<path d="M7.42218 10.5495C6.33659 9.50356 5.23108 8.43811 4.13281 7.37963C4.46269 7.06216 4.80235 6.73527 5.14272 6.40698C5.89047 7.12879 6.64763 7.85968 7.40588 8.59196C9.54339 6.53222 11.6603 4.49237 13.7731 2.45636C14.1302 2.80418 14.4677 3.13317 14.7914 3.44855C12.3414 5.80936 9.87761 8.18343 7.42218 10.5495Z" fill="black"/>
</svg>
