<svg width="14" height="14" viewBox="0 0 14 14" fill="none" xmlns="http://www.w3.org/2000/svg">
<path d="M0.239684 6.9937C0.239684 6.23994 0.226897 5.48582 0.243444 4.73243C0.25811 4.05899 0.373185 3.39844 0.645077 2.77363C1.07416 1.78741 1.84735 1.19318 2.8849 0.904347C3.54038 0.721619 4.21203 0.67078 4.88894 0.671517C6.25931 0.672622 7.62968 0.670411 8.99967 0.687358C9.66342 0.695463 10.3148 0.807825 10.9345 1.05355C12.0131 1.48127 12.6441 2.28328 12.9348 3.36639C13.0957 3.96578 13.1439 4.57807 13.1458 5.19515C13.148 5.97653 13.1484 6.75792 13.1465 7.5393C13.1461 7.79719 13.0077 7.97734 12.7908 8.01823C12.4884 8.07496 12.2402 7.86755 12.2391 7.55036C12.2364 6.70008 12.2402 5.84943 12.2357 4.99916C12.2327 4.48781 12.1725 3.98236 12.03 3.4887C11.7543 2.5338 11.1082 1.96093 10.1324 1.7281C9.60062 1.60137 9.06022 1.55974 8.51455 1.56047C7.24271 1.56195 5.97087 1.56047 4.69902 1.56232C4.15787 1.56305 3.62311 1.62126 3.10076 1.76568C2.13127 2.03387 1.53484 2.6609 1.31522 3.61396C1.22083 4.02325 1.15239 4.44766 1.14637 4.86617C1.12606 6.28636 1.13321 7.70693 1.14148 9.12712C1.14411 9.5961 1.21331 10.0599 1.34493 10.5134C1.62322 11.4691 2.26929 12.0511 3.24856 12.2626C3.67163 12.354 4.10861 12.4137 4.54146 12.4258C5.44175 12.4512 6.34317 12.4343 7.24421 12.4365C7.55973 12.4372 7.76882 12.6572 7.73234 12.9438C7.70752 13.1376 7.55597 13.2894 7.35703 13.317C7.31529 13.3229 7.27279 13.3262 7.23105 13.3258C6.2642 13.3218 5.29734 13.3325 4.33124 13.3078C3.58701 13.2886 2.85895 13.1567 2.1828 12.8288C1.24001 12.3717 0.701864 11.605 0.438996 10.6295C0.267512 9.99361 0.228025 9.34412 0.226897 8.6902C0.226145 8.1247 0.226897 7.55956 0.226897 6.99406C0.23141 6.99406 0.235548 6.99406 0.24006 6.99406L0.239684 6.9937Z" fill="black"/>
<path d="M8.6165 12.3304C8.64282 12.1675 8.6605 12.0029 8.69886 11.843C8.72932 11.7159 8.69622 11.6201 8.60823 11.5309C8.50744 11.4285 8.40177 11.3291 8.31264 11.2174C7.78014 10.5521 8.03962 9.79208 8.87222 9.57141C8.9715 9.54525 9.07304 9.52167 9.17495 9.51357C9.32387 9.50178 9.40698 9.42257 9.47542 9.29989C9.59426 9.08769 9.70106 8.86186 9.85788 8.67913C10.2809 8.18695 10.9376 8.19763 11.3482 8.70013C11.4956 8.88028 11.5994 9.09617 11.7107 9.3021C11.7784 9.42736 11.8698 9.48557 12.0116 9.51688C12.2331 9.56551 12.4636 9.61709 12.6607 9.72061C13.1168 9.96081 13.2827 10.4582 13.0529 10.9124C12.9453 11.125 12.7742 11.3117 12.6103 11.4908C12.4982 11.6131 12.4704 11.728 12.4907 11.8883C12.5212 12.127 12.5573 12.3772 12.5155 12.6096C12.4177 13.1545 11.9413 13.4363 11.3933 13.2901C11.1797 13.233 10.9778 13.128 10.7781 13.03C10.648 12.9662 10.5401 12.9685 10.4077 13.0292C10.1723 13.1368 9.93384 13.2647 9.68301 13.307C9.0941 13.4065 8.64846 13.016 8.63229 12.4299C8.63154 12.3978 8.63229 12.3654 8.63229 12.3333L8.6165 12.3311V12.3304ZM9.52318 12.4166C9.53973 12.4284 9.5559 12.4398 9.57245 12.4516C9.6958 12.3912 9.81689 12.326 9.94287 12.2718C10.0873 12.2099 10.2321 12.1388 10.3844 12.1053C10.6965 12.0364 10.9857 12.1152 11.2576 12.2755C11.373 12.3433 11.4998 12.3926 11.6212 12.4501C11.6329 12.4383 11.6445 12.4269 11.6562 12.4151C11.64 12.2935 11.6348 12.1694 11.6058 12.0508C11.4953 11.5995 11.6186 11.2189 11.9461 10.8921C12.0375 10.8008 12.124 10.7035 12.2068 10.6044C12.2617 10.5388 12.241 10.4806 12.1594 10.4574C12.0612 10.4291 11.9608 10.4047 11.8597 10.3896C11.4362 10.3259 11.1218 10.1144 10.9248 9.74014C10.8623 9.62188 10.8078 9.49957 10.7409 9.38426C10.7036 9.32052 10.6484 9.26674 10.5713 9.17169C10.4592 9.37542 10.3633 9.5412 10.2764 9.71103C10.0741 10.1071 9.75371 10.3336 9.30394 10.3926C9.17909 10.4088 9.05837 10.4545 8.93577 10.4865C8.93051 10.5049 8.92525 10.523 8.91998 10.5414C9.02377 10.656 9.1223 10.7765 9.23286 10.8844C9.5747 11.2174 9.68564 11.6105 9.57696 12.0692C9.54988 12.183 9.54086 12.3009 9.52356 12.417L9.52318 12.4166Z" fill="black"/>
<path d="M7.62556 7.95668C7.37322 7.946 7.15209 7.87048 6.95767 7.7198C6.62674 7.46339 6.29467 7.20809 5.96261 6.95315C5.78323 6.81537 5.74374 6.82053 5.60159 7.00178C5.1522 7.57281 4.7028 8.1442 4.25454 8.71633C4.12968 8.87585 3.96309 8.9359 3.76979 8.89132C3.57951 8.84748 3.45089 8.71596 3.43848 8.5255C3.43134 8.41572 3.4633 8.27977 3.52949 8.19357C4.00145 7.57575 4.47942 6.96199 4.96981 6.35855C5.33534 5.90909 5.96036 5.84131 6.4293 6.18724C6.7813 6.44697 7.12351 6.71922 7.46987 6.98594C7.61804 7.10015 7.68159 7.09462 7.79591 6.95057C8.23929 6.39207 8.68154 5.83321 9.12341 5.2736C9.24977 5.11371 9.41824 5.06029 9.61041 5.10745C9.79468 5.15239 9.92142 5.28134 9.93195 5.46591C9.93834 5.58011 9.906 5.72084 9.83755 5.81036C9.38778 6.39834 8.92485 6.9771 8.46267 7.55586C8.24982 7.82222 7.96138 7.94637 7.62556 7.95742V7.95668Z" fill="black"/>
</svg>
