<svg width="48" height="38" viewBox="0 0 48 38" fill="none" xmlns="http://www.w3.org/2000/svg">
<rect width="47.4924" height="38" fill="black"/>
<path fill-rule="evenodd" clip-rule="evenodd" d="M20.9258 14.2923C24.3905 7.94649 28.0304 9.89445 31.617 13.384C30.5357 13.9099 29.4544 14.358 28.4264 14.609C25.784 12.2189 23.2483 11.1074 20.9258 14.2923Z" fill="#76B639"/>
<path style="mix-blend-mode:multiply" opacity="0.92" d="M29.6312 12.9658C32.9284 12.0456 35.7535 12.0217 35.9058 12.912C36.0734 13.8023 33.4919 15.2782 30.2023 16.1925C26.8594 17.1246 24.0267 17.1545 23.882 16.2582C23.7221 15.3679 26.3036 13.892 29.6312 12.9658Z" fill="url(#paint0_radial_3298_161)"/>
<path fill-rule="evenodd" clip-rule="evenodd" d="M33.0878 14.8898C37.2912 19.3534 41.3727 24.6655 44.9669 19.7478C40.2077 28.4658 35.121 21.5404 30.3008 16.4614C31.2298 16.0013 32.174 15.4217 33.0878 14.8898Z" fill="#76B639"/>
<path fill-rule="evenodd" clip-rule="evenodd" d="M39.6345 20.5843L39.8096 13.7426C39.8096 13.6589 39.7258 13.5573 39.6192 13.5155C39.5126 13.4737 39.4212 13.5155 39.4212 13.5932L39.2461 20.4349C39.2461 20.5186 39.3299 20.6261 39.4365 20.662C39.5431 20.7038 39.6345 20.662 39.6345 20.5843Z" fill="#76B639"/>
<path fill-rule="evenodd" clip-rule="evenodd" d="M38.2477 19.6402L38.3391 13.0315C38.3391 12.9478 38.2553 12.8462 38.1487 12.8044C38.0421 12.7626 37.9508 12.8044 37.9508 12.8881L37.8594 19.4968C37.8594 19.5804 37.9431 19.688 38.0497 19.7238C38.1564 19.7657 38.2477 19.7238 38.2477 19.6462V19.6402Z" fill="#1B73D4"/>
<path fill-rule="evenodd" clip-rule="evenodd" d="M36.7585 18.248L36.7128 13.402C36.7128 13.3183 36.629 13.2167 36.5224 13.1749C36.4158 13.1331 36.332 13.1629 36.332 13.2466L36.3777 18.0926C36.3777 18.1703 36.4615 18.2778 36.5681 18.3197C36.6747 18.3615 36.7585 18.3316 36.7585 18.248Z" fill="#76B639"/>
<path fill-rule="evenodd" clip-rule="evenodd" d="M26.5602 15.7144L26.6668 13.5812C26.6668 13.4975 26.5907 13.378 26.4765 13.3541C26.3622 13.3242 26.2785 13.3541 26.2785 13.4318L26.1719 15.565C26.1719 15.6546 26.248 15.7682 26.3622 15.7921C26.4765 15.8219 26.5602 15.7921 26.5602 15.7144Z" fill="#1B73D4"/>
<path fill-rule="evenodd" clip-rule="evenodd" d="M25.1071 15.6846L25.1833 12.8642C25.1833 12.7805 25.1071 12.667 24.9929 12.6371C24.8787 12.6073 24.7949 12.6371 24.7949 12.7208L24.7188 15.5412C24.7188 15.6248 24.8254 15.7025 24.9091 15.7682C24.9929 15.8339 25.1071 15.7682 25.1071 15.6905V15.6846Z" fill="#76B639"/>
<path fill-rule="evenodd" clip-rule="evenodd" d="M23.5907 15.3619L23.5526 13.2406C23.5526 13.157 23.4612 13.0554 23.3622 13.0136C23.2556 12.9717 23.1719 13.0016 23.1719 13.0853L23.2099 15.2065C23.2099 15.2842 23.2937 15.3917 23.4003 15.4336C23.5069 15.4754 23.5907 15.4515 23.5907 15.3678V15.3619Z" fill="#1B73D4"/>
<path style="mix-blend-mode:multiply" opacity="0.92" d="M28.9198 15.9415C30.8387 13.9099 33.0394 12.7865 33.8085 13.4438C34.5928 14.0951 33.6486 16.294 31.7373 18.3197C29.7879 20.3812 27.5872 21.5165 26.8181 20.8472C26.0338 20.1959 26.9856 17.991 28.9198 15.9415Z" fill="url(#paint1_radial_3298_161)"/>
<path fill-rule="evenodd" clip-rule="evenodd" d="M22.0234 14.7404C29.9505 25.998 35.2123 6.99043 40.8016 13.9876C41.6849 -1.4826 29.4936 22.12 22.0234 14.7404Z" fill="#1B73D4"/>
<path d="M3.09959 23.8647C3.18335 23.8229 3.28234 23.805 3.39656 23.805C3.62501 23.805 3.74685 23.8946 3.74685 24.0799V24.4683H3.6707V24.3607C3.6707 24.3607 3.6707 24.3726 3.65547 24.3786C3.65547 24.3786 3.64024 24.3846 3.64024 24.3906C3.63262 24.3906 3.62501 24.4085 3.60978 24.4145C3.60216 24.4145 3.58693 24.4264 3.57932 24.4324C3.56409 24.4384 3.54886 24.4503 3.53363 24.4563C3.5184 24.4563 3.49556 24.4683 3.48033 24.4742C3.4651 24.4742 3.44225 24.4802 3.41941 24.4862C3.39656 24.4862 3.37372 24.4862 3.35087 24.4862C3.24427 24.4862 3.16812 24.4683 3.11482 24.4264C3.0539 24.3846 3.02344 24.3308 3.02344 24.2711C3.02344 24.2113 3.0539 24.1575 3.12243 24.1217C3.19096 24.0799 3.27473 24.0619 3.37372 24.0619H3.66308C3.66308 23.9663 3.61739 23.9006 3.51079 23.8707C3.48033 23.8647 3.44987 23.8588 3.41179 23.8588C3.37372 23.8588 3.34326 23.8588 3.30519 23.8588C3.27473 23.8588 3.25188 23.8647 3.22904 23.8707C3.20619 23.8707 3.19096 23.8827 3.17573 23.8886C3.16812 23.8886 3.15289 23.9006 3.14527 23.9006C3.13004 23.9066 3.13004 23.9066 3.12243 23.9066L3.09959 23.8528V23.8647ZM3.6707 24.1994V24.1277H3.45748C3.38895 24.1277 3.32042 24.1277 3.26711 24.1396C3.21381 24.1456 3.17573 24.1635 3.14527 24.1874C3.13004 24.1994 3.12243 24.2113 3.12243 24.2233C3.12243 24.2352 3.1072 24.2531 3.1072 24.2711C3.1072 24.289 3.1072 24.3069 3.11482 24.3248C3.12243 24.3428 3.13766 24.3607 3.15289 24.3786C3.16812 24.3906 3.19096 24.4025 3.22904 24.4145C3.2595 24.4205 3.30519 24.4324 3.35087 24.4324C3.38133 24.4324 3.41179 24.4324 3.44225 24.4205C3.4651 24.4205 3.48794 24.4145 3.51079 24.4025C3.53363 24.4025 3.54886 24.3906 3.56409 24.3786C3.57932 24.3667 3.59455 24.3607 3.60216 24.3487C3.61739 24.3368 3.62501 24.3308 3.63262 24.3189C3.63262 24.3069 3.64785 24.3009 3.64785 24.289C3.64785 24.277 3.66308 24.2711 3.66308 24.2651C3.66308 24.2591 3.66308 24.2531 3.6707 24.2472V24.1934V24.1994Z" fill="#727880"/>
<path d="M4.5847 23.817H4.87407V23.8707H4.5847V24.1815V24.2233C4.5847 24.2233 4.5847 24.2532 4.5847 24.2591C4.5847 24.2651 4.5847 24.2771 4.5847 24.289C4.5847 24.301 4.5847 24.3129 4.5847 24.3189C4.5847 24.3308 4.59232 24.3368 4.59993 24.3488C4.60755 24.3607 4.61516 24.3667 4.62278 24.3727C4.67608 24.4205 4.75984 24.4264 4.87407 24.3966V24.4563H4.86645C4.86645 24.4563 4.85884 24.4563 4.85122 24.4563C4.85122 24.4563 4.83599 24.4563 4.82838 24.4563C4.82076 24.4563 4.81315 24.4563 4.79792 24.4563C4.7903 24.4563 4.77507 24.4563 4.76746 24.4563H4.72939C4.72939 24.4563 4.70654 24.4563 4.69131 24.4563C4.67608 24.4563 4.66847 24.4563 4.65324 24.4444C4.63801 24.4444 4.63039 24.4384 4.61516 24.4264C4.59993 24.4264 4.59232 24.4145 4.57709 24.4025C4.55424 24.3846 4.53902 24.3547 4.52379 24.3249C4.51617 24.283 4.50856 24.2651 4.50856 24.2472V23.8468H4.38672V23.7931H4.50856V23.5839H4.59232V23.7931L4.5847 23.817Z" fill="#727880"/>
<path d="M5.02497 23.8647C5.11635 23.8229 5.21534 23.805 5.32195 23.805C5.55039 23.805 5.67223 23.8946 5.67223 24.0799V24.4683H5.58847V24.3607C5.58847 24.3607 5.58847 24.3726 5.57324 24.3786C5.57324 24.3786 5.56562 24.3846 5.55039 24.3906C5.55039 24.3906 5.53516 24.4085 5.52755 24.4145C5.51993 24.4145 5.50471 24.4264 5.48948 24.4324C5.47425 24.4384 5.46663 24.4503 5.44379 24.4563C5.42856 24.4563 5.40571 24.4683 5.39048 24.4742C5.37525 24.4742 5.35241 24.4802 5.32956 24.4862C5.30672 24.4862 5.28388 24.4862 5.26103 24.4862C5.16204 24.4862 5.07828 24.4683 5.02497 24.4264C4.96405 24.3846 4.93359 24.3308 4.93359 24.2711C4.93359 24.2113 4.96405 24.1575 5.03259 24.1217C5.10112 24.0799 5.18488 24.0619 5.28388 24.0619H5.57324C5.57324 23.9663 5.52755 23.9006 5.42856 23.8707C5.3981 23.8647 5.36764 23.8588 5.32956 23.8588C5.29149 23.8588 5.25342 23.8588 5.22296 23.8588C5.1925 23.8588 5.16204 23.8647 5.14681 23.8707C5.12396 23.8707 5.10873 23.8827 5.0935 23.8886C5.07828 23.8886 5.07066 23.9006 5.05543 23.9006C5.04782 23.9066 5.0402 23.9066 5.0402 23.9066L5.00974 23.8528L5.02497 23.8647ZM5.59608 24.1994V24.1277H5.38287C5.30672 24.1277 5.25342 24.1277 5.20011 24.1396C5.14681 24.1456 5.10873 24.1635 5.07828 24.1874C5.07066 24.1994 5.06305 24.2113 5.04782 24.2233C5.04782 24.2352 5.0402 24.2531 5.0402 24.2711C5.0402 24.289 5.0402 24.3069 5.0402 24.3248C5.04782 24.3428 5.06305 24.3607 5.07828 24.3786C5.10112 24.3906 5.12396 24.4025 5.15442 24.4145C5.1925 24.4205 5.23057 24.4324 5.27626 24.4324C5.30672 24.4324 5.33718 24.4324 5.36002 24.4205C5.39048 24.4205 5.41333 24.4145 5.42856 24.4025C5.4514 24.4025 5.46663 24.3906 5.48186 24.3786C5.49709 24.3667 5.51232 24.3607 5.51993 24.3487C5.52755 24.3368 5.54278 24.3308 5.54278 24.3189C5.55039 24.3069 5.55801 24.3009 5.56562 24.289C5.56562 24.277 5.56562 24.2711 5.57324 24.2651C5.57324 24.2591 5.57324 24.2531 5.57324 24.2472C5.57324 24.2472 5.57324 24.2292 5.57324 24.1934L5.59608 24.1994Z" fill="#727880"/>
<path d="M6.71693 24.3667C6.71693 24.3667 6.71693 24.4085 6.70932 24.4384C6.70932 24.4683 6.69409 24.4922 6.67124 24.522C6.6484 24.5519 6.62555 24.5758 6.58748 24.5997C6.54941 24.6236 6.51133 24.6415 6.45803 24.6595C6.41234 24.6774 6.35904 24.6834 6.30573 24.6834C6.19912 24.6834 6.09252 24.6595 5.98591 24.6176V24.54C6.05444 24.5937 6.15344 24.6236 6.29812 24.6236C6.34381 24.6236 6.38188 24.6236 6.41995 24.6057C6.45803 24.5937 6.48087 24.5878 6.50372 24.5758C6.52656 24.5639 6.54941 24.5459 6.56464 24.528C6.58748 24.5101 6.59509 24.4922 6.60271 24.4802C6.61032 24.4623 6.61794 24.4503 6.62555 24.4264C6.62555 24.4085 6.62555 24.3906 6.62555 24.3846C6.62555 24.3846 6.62555 24.3727 6.62555 24.3607V24.2651C6.62555 24.2651 6.58748 24.3009 6.57225 24.3129C6.54941 24.3308 6.52656 24.3428 6.50372 24.3607C6.47326 24.3786 6.4428 24.3906 6.40472 24.3966C6.36665 24.4085 6.32858 24.4145 6.2905 24.4145C6.24481 24.4145 6.19912 24.4145 6.15344 24.3966C6.10775 24.3846 6.06206 24.3667 6.01637 24.3428C5.97829 24.3189 5.94022 24.283 5.92499 24.2472C5.90215 24.2053 5.89453 24.1575 5.89453 24.1097C5.89453 24.0619 5.90976 24.0141 5.93261 23.9723C5.96306 23.9245 6.00114 23.8886 6.06967 23.8528C6.13059 23.8229 6.19912 23.805 6.26766 23.805C6.31335 23.805 6.35142 23.805 6.38949 23.8169C6.42757 23.8289 6.45041 23.8349 6.47326 23.8408C6.4961 23.8528 6.51895 23.8647 6.54179 23.8827C6.56464 23.9006 6.57986 23.9125 6.58748 23.9185C6.59509 23.9245 6.60271 23.9365 6.61794 23.9484C6.61794 23.9484 6.61794 23.9544 6.62555 23.9544V23.8169H6.70932V24.3667H6.71693ZM6.29812 24.3607C6.38188 24.3607 6.45803 24.3368 6.53418 24.289C6.60271 24.2412 6.64078 24.1814 6.64078 24.1097C6.64078 24.038 6.61032 23.9783 6.53418 23.9305C6.45803 23.8827 6.38188 23.8588 6.29812 23.8588C6.21435 23.8588 6.13059 23.8827 6.06967 23.9305C6.00875 23.9783 5.97068 24.044 5.97068 24.1097C5.97068 24.1755 6.00114 24.2412 6.06967 24.289C6.13059 24.3368 6.20674 24.3607 6.29812 24.3607Z" fill="#727880"/>
<path d="M7.0451 24.1755V24.1874C7.0451 24.1874 7.0451 24.2053 7.0451 24.2233C7.0451 24.2472 7.0451 24.2651 7.0451 24.2711C7.0451 24.2711 7.0451 24.289 7.0451 24.3069C7.0451 24.3248 7.0451 24.3368 7.06033 24.3428C7.06794 24.3547 7.07556 24.3667 7.09078 24.3726C7.14409 24.4204 7.22785 24.4264 7.33446 24.3965V24.4563C7.33446 24.4563 7.31161 24.4563 7.304 24.4623C7.304 24.4623 7.28877 24.4623 7.28116 24.4623H7.25831C7.2507 24.4623 7.23547 24.4623 7.22785 24.4623C7.21262 24.4623 7.20501 24.4623 7.18978 24.4623C7.17455 24.4623 7.16693 24.4623 7.1517 24.4623C7.13647 24.4623 7.12886 24.4623 7.11363 24.4503C7.0984 24.4503 7.09078 24.4443 7.07556 24.4324C7.06033 24.4264 7.05271 24.4204 7.03748 24.4085C7.02225 24.4025 7.00702 24.3846 6.99941 24.3726C6.98418 24.3547 6.98418 24.3368 6.97656 24.3189C6.97656 24.3009 6.97656 24.283 6.97656 24.2711C6.97656 24.2531 6.97656 24.2352 6.97656 24.2233C6.97656 24.2053 6.97656 24.1934 6.97656 24.1814V23.5241H7.06033V24.1695L7.0451 24.1755Z" fill="#727880"/>
<path d="M7.51562 23.6138H7.62985V23.7213H7.51562V23.6138ZM7.61462 23.9364V23.811H7.53847V24.4682H7.61462V23.9364Z" fill="#727880"/>
<path d="M7.94334 24.4683H7.86719V23.811H7.94334V23.9245C8.01187 23.8349 8.10325 23.7931 8.22508 23.7931C8.34692 23.7931 8.43068 23.817 8.4916 23.8707C8.55252 23.9185 8.58298 23.9902 8.58298 24.0799V24.4683H8.49922V24.1098C8.49922 23.9424 8.40784 23.8588 8.21747 23.8588C8.08802 23.8588 8.00425 23.9185 7.95095 24.0321V24.4742L7.94334 24.4683Z" fill="#727880"/>
<path d="M8.89607 24.1695C8.89607 24.1695 8.90368 24.2233 8.91891 24.2532C8.93414 24.289 8.9646 24.3189 8.99506 24.3428C9.02552 24.3727 9.06359 24.3906 9.10167 24.4026C9.13974 24.4205 9.19304 24.4265 9.23873 24.4265C9.29204 24.4265 9.33011 24.4145 9.3758 24.4026C9.39864 24.3966 9.4291 24.3846 9.45195 24.3667V24.4384C9.45195 24.4384 9.42149 24.4504 9.40626 24.4563C9.35295 24.4743 9.29204 24.4862 9.23112 24.4862C9.1702 24.4862 9.10928 24.4743 9.06359 24.4563C9.01029 24.4384 8.9646 24.4145 8.92652 24.3846C8.88845 24.3547 8.85799 24.3189 8.83515 24.2771C8.8123 24.2352 8.80469 24.1934 8.80469 24.1456C8.80469 24.0978 8.8123 24.056 8.83515 24.0142C8.85799 23.9723 8.88845 23.9365 8.92652 23.9066C8.9646 23.8767 9.01029 23.8468 9.06359 23.8289C9.11689 23.811 9.17781 23.799 9.23873 23.799C9.26919 23.799 9.29204 23.799 9.3225 23.811C9.35295 23.811 9.3758 23.8289 9.41387 23.8468C9.45195 23.8648 9.48241 23.8887 9.50525 23.9126C9.5281 23.9365 9.55094 23.9723 9.56617 24.0201C9.58901 24.062 9.58901 24.1157 9.58901 24.1695H8.89607ZM9.23112 23.8588C9.18543 23.8588 9.13974 23.8707 9.09405 23.8827C9.04836 23.8946 9.0179 23.9185 8.98744 23.9424C8.95698 23.9723 8.93414 23.9962 8.91891 24.0321C8.90368 24.062 8.90368 24.0859 8.89607 24.1157H9.50525C9.50525 24.1157 9.49002 24.0679 9.48241 24.0261C9.47479 24.0022 9.45956 23.9723 9.44433 23.9544C9.4291 23.9305 9.40626 23.9185 9.39864 23.9066C9.38341 23.8946 9.36057 23.8887 9.33772 23.8827C9.31488 23.8767 9.29965 23.8707 9.29204 23.8648C9.28442 23.8648 9.26919 23.8648 9.24635 23.8648C9.24635 23.8648 9.24635 23.8648 9.23873 23.8648L9.23112 23.8588Z" fill="#727880"/>
<path d="M11.0726 24.3667C11.0726 24.3667 11.0726 24.4085 11.065 24.4384C11.065 24.4683 11.0498 24.4922 11.0269 24.522C11.0041 24.5519 10.9812 24.5758 10.9431 24.5997C10.9051 24.6236 10.867 24.6415 10.8137 24.6595C10.768 24.6774 10.7147 24.6834 10.6614 24.6834C10.5548 24.6834 10.4482 24.6595 10.3416 24.6176V24.54C10.4025 24.5937 10.5091 24.6236 10.6538 24.6236C10.6995 24.6236 10.7375 24.6236 10.768 24.6057C10.8061 24.5937 10.8289 24.5878 10.8594 24.5758C10.8822 24.5639 10.9051 24.5459 10.9203 24.528C10.9431 24.5101 10.9508 24.4922 10.9584 24.4802C10.966 24.4623 10.9736 24.4503 10.9812 24.4264C10.9812 24.4085 10.9812 24.3906 10.9812 24.3846V24.2651C10.9812 24.2651 10.9508 24.3009 10.9355 24.3129C10.9127 24.3308 10.8898 24.3428 10.867 24.3607C10.8365 24.3786 10.8061 24.3906 10.768 24.3966C10.7299 24.4085 10.6919 24.4145 10.6538 24.4145C10.6081 24.4145 10.5624 24.4145 10.5167 24.3966C10.471 24.3846 10.4253 24.3667 10.3873 24.3428C10.3416 24.3189 10.3111 24.283 10.2883 24.2472C10.2654 24.2053 10.2578 24.1575 10.2578 24.1097C10.2578 24.0619 10.273 24.0141 10.3035 23.9723C10.3263 23.9245 10.372 23.8886 10.433 23.8528C10.4939 23.8229 10.5624 23.805 10.6386 23.805C10.6842 23.805 10.7223 23.805 10.7604 23.8169C10.7985 23.8289 10.8289 23.8349 10.8442 23.8408C10.8746 23.8528 10.8898 23.8647 10.9127 23.8827C10.9355 23.9006 10.9508 23.9125 10.9584 23.9185C10.966 23.9245 10.9736 23.9365 10.9888 23.9484V23.9544V23.8169H11.0726V24.3667ZM10.6462 24.3607C10.7375 24.3607 10.8137 24.3368 10.8822 24.289C10.9508 24.2412 10.9888 24.1814 10.9888 24.1097C10.9888 24.038 10.9584 23.9783 10.8822 23.9305C10.8061 23.8827 10.7299 23.8588 10.6462 23.8588C10.5624 23.8588 10.4786 23.8827 10.4177 23.9305C10.3568 23.9783 10.3263 24.044 10.3263 24.1097C10.3263 24.1755 10.3568 24.2412 10.4177 24.289C10.4786 24.3368 10.5548 24.3607 10.6462 24.3607Z" fill="#727880"/>
<path d="M11.7272 24.4862C11.6663 24.4862 11.6054 24.4743 11.5521 24.4563C11.5064 24.4384 11.4607 24.4145 11.4226 24.3846C11.3845 24.3547 11.3541 24.3189 11.3312 24.2771C11.3084 24.2352 11.3008 24.1934 11.3008 24.1456C11.3008 24.0978 11.316 24.056 11.3312 24.0142C11.3541 23.9723 11.3845 23.9365 11.4226 23.9066C11.4607 23.8767 11.5064 23.8468 11.5521 23.8289C11.6054 23.811 11.6663 23.799 11.7272 23.799C11.7881 23.799 11.8414 23.811 11.8947 23.8289C11.948 23.8468 11.9937 23.8707 12.0318 23.9066C12.0699 23.9365 12.1003 23.9723 12.1232 24.0142C12.1384 24.05 12.1536 24.0978 12.1536 24.1456C12.1536 24.1934 12.146 24.2352 12.1232 24.2771C12.1003 24.3189 12.0699 24.3547 12.0318 24.3906C11.9937 24.4205 11.948 24.4444 11.8947 24.4623C11.8414 24.4802 11.7805 24.4922 11.7196 24.4922L11.7272 24.4862ZM11.7272 24.4265C11.7729 24.4265 11.8186 24.4145 11.8643 24.4026C11.9024 24.3906 11.9404 24.3667 11.9709 24.3428C12.0013 24.3189 12.0242 24.289 12.0394 24.2532C12.0546 24.2233 12.0623 24.1815 12.0623 24.1456C12.0623 24.1098 12.0546 24.0679 12.0394 24.0321C12.0242 23.9962 11.9937 23.9664 11.9633 23.9424C11.9328 23.9185 11.8947 23.9006 11.849 23.8827C11.811 23.8707 11.7653 23.8588 11.7196 23.8588C11.6663 23.8588 11.6206 23.8707 11.5825 23.8827C11.5445 23.8946 11.5064 23.9185 11.4759 23.9424C11.4455 23.9723 11.4226 23.9962 11.3998 24.0321C11.3845 24.0679 11.3769 24.1038 11.3769 24.1396C11.3769 24.1815 11.3845 24.2173 11.4074 24.2532C11.4226 24.289 11.4455 24.3189 11.4835 24.3428C11.5064 24.3727 11.5521 24.3906 11.5901 24.4026C11.6282 24.4205 11.6739 24.4265 11.7272 24.4265Z" fill="#727880"/>
<path d="M12.4742 24.1695C12.4742 24.1695 12.4894 24.2233 12.5046 24.2532C12.5199 24.289 12.5427 24.3189 12.5808 24.3428C12.6036 24.3727 12.6493 24.3906 12.6874 24.4026C12.7255 24.4205 12.7788 24.4265 12.8169 24.4265C12.8702 24.4265 12.9158 24.4145 12.9539 24.4026C12.9844 24.3966 13.0072 24.3846 13.0301 24.3667V24.4384C13.0301 24.4384 12.9996 24.4504 12.9844 24.4563C12.9311 24.4743 12.8702 24.4862 12.8092 24.4862C12.7483 24.4862 12.6874 24.4743 12.6417 24.4563C12.5884 24.4384 12.5427 24.4145 12.5046 24.3846C12.4666 24.3547 12.4361 24.3189 12.4133 24.2771C12.3904 24.2352 12.3828 24.1934 12.3828 24.1456C12.3828 24.0978 12.398 24.056 12.4133 24.0142C12.4361 23.9723 12.4666 23.9365 12.5046 23.9066C12.5427 23.8767 12.5884 23.8468 12.6417 23.8289C12.6874 23.811 12.7483 23.799 12.8092 23.799C12.8397 23.799 12.8702 23.799 12.893 23.811C12.9235 23.811 12.9539 23.8289 12.9844 23.8468C13.0148 23.8648 13.0453 23.8887 13.0758 23.9126C13.1062 23.9365 13.1214 23.9723 13.1443 24.0201C13.1595 24.062 13.1671 24.1157 13.1671 24.1695H12.4742ZM12.8169 23.8588C12.7712 23.8588 12.7255 23.8707 12.6798 23.8827C12.6417 23.8946 12.6036 23.9185 12.5732 23.9424C12.5427 23.9723 12.5199 23.9962 12.5046 24.0321C12.4894 24.062 12.4818 24.0859 12.4742 24.1157H13.0834C13.0834 24.1157 13.0758 24.0679 13.0605 24.0261C13.0453 24.0022 13.0301 23.9723 13.0148 23.9544C12.992 23.9305 12.9768 23.9185 12.9615 23.9066C12.9463 23.8946 12.9235 23.8887 12.9006 23.8827C12.8778 23.8767 12.8625 23.8707 12.8549 23.8648C12.8397 23.8648 12.8321 23.8648 12.8169 23.8648H12.8092L12.8169 23.8588Z" fill="#727880"/>
<path d="M13.8606 23.9245C13.8606 23.9245 13.8453 23.9126 13.8301 23.9126C13.8149 23.9066 13.792 23.8947 13.754 23.8827C13.7159 23.8708 13.6778 23.8648 13.6474 23.8588C13.6169 23.8588 13.5712 23.8588 13.5331 23.8708C13.4951 23.8827 13.4646 23.8947 13.4341 23.9245C13.4113 23.9604 13.4113 23.9903 13.4189 24.0142C13.4418 24.0381 13.4646 24.056 13.5103 24.0679C13.5484 24.0799 13.5941 24.0918 13.6474 24.1038C13.693 24.1217 13.7387 24.1277 13.792 24.1456C13.8301 24.1576 13.8682 24.1815 13.8986 24.2054C13.9291 24.2352 13.9367 24.2651 13.9291 24.307C13.9291 24.3607 13.8986 24.4026 13.8606 24.4324C13.8149 24.4623 13.7768 24.4802 13.7159 24.4862C13.6626 24.4862 13.6017 24.4862 13.5484 24.4862C13.4951 24.4802 13.4418 24.4683 13.3961 24.4504C13.3504 24.4384 13.3199 24.4205 13.3047 24.4026L13.3428 24.3488C13.3428 24.3488 13.3656 24.3607 13.3885 24.3727C13.4113 24.3846 13.4418 24.3966 13.4951 24.4085C13.5484 24.4265 13.5941 24.4324 13.6397 24.4324C13.7083 24.4324 13.7616 24.4205 13.7997 24.3966C13.8301 24.3727 13.853 24.3368 13.853 24.295C13.853 24.2711 13.8377 24.2472 13.8073 24.2293C13.7768 24.2113 13.7463 24.1994 13.7083 24.1874C13.6702 24.1755 13.6245 24.1635 13.5636 24.1576C13.4874 24.1456 13.4189 24.1157 13.3808 24.0799C13.3428 24.0381 13.3275 23.9962 13.3504 23.9484C13.3656 23.9006 13.4113 23.8648 13.4722 23.8409C13.5255 23.817 13.5941 23.805 13.6626 23.817C13.7007 23.817 13.7463 23.8289 13.7844 23.8409C13.8225 23.8528 13.8606 23.8648 13.8834 23.8767L13.9139 23.8887L13.8758 23.9365L13.8606 23.9245Z" fill="#727880"/>
<path d="M14.6656 23.9305C14.6656 23.9305 14.6884 23.9007 14.7037 23.8887C14.7189 23.8768 14.7341 23.8588 14.757 23.8469C14.7798 23.8289 14.8103 23.823 14.8484 23.811C14.8864 23.7991 14.9245 23.7931 14.9702 23.7931C15.0235 23.7931 15.0768 23.805 15.1225 23.817C15.1682 23.8349 15.1986 23.8588 15.2215 23.8887C15.2519 23.9126 15.2672 23.9485 15.2824 23.9783C15.2976 24.0082 15.2976 24.0441 15.2976 24.0799V24.4683H15.2139V24.0799C15.2139 24.0799 15.2139 24.062 15.2139 24.0441C15.2139 24.0261 15.2062 24.0142 15.1986 23.9963C15.1986 23.9843 15.1834 23.9664 15.1758 23.9425C15.1606 23.9246 15.1453 23.9126 15.1301 23.9007C15.1149 23.8887 15.0844 23.8768 15.054 23.8648C15.0235 23.8529 14.993 23.8529 14.9473 23.8529C14.8179 23.8529 14.7265 23.9066 14.658 24.0142V24.4683H14.5742V23.5302H14.658V23.9305H14.6656Z" fill="#727880"/>
<path d="M15.6185 24.1695C15.6185 24.1695 15.6338 24.2233 15.6414 24.2532C15.6566 24.289 15.6871 24.3189 15.7099 24.3428C15.7404 24.3727 15.7784 24.3906 15.8165 24.4026C15.8622 24.4205 15.9079 24.4265 15.9536 24.4265C15.9993 24.4265 16.045 24.4145 16.0906 24.4026C16.1211 24.3966 16.1439 24.3846 16.1668 24.3667V24.4384C16.1668 24.4384 16.1363 24.4504 16.1211 24.4563C16.0678 24.4743 16.0069 24.4862 15.946 24.4862C15.885 24.4862 15.8317 24.4743 15.7708 24.4563C15.7175 24.4384 15.6794 24.4145 15.6338 24.3846C15.5957 24.3547 15.5652 24.3189 15.55 24.2771C15.5271 24.2352 15.5195 24.1934 15.5195 24.1456C15.5195 24.0978 15.5348 24.056 15.55 24.0142C15.5728 23.9723 15.5957 23.9365 15.6338 23.9066C15.6718 23.8767 15.7175 23.8468 15.7708 23.8289C15.8241 23.811 15.8774 23.799 15.946 23.799C15.9764 23.799 15.9993 23.799 16.0297 23.811C16.0602 23.811 16.083 23.8289 16.1211 23.8468C16.1592 23.8648 16.1896 23.8887 16.2125 23.9126C16.2353 23.9365 16.2582 23.9723 16.281 24.0201C16.2962 24.062 16.3039 24.1157 16.3039 24.1695H15.6109H15.6185ZM15.9536 23.8588C15.9079 23.8588 15.8622 23.8707 15.8165 23.8827C15.7708 23.8946 15.7404 23.9185 15.7099 23.9424C15.6794 23.9723 15.6566 23.9962 15.6414 24.0321C15.6261 24.062 15.6185 24.0859 15.6185 24.1157H16.2277C16.2277 24.1157 16.2201 24.0679 16.2049 24.0261C16.1972 24.0022 16.182 23.9723 16.1668 23.9544C16.1516 23.9305 16.1287 23.9185 16.1211 23.9066C16.1059 23.8946 16.083 23.8887 16.0602 23.8827C16.045 23.8767 16.0221 23.8707 16.0145 23.8648C16.0069 23.8648 15.9917 23.8648 15.9764 23.8648C15.9688 23.8648 15.9688 23.8648 15.9612 23.8648L15.9536 23.8588Z" fill="#727880"/>
<path d="M16.9733 23.8767C16.9733 23.8767 16.9352 23.8767 16.92 23.8767C16.8972 23.8767 16.8743 23.8767 16.8439 23.8946C16.8134 23.9066 16.7829 23.9185 16.7525 23.9365C16.7296 23.9544 16.6992 23.9843 16.6763 24.0142C16.6535 24.05 16.6306 24.0978 16.623 24.1456V24.4683H16.5469V23.811H16.623V23.9903C16.6687 23.9185 16.7296 23.8648 16.7905 23.8409C16.8515 23.817 16.9124 23.799 16.9733 23.799V23.8707V23.8767Z" fill="#727880"/>
<path d="M16.9974 24.1695C16.9974 24.1695 17.0127 24.2233 17.0279 24.2532C17.0431 24.289 17.066 24.3189 17.0964 24.3428C17.1269 24.3727 17.165 24.3906 17.203 24.4026C17.2411 24.4205 17.2868 24.4265 17.3325 24.4265C17.3858 24.4265 17.4315 24.4145 17.4772 24.4026C17.5 24.3966 17.5305 24.3846 17.5533 24.3667V24.4384C17.5533 24.4384 17.5229 24.4504 17.5076 24.4563C17.4543 24.4743 17.401 24.4862 17.3325 24.4862C17.2639 24.4862 17.2106 24.4743 17.1573 24.4563C17.1117 24.4384 17.0583 24.4145 17.0203 24.3846C16.9822 24.3547 16.9517 24.3189 16.9289 24.2771C16.9137 24.2352 16.8984 24.1934 16.8984 24.1456C16.8984 24.0978 16.9137 24.056 16.9289 24.0142C16.9517 23.9723 16.9822 23.9365 17.0203 23.9066C17.0583 23.8767 17.104 23.8468 17.1573 23.8289C17.2106 23.811 17.2639 23.799 17.3249 23.799C17.3553 23.799 17.3782 23.799 17.4162 23.811C17.4391 23.811 17.4695 23.8289 17.5076 23.8468C17.5381 23.8648 17.5685 23.8887 17.599 23.9126C17.6218 23.9365 17.6447 23.9723 17.6599 24.0201C17.6751 24.062 17.6828 24.1157 17.6828 24.1695H16.9898H16.9974ZM17.3325 23.8588C17.2792 23.8588 17.2411 23.8707 17.1954 23.8827C17.1573 23.8946 17.1193 23.9185 17.0888 23.9424C17.0583 23.9723 17.0355 23.9962 17.0203 24.0321C17.005 24.062 16.9974 24.0859 16.9898 24.1157H17.599C17.599 24.1157 17.599 24.0679 17.5762 24.0261C17.5609 24.0022 17.5533 23.9723 17.5305 23.9544C17.5152 23.9305 17.5 23.9185 17.4848 23.9066C17.4695 23.8946 17.4467 23.8887 17.4315 23.8827C17.4086 23.8767 17.3934 23.8707 17.3782 23.8648C17.3706 23.8648 17.3553 23.8648 17.3401 23.8648H17.3249L17.3325 23.8588Z" fill="#727880"/>
<path d="M33.0501 24.056L20.8359 24.0799V24.0142L33.0501 23.9903V24.056Z" fill="#727880"/>
<path d="M3.23828 19.2101H3.78655C3.93123 19.2101 4.05307 19.2519 4.15206 19.3296C4.25105 19.4073 4.30436 19.5029 4.30436 19.6164V19.8674H3.23828V19.2101ZM3.23828 20.1482H3.78655C3.93123 20.1482 4.05307 20.19 4.15206 20.2677C4.25105 20.3454 4.30436 20.447 4.30436 20.5545V23.339H3.23828V20.1482Z" fill="#1B73D4"/>
<path d="M8.0446 23.333H7.51156C7.35927 23.333 7.23743 23.2971 7.13844 23.2195C7.03944 23.1418 6.99375 23.0462 6.99375 22.9267V21.2954C6.99375 21.1042 6.91761 20.9608 6.77292 20.8771C6.62824 20.7875 6.46072 20.7457 6.27796 20.7457C6.09521 20.7457 5.92768 20.7875 5.79061 20.8771C5.64593 20.9668 5.5774 21.1042 5.5774 21.2954V23.333H4.49609V21.4627C4.49609 20.919 4.67885 20.5545 5.03675 20.3692C5.40226 20.184 5.79823 20.0824 6.23989 20.0705C6.68916 20.0705 7.10036 20.1601 7.4811 20.3453C7.86184 20.5306 8.0446 20.901 8.0446 21.4627V23.333Z" fill="#1B73D4"/>
<path d="M8.21074 23.333V20.0466C8.21074 19.7598 8.30973 19.5447 8.5001 19.3953C8.68286 19.2579 8.98745 19.1921 9.39865 19.1921C9.49764 19.1921 9.58141 19.1921 9.64233 19.2041C9.75655 19.2041 9.84031 19.2041 9.90123 19.216V19.8793H9.6271C9.48241 19.8793 9.38342 19.8972 9.3225 19.9271C9.2692 19.957 9.24635 20.0227 9.24635 20.1183V20.3334H9.90123V20.5127C9.90123 20.6322 9.84793 20.7338 9.74893 20.8055C9.64994 20.8832 9.5281 20.919 9.39865 20.919H9.24635V23.333H8.20312H8.21074Z" fill="#1B73D4"/>
<path d="M10.0779 19.2101H10.6262C10.7709 19.2101 10.8927 19.2519 10.9917 19.3296C11.0907 19.4073 11.144 19.5029 11.144 19.6164V19.8674H10.0703V19.2101H10.0779ZM10.0779 20.1482H10.6262C10.7709 20.1482 10.8927 20.19 10.9917 20.2677C11.0907 20.3454 11.144 20.447 11.144 20.5545V23.339H10.0703V20.1482H10.0779Z" fill="#1B73D4"/>
<path d="M14.8417 23.333H14.3086C14.1563 23.333 14.0269 23.2971 13.9355 23.2195C13.8365 23.1418 13.7908 23.0462 13.7908 22.9267V21.2954C13.7908 21.1042 13.7147 20.9608 13.57 20.8771C13.4253 20.7875 13.2578 20.7457 13.075 20.7457C12.8923 20.7457 12.7248 20.7875 12.5877 20.8771C12.443 20.9668 12.3745 21.1042 12.3745 21.2954V23.333H11.3008V21.4627C11.3008 20.919 11.4835 20.5545 11.8414 20.3692C12.1993 20.184 12.6029 20.0824 13.0446 20.0705C13.4938 20.0705 13.905 20.1601 14.2858 20.3453C14.6665 20.5306 14.8493 20.901 14.8493 21.4627V23.333H14.8417Z" fill="#1B73D4"/>
<path d="M15.1092 19.2101H15.6574C15.8021 19.2101 15.924 19.2519 16.023 19.3296C16.1219 19.4073 16.1753 19.5029 16.1753 19.6164V19.8674H15.1016V19.2101H15.1092ZM15.1092 20.1482H15.6574C15.8021 20.1482 15.924 20.19 16.023 20.2677C16.1219 20.3454 16.1753 20.447 16.1753 20.5545V23.339H15.1016V20.1482H15.1092Z" fill="#1B73D4"/>
<path d="M18.0344 23.3271C17.6994 23.345 17.3339 23.339 16.9379 23.3151C16.5419 23.2912 16.3516 23.094 16.3516 22.7295V19.1981H16.8998C17.0293 19.1981 17.1511 19.2399 17.2501 19.3176C17.3491 19.3953 17.4024 19.4909 17.4024 19.6044V20.1422H18.0268V20.3095C18.0268 20.429 17.9735 20.5306 17.8745 20.6023C17.7755 20.68 17.6537 20.7159 17.509 20.7159H17.4024V22.4905C17.4024 22.628 17.5014 22.6937 17.707 22.6937H18.0268V23.3151L18.0344 23.3271Z" fill="#1B73D4"/>
<path d="M18.7113 24.4564V23.7991H19.0007C19.2063 23.7991 19.3662 23.7633 19.4804 23.6856C19.5947 23.6079 19.6175 23.4884 19.549 23.3211L18.125 20.1422H19.3053L20.1277 22.4009L20.8435 20.435C20.9044 20.2438 21.0643 20.1482 21.3308 20.1482H22.0619L20.5008 23.7812C20.379 24.0441 20.2267 24.2353 20.0439 24.3429C19.8612 24.4385 19.5566 24.4863 19.1378 24.4863H18.9246C18.9246 24.4863 18.856 24.4743 18.8103 24.4684C18.7646 24.4684 18.7266 24.4684 18.6961 24.4684L18.7113 24.4564Z" fill="#1B73D4"/>
<path d="M24.7638 19.1921H25.2816C25.4263 19.1921 25.5481 19.234 25.6471 19.3176C25.7461 19.4013 25.7994 19.4969 25.7994 19.5985V21.9408C25.7994 22.5085 25.5938 22.8909 25.175 23.094C24.7562 23.2912 24.2993 23.3928 23.8119 23.3928C23.5454 23.3928 23.2865 23.3569 23.0352 23.2912C22.7839 23.2255 22.5783 23.112 22.426 22.9626C22.1291 22.6638 21.9844 22.2635 21.9844 21.7496C21.9844 21.2357 22.1291 20.8413 22.426 20.5366C22.7306 20.2259 23.1266 20.0705 23.6063 20.0705C23.8652 20.0705 24.0861 20.1123 24.2764 20.19C24.482 20.2856 24.6419 20.4111 24.7638 20.5605V19.1921ZM23.02 21.7137C23.02 22.0364 23.0961 22.2814 23.2484 22.4487C23.4007 22.616 23.6216 22.6997 23.9033 22.6997C24.1851 22.6997 24.3907 22.616 24.543 22.4487C24.6876 22.2814 24.7562 22.0364 24.7562 21.7137C24.7562 21.4269 24.68 21.1999 24.5277 21.0325C24.3678 20.8712 24.147 20.7935 23.8728 20.7935C23.5987 20.7935 23.4007 20.8772 23.2408 21.0445C23.0885 21.2058 23.0124 21.4269 23.0124 21.7137H23.02Z" fill="#76B639"/>
<path d="M29.5331 23.333H29C28.8477 23.333 28.7259 23.2971 28.6269 23.2195C28.5279 23.1418 28.4822 23.0462 28.4822 22.9267V21.2954C28.4822 21.1042 28.4061 20.9608 28.2614 20.8771C28.1167 20.7875 27.9492 20.7457 27.7664 20.7457C27.5837 20.7457 27.4162 20.7875 27.2791 20.8771C27.1344 20.9668 27.0659 21.1042 27.0659 21.2954V23.333H25.9922V21.4627C25.9922 20.919 26.1749 20.5545 26.5328 20.3692C26.8984 20.184 27.2943 20.0824 27.736 20.0705C28.1853 20.0705 28.5965 20.1601 28.9772 20.3453C29.3579 20.5306 29.5407 20.901 29.5407 21.4627V23.333H29.5331Z" fill="#76B639"/>
<path d="M32.3052 23.2016C32.092 23.2912 31.8636 23.345 31.6275 23.3629C31.3914 23.3809 31.1782 23.3928 30.9955 23.3928C30.63 23.3928 30.3025 23.3151 30.0284 23.1598C29.7543 23.0044 29.6172 22.7475 29.6172 22.383C29.6172 22.0484 29.739 21.8093 29.9903 21.66C30.2416 21.5166 30.5614 21.4209 30.9422 21.3731C30.9955 21.3731 31.0564 21.3672 31.1249 21.3552C31.1935 21.3433 31.2772 21.3313 31.3686 21.3253C31.8179 21.2775 32.0387 21.17 32.0387 21.0146C32.0387 20.8951 31.9626 20.8174 31.8026 20.7816C31.6427 20.7457 31.498 20.7278 31.3686 20.7278C31.2239 20.7278 31.0945 20.7457 30.9879 20.7756C30.8736 20.8055 30.7975 20.8652 30.7442 20.9549H29.7162C29.7543 20.7039 29.8989 20.5007 30.1426 20.3394C30.4167 20.1542 30.8127 20.0645 31.3229 20.0645C31.894 20.0645 32.3204 20.1422 32.6098 20.2916C32.9068 20.4529 33.0515 20.674 33.0515 20.9608V22.0543C33.0515 22.377 32.9753 22.622 32.8306 22.8072C32.686 22.9865 32.5108 23.1179 32.3052 23.1956V23.2016ZM32.0615 21.7257C31.9169 21.7795 31.7189 21.8332 31.4676 21.881L31.1173 21.9408C30.9346 21.9826 30.8051 22.0304 30.7213 22.0962C30.6528 22.1858 30.6147 22.2694 30.6147 22.3591C30.6147 22.4786 30.6604 22.5742 30.7518 22.6459C30.8432 22.7116 30.9726 22.7415 31.1478 22.7415C31.4295 22.7415 31.658 22.6758 31.8179 22.5503C31.9778 22.4248 32.0615 22.2455 32.0615 22.0245V21.7257Z" fill="#76B639"/>
<defs>
<radialGradient id="paint0_radial_3298_161" cx="0" cy="0" r="1" gradientUnits="userSpaceOnUse" gradientTransform="translate(40.3759 78.5456) rotate(-99.0447) scale(1.531 6.13865)">
<stop offset="0.06" stop-color="#272727"/>
<stop offset="0.23" stop-color="#5D5D5D"/>
<stop offset="0.42" stop-color="#969696"/>
<stop offset="0.6" stop-color="#C3C3C3"/>
<stop offset="0.75" stop-color="#E4E4E4"/>
<stop offset="0.88" stop-color="#F7F7F7"/>
<stop offset="0.97" stop-color="white"/>
</radialGradient>
<radialGradient id="paint1_radial_3298_161" cx="0" cy="0" r="1" gradientUnits="userSpaceOnUse" gradientTransform="translate(82.8765 61.7017) rotate(-139.117) scale(1.72486 5.04508)">
<stop offset="0.06" stop-color="#272727"/>
<stop offset="0.23" stop-color="#5D5D5D"/>
<stop offset="0.42" stop-color="#969696"/>
<stop offset="0.6" stop-color="#C3C3C3"/>
<stop offset="0.75" stop-color="#E4E4E4"/>
<stop offset="0.88" stop-color="#F7F7F7"/>
<stop offset="0.97" stop-color="white"/>
</radialGradient>
</defs>
</svg>
