<svg width="17" height="11" viewBox="0 0 17 11" fill="none" xmlns="http://www.w3.org/2000/svg">
<path d="M0.828125 1.67579C0.91838 1.48238 0.981934 1.27018 1.10491 1.09924C1.36138 0.742622 1.74797 0.621787 2.17932 0.621787C3.63543 0.621051 5.09192 0.621787 6.54803 0.621787C9.30042 0.621787 12.0528 0.621049 14.8048 0.622523C15.3625 0.622523 15.8131 0.827725 16.068 1.33318C16.1493 1.49417 16.1974 1.68905 16.1982 1.86847C16.2064 4.36919 16.206 6.86955 16.2019 9.37028C16.2008 10.0168 15.6589 10.5886 15.0072 10.6512C14.8582 10.6656 14.7082 10.6744 14.5585 10.6744C10.4752 10.6755 6.39159 10.67 2.3083 10.68C1.5355 10.6818 0.965012 10.2106 0.848808 9.58506C0.845424 9.567 0.83527 9.55006 0.828125 9.53274C0.828125 6.91376 0.828125 4.29514 0.828125 1.67616L0.828125 1.67579ZM8.50129 1.2606C6.47921 1.2606 4.4575 1.2606 2.43541 1.2606C2.3053 1.2606 2.1748 1.25765 2.04506 1.26318C1.75136 1.2757 1.51594 1.49306 1.48435 1.77857C1.4757 1.85631 1.47232 1.93515 1.47232 2.01325C1.47157 4.42114 1.47194 6.82866 1.47194 9.23654C1.47194 9.28075 1.47081 9.32496 1.47382 9.3688C1.50165 9.77515 1.78031 10.0367 2.19549 10.0367C6.39459 10.0375 10.5937 10.0378 14.7924 10.0367C15.255 10.0367 15.5573 9.73536 15.5596 9.27928C15.5611 8.9164 15.5596 8.55353 15.5596 8.19065C15.5596 6.12611 15.5596 4.06157 15.56 1.99704C15.56 1.80731 15.5427 1.62532 15.4028 1.47649C15.2497 1.31328 15.0579 1.25913 14.8368 1.25913C12.7248 1.26134 10.6129 1.2606 8.50054 1.26023L8.50129 1.2606Z" fill="black"/>
<path d="M8.82959 7.53226C10.4959 7.53226 12.1622 7.53226 13.8286 7.53226C13.8786 7.53226 13.929 7.52968 13.9786 7.53484C14.1531 7.55252 14.2783 7.68368 14.2791 7.84614C14.2799 8.00345 14.1674 8.1265 13.9952 8.15265C13.9361 8.1615 13.876 8.16444 13.8162 8.16444C10.4933 8.16481 7.17078 8.16481 3.84789 8.16444C3.7881 8.16444 3.72793 8.16076 3.66889 8.15155C3.50304 8.12576 3.38233 7.99092 3.38684 7.84098C3.39135 7.68883 3.51733 7.55584 3.68055 7.53631C3.7347 7.52968 3.79036 7.53263 3.84564 7.53263C5.50708 7.53263 7.16852 7.53263 8.82959 7.53263V7.53226Z" fill="black"/>
<path d="M12.6909 2.8241C13.091 2.8241 13.4908 2.82337 13.8909 2.8241C14.1651 2.82484 14.2828 2.94052 14.2828 3.20982C14.2835 3.99857 14.2835 4.78733 14.2828 5.57571C14.2828 5.84759 14.1602 5.96732 13.8793 5.96769C13.0794 5.9688 12.2795 5.9688 11.4796 5.96769C11.2043 5.96732 11.0761 5.84207 11.0753 5.57166C11.0738 4.7877 11.0738 4.0041 11.0753 3.22014C11.0757 2.94568 11.2002 2.82447 11.4762 2.82373C11.8812 2.82263 12.2863 2.82373 12.6913 2.82373L12.6909 2.8241ZM13.6318 3.46439H11.7353V5.31967H13.6318V3.46439Z" fill="black"/>
<path d="M5.30089 3.76566C4.78117 3.76566 4.26146 3.76824 3.74211 3.76456C3.4879 3.76309 3.32055 3.55494 3.41945 3.34789C3.45969 3.2639 3.56649 3.20238 3.656 3.15264C3.70639 3.12464 3.78273 3.1379 3.84779 3.1379C4.82216 3.13717 5.79654 3.13754 6.77092 3.1379C6.81604 3.1379 6.86117 3.1368 6.90555 3.14048C7.11313 3.15669 7.23799 3.28306 7.23009 3.46763C7.22257 3.64225 7.08982 3.76382 6.88975 3.76493C6.36026 3.76788 5.83039 3.76603 5.30089 3.76603V3.76566Z" fill="black"/>
<path d="M4.67175 6.28047C4.36677 6.28047 4.06178 6.28674 3.75717 6.27863C3.49167 6.27163 3.34125 6.08559 3.41195 5.86934C3.45895 5.72566 3.56763 5.65198 3.71505 5.65124C4.35473 5.64755 4.99441 5.64682 5.63409 5.65124C5.81686 5.65271 5.95187 5.79197 5.95676 5.95738C5.96127 6.11211 5.83642 6.24437 5.66042 6.27163C5.64086 6.27458 5.62093 6.27974 5.601 6.27974C5.29113 6.2801 4.98125 6.27974 4.67138 6.28047H4.67175Z" fill="black"/>
</svg>
