<svg width="15" height="12" viewBox="0 0 15 12" fill="none" xmlns="http://www.w3.org/2000/svg">
<path d="M0.128906 10.7946C0.128906 9.31469 0.128906 7.83481 0.128906 6.35493C0.310168 6.14973 0.436902 6.11326 0.615155 6.23557C0.86298 6.4054 1.13299 6.47245 1.43459 6.47135C2.94035 6.46582 4.4461 6.46877 5.95185 6.46877H6.12898C6.13198 6.53213 6.13612 6.58113 6.13649 6.63013C6.13725 6.86001 6.13349 7.0899 6.138 7.31941C6.14251 7.54009 6.25571 7.6495 6.47984 7.65024C7.05221 7.65245 7.62457 7.65245 8.19656 7.65024C8.41242 7.64914 8.52674 7.53972 8.53201 7.32752C8.53803 7.09321 8.53314 6.85891 8.53427 6.6246C8.53427 6.57634 8.54028 6.52771 8.54404 6.46914H8.72493C10.2352 6.46914 11.7458 6.46656 13.2561 6.47135C13.5483 6.47245 13.8115 6.40614 14.0477 6.23889C14.156 6.16226 14.2692 6.14347 14.3892 6.21089C14.5024 6.27462 14.5422 6.37372 14.5419 6.49935C14.5404 7.8687 14.5407 9.23806 14.5407 10.6074C14.5407 10.8542 14.464 11.0775 14.317 11.2761C14.0496 11.6375 13.6784 11.7734 13.232 11.773C9.30106 11.7701 5.37008 11.7712 1.43948 11.7708C1.37405 11.7708 1.30824 11.7683 1.2428 11.7635C0.74076 11.7277 0.329724 11.4058 0.180051 10.9335C0.165009 10.8863 0.146205 10.8406 0.129283 10.7946H0.128906Z" fill="black"/>
<path d="M0.128906 4.8931C0.128906 4.17619 0.128906 3.45927 0.128906 2.74199C0.135299 2.73536 0.144702 2.72984 0.147334 2.7221C0.351536 2.05639 0.747904 1.76535 1.45302 1.76535C2.35369 1.76535 3.25398 1.76535 4.15465 1.76535C4.2088 1.76535 4.26333 1.76535 4.32764 1.76535C4.32764 1.57489 4.32237 1.40505 4.32952 1.23596C4.33478 1.1177 4.34381 0.996494 4.37389 0.882658C4.52018 0.332262 4.98499 0.00180379 5.61038 0.00106698C6.75963 -0.00077504 7.9085 -3.82321e-05 9.05775 0.00180379C9.16944 0.00180379 9.28451 0.00659304 9.39282 0.0305393C9.95352 0.15506 10.3303 0.612986 10.3424 1.17812C10.3465 1.36932 10.3431 1.56089 10.3431 1.76535C10.4217 1.76535 10.4815 1.76535 10.5417 1.76535C11.4939 1.7672 12.4461 1.75246 13.3975 1.77604C14.068 1.79262 14.5396 2.30875 14.5407 2.96672C14.5419 3.53185 14.5415 4.09698 14.5407 4.66211C14.54 5.38161 14.0282 5.88485 13.2952 5.88485C11.7616 5.88558 10.228 5.88485 8.69409 5.88485H8.53314C8.53314 5.78538 8.53615 5.70286 8.53239 5.6207C8.52298 5.40408 8.41731 5.3035 8.19656 5.30277C7.61968 5.30166 7.0428 5.30129 6.46593 5.30277C6.25383 5.3035 6.14778 5.40518 6.13762 5.6137C6.13349 5.69954 6.13687 5.78538 6.13687 5.87674C6.08874 5.88006 6.05677 5.88411 6.02481 5.88411C4.44911 5.88411 2.87303 5.88558 1.29733 5.883C0.823116 5.88227 0.385757 5.57833 0.212392 5.13883C0.180427 5.05815 0.156359 4.97452 0.128906 4.892V4.8931ZM5.53893 1.7543H9.13033V1.18991H5.53893V1.7543Z" fill="black"/>
</svg>
