<svg width="7" height="10" viewBox="0 0 7 10" fill="none" xmlns="http://www.w3.org/2000/svg">
<path d="M2.96664 9.99981C2.79012 9.92409 2.61951 9.83971 2.51794 9.6616C2.4946 9.62057 2.47554 9.57721 2.44727 9.52051H3.79798C3.7227 9.72363 3.59154 9.85672 3.40746 9.94177C3.36571 9.96112 3.32363 9.98046 3.28189 9.99981H2.96697H2.96664Z" fill="#FFCB05"/>
<path d="M4.56643 7.55832H1.69375C1.68224 7.33951 1.68126 7.12671 1.65759 6.91658C1.59678 6.37424 1.38114 5.89928 1.00475 5.5107C0.543557 5.0344 0.218782 4.48873 0.0725017 3.83065C-0.308156 2.11658 0.852554 0.345136 2.55927 0.0489507C4.25349 -0.245233 5.82083 0.812428 6.1765 2.52617C6.38984 3.55348 6.13771 4.48373 5.44872 5.27322C5.15484 5.6101 4.84058 5.93263 4.71534 6.37691C4.64138 6.63874 4.60851 6.91325 4.56939 7.18408C4.55263 7.30149 4.56643 7.42323 4.56643 7.55832Z" fill="#FFCB05"/>
<path d="M1.91984 8.05518H4.32607C4.32607 8.305 4.33494 8.54848 4.32311 8.79097C4.31522 8.95074 4.20543 9.02712 4.01608 9.02845C3.6752 9.03079 3.33432 9.02912 2.99343 9.02912C2.73999 9.02912 2.48622 9.03112 2.23278 9.02845C2.01319 9.02578 1.92181 8.93172 1.92016 8.71159C1.91852 8.49845 1.92016 8.28565 1.92016 8.05551L1.91984 8.05518Z" fill="#FFCB05"/>
</svg>
