<svg width="47" height="47" viewBox="0 0 47 47" fill="none" xmlns="http://www.w3.org/2000/svg">
<path d="M16.4207 31.7787C16.4329 29.0098 16.4256 26.242 16.4256 23.473C16.4256 20.72 16.4329 17.9657 16.4207 15.2127C16.417 14.5125 16.6217 13.9422 17.2137 13.5768C16.8239 13.3168 16.4342 13.0569 16.0444 12.7969V34.1982C16.4354 33.937 16.8251 33.6783 17.2149 33.4171C16.6217 33.0516 16.417 32.479 16.4207 31.7787Z" fill="white"/>
<path d="M46.6662 19.6421C45.7507 14.3286 43.3142 9.82192 39.347 6.17123C36.0085 3.09935 32.0927 1.15199 27.6168 0.362257C26.7932 0.216328 25.9623 0.118224 25.135 -0.00195312H21.832C21.0194 0.116998 20.2044 0.216328 19.3955 0.359805C13.8828 1.3433 9.30398 3.98351 5.64926 8.21056C2.64778 11.6834 0.865768 15.7229 0.202721 20.2614C0.125509 20.7875 0.0654546 21.3172 -0.00195312 21.8445V25.1494C0.0568754 25.5553 0.123057 25.9612 0.172081 26.3684C0.719922 30.9008 2.39653 34.9843 5.37105 38.429C11.526 45.5562 19.3171 48.3044 28.5495 46.4232C40.6571 43.9571 48.773 31.856 46.6675 19.6421H46.6662ZM35.0684 25.7442C28.9098 29.8572 22.7439 33.9616 16.5889 38.0807C15.6844 38.6865 14.7652 38.9207 13.7713 38.3738C12.7871 37.833 12.455 36.9489 12.4599 35.8538C12.4783 31.7236 12.4672 27.5922 12.4672 23.462C12.4672 19.3539 12.4783 15.2458 12.4599 11.1377C12.455 10.0427 12.7896 9.16094 13.7737 8.61892C14.7689 8.07199 15.6869 8.30989 16.5901 8.91446C22.7451 13.0336 28.911 17.1368 35.0697 21.251C36.9558 22.5104 36.9546 24.4835 35.0697 25.7429L35.0684 25.7442Z" fill="white"/>
<path d="M35.0708 21.2507C28.9121 17.1365 22.7462 13.0333 16.5912 8.91419C15.688 8.30963 14.77 8.0705 13.7748 8.61865C12.7907 9.15945 12.4561 10.0424 12.461 11.1375C12.4794 15.2456 12.4683 19.3537 12.4683 23.4618C12.4683 27.5932 12.4794 31.7233 12.461 35.8535C12.4561 36.9474 12.7882 37.8327 13.7724 38.3735C14.7663 38.9205 15.6855 38.685 16.59 38.0805C22.745 33.9613 28.9109 29.8581 35.0695 25.7439C36.9557 24.4845 36.9569 22.5114 35.0695 21.252L35.0708 21.2507ZM31.5754 25.002C27.4476 27.7587 23.3149 30.5093 19.1895 33.2709C18.5828 33.6768 17.9676 33.8338 17.3009 33.4671C17.2714 33.4512 17.2433 33.434 17.2163 33.4168C16.8266 33.6768 16.4368 33.9368 16.0459 34.198V12.7967C16.4356 13.0566 16.8253 13.3166 17.2151 13.5766C17.2433 13.5594 17.2714 13.541 17.3021 13.5251C17.9688 13.1584 18.5841 13.3178 19.1895 13.7237C23.3149 16.4854 27.4476 19.2347 31.5754 21.9927C32.8389 22.8364 32.8389 24.1595 31.5754 25.0032V25.002Z" fill="white"/>
</svg>
