<?xml version="1.0" encoding="utf-8"?>
<!-- Generator: Adobe Illustrator 27.5.0, SVG Export Plug-In . SVG Version: 6.00 Build 0)  -->
<svg version="1.1" xmlns="http://www.w3.org/2000/svg" xmlns:xlink="http://www.w3.org/1999/xlink" x="0px" y="0px"
	 viewBox="0 0 500 500" style="enable-background:new 0 0 500 500;" xml:space="preserve">
<g id="BACKGROUND">
	<rect style="fill:#FFFFFF;" width="500" height="500"/>
</g>
<g id="OBJECTS">
	<g>
		<path d="M339.949,208.059c1.086-0.657,1.5-1.468,2.057-2.141c4.321-5.223,8.915-10.167,14.427-14.175
			c3.008-2.187,6.186-4.077,9.782-5.136c3.73-1.099,6.734-0.112,8.706,2.83c1.62,2.417,1.839,4.936,0.354,7.504
			c-1.652,2.858-4.049,4.975-6.809,6.71c-2.742,1.724-5.738,2.892-8.767,3.992c-0.971,0.353-2.025,0.511-2.753,1.013
			c-0.379,0.381-0.18,0.599-0.04,0.759c4.176,4.773,5.25,10.35,4.291,16.46c-0.515,3.279-1.494,6.425-2.808,9.462
			c-1.885,4.356-3.835,8.684-5.728,13.036c-0.771,1.773-1.486,3.581-1.467,5.559c0.017,1.717,0.488,2.041,2.06,1.371
			c2.252-0.959,4.152-2.476,5.897-4.144c3.141-3.001,6.224-6.065,9.278-9.156c7.581-7.671,15.06-15.439,22.294-23.439
			c1.347-1.49,2.578-3.085,3.852-4.641c1.008-1.232,1.765-1.387,3.101-0.601c1.496,0.88,1.966,2.016,1.356,3.379
			c-0.532,1.189-1.364,2.181-2.2,3.16c-7.846,9.181-16.177,17.917-24.512,26.648c-3.057,3.202-6.157,6.362-9.535,9.233
			c-1.536,1.305-3.137,2.517-4.956,3.414c-6.651,3.28-13.97-0.244-15.539-7.474c-0.798-3.678-0.679-7.357-0.027-11.031
			c0.607-3.419,1.722-6.694,2.906-9.949c1.43-3.931,2.941-7.839,3.886-11.925c0.361-1.563,0.641-3.157,0.805-4.752
			c0.228-2.215,0.114-4.379-2.081-5.864c-1.548,1.317-2.615,3.136-3.778,4.841c-2.947,4.319-5.77,8.723-8.66,13.08
			c-0.934,1.408-1.865,2.823-2.899,4.156c-2.703,3.482-7.457,3.226-9.879-0.499c-0.304-0.467-0.532-0.984-0.801-1.488
			c-0.874,0.141-1.09,0.915-1.491,1.455c-2.4,3.229-4.722,6.517-7.16,9.717c-1.855,2.435-3.877,4.739-6.413,6.513
			c-2.513,1.758-5.182,2.095-7.974,0.709c-2.091-1.038-3.348-2.709-3.652-5.052c-0.294-2.269,0.038-4.494,0.479-6.71
			c1.391-6.994,3.998-13.563,6.967-20.009c3.841-8.341,8.253-16.38,12.801-24.349c2.11-3.696,4.146-7.434,5.979-11.442
			c-0.885-0.234-1.334,0.295-1.815,0.606c-4.138,2.683-7.819,5.924-11.335,9.361c-9.203,8.995-16.944,19.143-23.74,30.043
			c-2.426,3.891-4.802,7.819-7.534,11.51c-0.86,1.162-1.779,2.289-2.754,3.356c-1.813,1.983-4.015,2.563-6.569,1.605
			c-2.616-0.981-4.036-2.854-4.089-5.661c-0.029-1.518,0.08-3.037,0.132-4.706c-0.939,0.203-1.071,0.994-1.384,1.536
			c-3.46,5.992-6.847,12.027-10.347,17.996c-1.504,2.565-3.207,5.014-4.859,7.49c-0.489,0.733-1.108,1.378-1.669,2.063
			c-4.65,5.672-12.706,2.68-14.813-2.669c-1.048-2.66-1.387-5.436-1.336-8.284c0.087-4.865,1.04-9.585,2.269-14.266
			c0.118-0.447,0.421-0.891,0.137-1.487c-0.707,0.285-0.965,0.976-1.363,1.505c-1.744,2.316-3.503,4.619-5.564,6.667
			c-0.683,0.678-1.414,1.321-2.186,1.895c-5.797,4.308-12.923,2.721-16.44-3.622c-0.296-0.533-0.34-1.249-1.115-1.643
			c-0.685,0.576-0.924,1.441-1.275,2.205c-3.124,6.798-6.201,13.618-9.343,20.408c-1.285,2.776-2.75,5.466-4.521,7.97
			c-0.695,0.983-1.458,1.925-2.258,2.824c-1.691,1.899-3.787,2.673-6.302,2.035c-2.658-0.675-4.334-2.398-5.036-5.015
			c-0.439-1.636-0.531-3.331-0.569-5.027c-0.205-9.186,1.29-18.101,4.123-26.825c1.767-5.443,3.912-10.728,6.208-15.963
			c1.324-3.019,2.513-6.098,3.728-9.164c0.194-0.489,0.594-0.992,0.144-1.782c-1.312,0.551-2.403,1.449-3.473,2.359
			c-3.037,2.582-5.435,5.708-7.525,9.069c-3.576,5.75-6.705,11.73-9.153,18.059c-0.899,2.324-1.851,4.635-2.92,6.884
			c-0.921,1.938-2.133,2.365-4.16,1.71c-2.189-0.707-3.563-2.132-3.795-4.492c-0.099-1.009-0.14-2.024-0.211-3.092
			c-0.974,0.209-1.028,0.946-1.299,1.465c-2.835,5.417-5.6,10.873-8.482,16.265c-2.014,3.769-4.374,7.322-7.228,10.525
			c-1.779,1.996-3.749,3.76-6.124,5.029c-6.494,3.47-13.681,1.231-17.027-5.316c-1.333-2.607-2.072-5.396-2.469-8.287
			c-1.358-9.889-0.126-19.591,2.206-29.19c3.344-13.762,8.851-26.701,15.226-39.294c1.054-2.082,2.165-4.134,3.236-6.207
			c0.358-0.693,0.846-1.348,0.901-2.295c-2.597-0.577-5.152-0.705-7.682-0.982c-7.036-0.772-14.072-1.574-21.17-1.512
			c-8.062,0.07-15.826,1.614-23.268,4.71c-1.405,0.584-2.775,1.298-4.06,2.112c-2.745,1.739-5.244,3.762-6.525,6.894
			c-0.404,0.988-1.053,1.108-1.929,0.754c-2.026-0.818-2.571-2.349-1.429-4.256c1.862-3.112,4.492-5.443,7.61-7.245
			c3.512-2.03,7.327-3.281,11.209-4.371c8.726-2.45,17.615-2.782,26.573-1.982c6.89,0.615,13.772,1.326,20.648,2.079
			c1.635,0.179,2.603-0.177,3.439-1.745c3.484-6.53,7.127-12.975,10.72-19.447c0.726-1.308,1.2-2.425,0.034-3.925
			c-1.029-1.324-0.113-2.555,1.599-2.344c2.75,0.339,4.439,2.151,5.563,4.496c1.117,2.331,1.137,4.831,0.69,7.333
			c-0.883,4.941-2.667,9.598-4.518,14.235c-0.319,0.799-0.897,1.539-0.738,2.62c2.828,0.549,5.716,0.407,8.573,0.454
			c3.295,0.055,6.594-0.215,9.892-0.233c1.736-0.01,2.706-0.708,3.498-2.291c4.796-9.594,10.244-18.793,17.04-27.136
			c3.666-4.501,7.648-8.704,11.972-12.578c1.741-1.559,3.562-3.023,5.643-4.115c3.846-2.017,7.23-1.164,9.634,2.45
			c2.38,3.579,2.561,7.614,1.956,11.641c-1.739,11.574-7.846,20.411-17.451,26.907c-4.432,2.997-9.288,5.143-14.451,6.53
			c-1.554,0.417-2.412,1.235-3.054,2.687c-4.168,9.432-7.724,19.088-10.845,28.909c-0.117,0.368-0.357,0.728-0.093,1.284
			c0.745-0.355,1.085-1.077,1.547-1.657c2.264-2.847,4.759-5.463,7.717-7.598c5.452-3.934,11.049-2.416,13.841,3.736
			c1.087,2.396,1.506,4.887,1.206,7.526c-0.504,4.441-1.835,8.66-3.454,12.779c-3.355,8.536-6.392,17.194-9.968,25.644
			c-1.129,2.669-2.098,5.401-2.763,8.228c-0.155,0.659-0.223,1.339-0.423,2.581c1.396-1.505,2.069-2.772,2.779-4.003
			c2.982-5.167,5.323-10.648,7.825-16.049c3.147-6.792,6.482-13.489,9.972-20.109c0.904-1.714,1.678-3.471,2.334-5.292
			c2.206-6.118,5.335-11.706,9.693-16.564c3.542-3.948,7.665-7.119,12.641-9.051c6.622-2.571,13.386-0.605,16.639,5.16
			c0.061,0.109,0.261,0.14,0.589,0.304c0.642-0.947,1.288-1.937,1.972-2.899c1.118-1.573,2.183-3.193,3.414-4.674
			c1.41-1.697,2.492-1.815,4.453-0.779c2.857,1.508,4.161,3.923,4.075,7.105c-0.06,2.207-0.777,4.267-1.605,6.281
			c-3.028,7.367-6.069,14.729-9.121,22.086c-2.779,6.699-5.226,13.506-6.761,20.611c-0.183,0.848-0.545,1.685-0.367,2.626
			c0.968-0.309,1.263-1.207,1.748-1.893c5.669-8.029,10.528-16.568,15.672-24.927c2.151-3.495,4.303-6.989,6.504-10.453
			c1.813-2.854,3.582-5.722,5.1-8.752c2.204-4.402,4.889-8.511,7.968-12.354c1.361-1.698,2.858-3.257,4.582-4.611
			c4.086-3.207,9.401,1.348,9.827,4.588c0.156,1.189-0.496,2.176-1.071,3.14c-2.269,3.8-4.604,7.56-6.833,11.383
			c-3.405,5.839-6.58,11.801-9.466,18.166c1.143-0.286,1.402-1.17,1.834-1.807c4.786-7.066,9.726-14.02,15.202-20.572
			c6.253-7.481,12.812-14.669,20.414-20.831c1.938-1.571,3.883-3.137,6.072-4.356c3.148-1.752,5.474-1.468,8.116,0.993
			c2.988,2.783,3.721,6.318,3.155,10.167c-0.687,4.665-2.456,9.001-4.56,13.177c-4.454,8.84-9.368,17.435-14.142,26.104
			c-2.484,4.511-5.014,8.998-7.182,13.674c-0.393,0.847-0.722,1.724-1.129,2.704c0.999,0.011,1.308-0.614,1.716-1.032
			c2.538-2.595,4.742-5.473,6.933-8.356c3.019-3.973,5.965-8,8.962-11.989c0.785-1.044,1.326-2.168,1.695-3.43
			c5.603-19.129,12.99-37.544,22.201-55.225c0.324-0.623,0.83-1.194,0.787-1.905c-0.107-0.351-0.355-0.408-0.586-0.406
			c-9.374,0.057-18.592-1.413-27.817-2.824c-9.941-1.521-19.888-2.976-29.957-3.378c-13.804-0.55-27.137,1.266-39.569,7.722
			c-2.719,1.412-5.366,2.946-7.693,4.956c-1.334,1.152-2.71,2.306-3.184,4.14c-0.29,1.119-1.107,1.253-2.076,1.07
			c-2.789-0.526-3.65-2.738-1.885-4.934c1.577-1.961,3.507-3.548,5.584-4.945c8.2-5.519,17.207-9.013,26.945-10.647
			c10.486-1.759,21.001-1.426,31.523-0.401c10.731,1.046,21.346,2.994,32.061,4.157c5.845,0.635,11.704,0.908,17.59,0.591
			c1.542-0.083,2.443-0.618,3.227-1.971c4.929-8.521,10.572-16.542,17.19-23.849c4.443-4.907,9.271-9.386,14.762-13.119
			c2.537-1.725,5.186-3.235,8.079-4.284c6.215-2.253,11.134,0.599,12.29,7.156c0.739,4.19-0.008,8.163-1.878,11.953
			c-2.537,5.142-6.197,9.38-10.557,13.04c-7.138,5.992-15.298,10.076-24.212,12.645c-1.997,0.575-3.279,1.529-4.284,3.384
			c-8.758,16.168-15.946,33.027-22.332,50.245C340.093,207.271,340.07,207.504,339.949,208.059z M172.673,179.123
			c-6.54,0.3-12.951-0.021-19.357-0.464c-1.178-0.081-1.498,0.668-1.874,1.493c-4.776,10.465-9.761,20.838-14.014,31.534
			c-4.082,10.263-7.353,20.774-9.296,31.668c-0.864,4.844-1.417,9.713-0.885,14.646c0.165,1.529,0.449,3.027,1.045,4.448
			c0.912,2.172,1.361,2.329,3.378,1.201c2.137-1.195,3.877-2.859,5.468-4.691c2.651-3.052,4.844-6.427,6.824-9.932
			c5.504-9.74,10.565-19.71,15.35-29.822c0.517-1.092,0.959-2.206,1.232-3.393c2.735-11.875,6.758-23.319,11.569-34.499
			C172.363,180.732,172.759,180.193,172.673,179.123z M191.869,170.567c0.25,0.239,0.491,0.124,0.706,0.041
			c7.655-2.962,14.307-7.33,19.285-13.968c4.205-5.607,6.823-11.831,6.904-18.943c0.016-1.416,0.288-3.325-1.038-3.989
			c-1.532-0.767-2.765,0.836-3.883,1.809c-2.503,2.182-4.488,4.831-6.4,7.521c-5.843,8.22-10.74,16.995-15.184,26.032
			C192.033,169.531,191.546,169.98,191.869,170.567z M216.886,232.443c0.541,0.057,0.894-0.309,1.266-0.596
			c1.787-1.383,3.358-2.993,4.826-4.702c6.446-7.503,12.407-15.379,18.004-23.532c0.27-0.393,0.647-0.817,0.679-1.249
			c0.13-1.753,0.282-3.524,0.17-5.272c-0.188-2.936-1.482-3.594-4.199-2.294c-2.059,0.985-3.759,2.464-5.36,4.049
			c-9.055,8.962-13.519,20.134-15.57,32.459C216.639,231.693,216.608,232.098,216.886,232.443z M368.629,146.996
			c0.421,0.261,0.798,0.027,1.148-0.119c7.786-3.244,14.863-7.578,20.762-13.678c3.211-3.321,5.811-7.062,7.447-11.418
			c0.654-1.741,1.066-3.542,1.005-5.411c-0.042-1.276-0.404-1.559-1.657-1.362c-1.625,0.256-3.009,1.095-4.349,1.98
			c-3.039,2.008-5.59,4.566-7.986,7.279c-5.86,6.634-11.074,13.75-15.766,21.251C368.955,145.964,368.459,146.355,368.629,146.996z
			 M349.958,205.612c5.921-1.727,11.665-3.737,16.582-7.537c1.473-1.139,2.755-2.468,3.836-3.986
			c0.517-0.725,0.951-1.499,1.17-2.367c0.227-0.9-0.073-1.385-1.082-1.327c-1.148,0.066-2.215,0.433-3.245,0.882
			C360.102,194.379,354.76,199.646,349.958,205.612z"/>
		<path d="M200.855,294.057c-3.553,3.685-6.711,7-9.913,10.273c-3.604,3.684-7.411,7.15-11.431,10.378
			c-1.443,1.159-2.914,2.284-4.533,3.192c-5.007,2.808-10.769,1.428-14.02-3.337c-1.399-2.05-2.091-4.326-2.212-6.793
			c-0.201-4.091,0.443-8.057,2.198-11.745c2.855-6.004,6.6-11.414,11.42-16.035c1.635-1.568,3.429-2.92,5.543-3.796
			c2.83-1.173,5.998,0.069,7.293,2.841c0.56,1.199,0.455,2.299-0.251,3.425c-1.879,2.999-3.661,6.06-5.567,9.042
			c-3.313,5.183-5.688,10.81-7.937,16.499c-0.313,0.792-0.716,1.602-0.483,2.669c1.186-0.134,2.06-0.861,2.973-1.432
			c4.517-2.826,8.637-6.175,12.533-9.793c7.437-6.906,14.214-14.454,21.123-21.871c0.839-0.901,1.368-1.979,1.871-3.078
			c1.174-2.563,2.45-5.072,4.004-7.429c1.068-1.618,2.256-3.14,3.839-4.298c1.354-0.989,2.836-1.197,4.31-0.375
			c3.234,1.802,6.663,5.955,4.552,10.938c-6.681,15.774-11.924,32.126-19.195,47.662c-1.324,2.83-2.69,5.641-4.11,8.612
			c0.959,0.448,1.821,0.171,2.638,0.07c20.691-2.537,41.468-4.173,62.238-5.88c6.255-0.514,12.518-0.928,18.782-1.328
			c1.681-0.107,3.376-0.03,5.063,0.028c1.589,0.055,2.704,0.986,3.527,2.237c0.878,1.335,0.471,2.133-1.11,2.231
			c-1.444,0.089-2.9-0.001-4.34,0.115c-20.29,1.646-40.588,3.206-60.844,5.263c-8.965,0.911-17.932,1.801-26.886,2.828
			c-1.655,0.19-2.526,0.855-3.294,2.262c-10.096,18.49-21.705,35.943-35.77,51.687c-6.449,7.219-13.317,13.992-21.471,19.316
			c-5.646,3.686-11.659,6.504-18.441,7.33c-15.458,1.883-27.323-8.256-30.092-21.219c-1.491-6.98,0.168-13.429,3.353-19.567
			c4.359-8.401,10.834-14.929,18.525-20.309c10.007-7.002,21.147-11.512,32.832-14.798c11.404-3.206,23.053-5.227,34.734-7.069
			c1.32-0.208,2.138-0.64,2.737-1.907c5.532-11.715,10.679-23.596,15.547-35.6C200.678,295.088,200.69,294.851,200.855,294.057z
			 M180.915,338.227c-0.854-0.142-1.644,0.045-2.43,0.189c-5.14,0.941-10.296,1.804-15.411,2.865
			c-10.175,2.11-20.146,4.92-29.622,9.267c-9.747,4.472-18.621,10.178-25.613,18.473c-3.933,4.666-7.002,9.803-8.509,15.787
			c-1.64,6.513-0.728,12.622,2.961,18.241c4.2,6.397,10.275,8.751,17.749,7.102c5.786-1.276,10.773-4.123,15.437-7.634
			c6.93-5.218,12.717-11.572,18.068-18.342c10.932-13.831,19.43-29.147,27.268-44.861
			C180.954,339.033,181.147,338.754,180.915,338.227z"/>
		<path d="M236.782,310.433c2.759-0.754,4.748-2.252,6.655-3.843c6.008-5.011,10.587-11.21,14.634-17.833
			c1.926-3.152,3.653-6.409,5.058-9.778c-0.625-0.723-1.396-0.717-2.039-0.987c-4.332-1.819-7.07-4.92-7.801-9.651
			c-0.689-4.457-0.018-8.683,2.336-12.546c3.015-4.947,7.992-5.724,12.522-2.081c4.289,3.449,5.176,8.134,4.802,13.245
			c-0.14,1.916-0.503,3.816-0.77,5.766c0.775,0.539,1.559,0.166,2.288-0.015c2.106-0.523,4.185-1.157,6.289-1.687
			c1.333-0.336,2.235-1.061,2.915-2.284c0.858-1.541,1.89-2.991,2.92-4.429c0.986-1.376,2.138-2.621,3.443-3.706
			c3.884-3.229,9.408-1.245,10.357,3.719c0.255,1.335-0.25,2.544-0.757,3.725c-1.24,2.891-2.874,5.576-4.442,8.293
			c-3.465,6.004-6.599,12.163-8.753,18.777c-0.324,0.993-0.602,2.002-0.877,3.01c-0.06,0.218-0.015,0.464-0.02,0.851
			c0.625,0.078,1.052-0.296,1.481-0.564c5.601-3.505,10.096-8.196,14.195-13.305c0.299-0.372,0.521-0.813,0.735-1.244
			c4.33-8.691,10.073-16.456,15.883-24.173c1.307-1.736,2.74-3.381,4.418-4.776c1.991-1.655,3.339-1.634,5.393-0.027
			c2.669,2.088,3.684,4.759,2.961,8.1c-0.533,2.462-1.516,4.745-2.625,6.982c-3.116,6.286-6.999,12.12-10.688,18.067
			c-2.97,4.787-5.934,9.576-8.376,14.664c-0.652,1.359-1.286,2.73-1.521,4.606c1.858-0.609,3.231-1.52,4.559-2.502
			c5.395-3.987,10.212-8.597,14.623-13.64c1.325-1.514,2.633-3.043,3.968-4.548c1.734-1.955,4.081-1.727,5.549,0.459
			c0.665,0.991,0.134,1.649-0.434,2.353c-4.554,5.639-9.204,11.192-14.751,15.908c-1.838,1.563-3.705,3.096-5.615,4.57
			c-1.014,0.783-2.121,1.454-3.231,2.1c-5.956,3.47-12.18,0.079-14.008-5.836c-0.647-2.094-0.831-4.248-0.638-6.391
			c-0.829-0.41-1.099,0.271-1.471,0.579c-1.922,1.591-3.893,3.102-5.969,4.497c-6.469,4.346-14.126-0.63-14.446-7.445
			c-0.18-3.823,0.405-7.535,1.181-11.243c0.643-3.071,1.735-6.011,2.743-9.144c-1.76-0.19-3.211,0.733-4.768,0.756
			c-3.246,0.049-4.646,1.838-5.856,4.763c-4.505,10.884-10.784,20.662-19.458,28.765c-1.885,1.761-3.924,3.338-6.203,4.57
			c-5.592,3.025-11.853,1.565-15.617-3.597c-3.011-4.13-3.848-8.865-3.405-13.764c1.019-11.258,5.789-20.813,13.787-28.758
			c1.603-1.592,3.444-2.901,5.6-3.699c3.296-1.22,7.012,0.191,8.697,3.263c0.723,1.318,0.829,2.568-0.047,3.847
			c-1.227,1.792-2.417,3.611-3.662,5.39c-4.985,7.123-8.712,14.832-10.853,23.276C236.986,304.553,236.346,307.287,236.782,310.433z
			 M258.602,267.952c0.225,4.736,1.354,5.993,4.714,6.184c1.133,0.064,1.766-0.225,2.098-1.402c0.786-2.786,1.463-5.59,1.717-8.475
			c0.155-1.759,0.213-3.532-0.26-5.264c-0.424-1.55-1.121-1.957-2.658-1.585c-1.326,0.321-2.264,1.187-3.019,2.254
			C259.269,262.388,258.54,265.461,258.602,267.952z"/>
	</g>
</g>
<g id="DESIGNED_BY_FREEPIK">
	<g>
		<g>
			<path d="M175.869,475.58c-0.14-0.17-0.34-0.25-0.61-0.25c-0.27,0-0.47,0.09-0.62,0.27c-0.14,0.19-0.21,0.46-0.21,0.82v2.6
				c-0.33-0.359-0.67-0.63-1.02-0.81c-0.35-0.17-0.77-0.26-1.28-0.26c-0.87,0-1.58,0.31-2.12,0.92c-0.53,0.62-0.8,1.47-0.8,2.57
				c0,0.52,0.07,1,0.2,1.449c0.14,0.45,0.33,0.841,0.6,1.17c0.26,0.33,0.57,0.58,0.93,0.761c0.35,0.18,0.74,0.27,1.16,0.27
				c0.32,0,0.62-0.05,0.88-0.14c0.27-0.08,0.52-0.21,0.75-0.38c0.23-0.17,0.46-0.391,0.7-0.66v0.17c0,0.32,0.08,0.57,0.23,0.75
				c0.16,0.17,0.36,0.26,0.6,0.26c0.24,0,0.44-0.09,0.6-0.25c0.15-0.17,0.23-0.42,0.23-0.76v-7.75
				C176.089,476,176.019,475.75,175.869,475.58z M174.099,482.75c-0.15,0.33-0.35,0.58-0.61,0.74c-0.25,0.16-0.54,0.24-0.84,0.24
				c-0.31,0-0.59-0.091-0.85-0.261c-0.26-0.17-0.46-0.42-0.61-0.75c-0.14-0.34-0.22-0.739-0.22-1.22c0-0.45,0.07-0.85,0.21-1.19
				c0.14-0.34,0.34-0.6,0.59-0.779c0.25-0.181,0.54-0.28,0.86-0.28c0.31,0,0.6,0.09,0.86,0.27c0.26,0.181,0.46,0.44,0.61,0.771
				c0.16,0.34,0.23,0.74,0.23,1.21C174.329,482,174.259,482.41,174.099,482.75z"/>
			<path d="M182.919,482.67c-0.17,0-0.3,0.04-0.39,0.12c-0.22,0.2-0.4,0.37-0.53,0.49c-0.14,0.12-0.29,0.229-0.45,0.34
				c-0.17,0.1-0.33,0.18-0.51,0.23c-0.17,0.051-0.36,0.07-0.57,0.07c-0.32,0-0.6-0.08-0.86-0.229c-0.26-0.15-0.47-0.381-0.63-0.69
				c-0.16-0.3-0.24-0.66-0.24-1.05h3.44c0.46,0,0.81-0.07,1.07-0.2c0.25-0.13,0.38-0.42,0.38-0.86c0-0.479-0.13-0.939-0.37-1.399
				c-0.24-0.46-0.61-0.84-1.11-1.13c-0.49-0.29-1.08-0.431-1.76-0.431c-0.53,0-1.01,0.08-1.44,0.25c-0.44,0.17-0.8,0.42-1.1,0.73
				c-0.29,0.32-0.52,0.7-0.67,1.149c-0.16,0.44-0.24,0.921-0.24,1.44c0,1.1,0.32,1.98,0.94,2.62c0.63,0.64,1.51,0.97,2.64,0.97
				c0.49,0,0.93-0.07,1.31-0.2c0.38-0.13,0.69-0.29,0.94-0.479c0.25-0.2,0.44-0.4,0.57-0.61c0.12-0.22,0.18-0.399,0.18-0.56
				c0-0.181-0.05-0.32-0.16-0.42C183.239,482.72,183.099,482.67,182.919,482.67z M179.249,479.6c0.28-0.3,0.64-0.449,1.08-0.449
				c0.46,0,0.83,0.149,1.11,0.449c0.28,0.301,0.44,0.75,0.49,1.351h-3.19C178.799,480.36,178.969,479.91,179.249,479.6z"/>
			<path d="M189.919,481.93c-0.18-0.25-0.44-0.47-0.79-0.649c-0.34-0.19-0.79-0.351-1.33-0.48c-0.46-0.109-0.82-0.21-1.08-0.28
				c-0.27-0.079-0.47-0.18-0.63-0.3c-0.15-0.109-0.23-0.27-0.23-0.45c0-0.199,0.1-0.369,0.31-0.51c0.22-0.13,0.48-0.2,0.8-0.2
				c0.31,0,0.55,0.051,0.73,0.16c0.18,0.101,0.34,0.24,0.47,0.41c0.16,0.2,0.31,0.36,0.43,0.46c0.13,0.101,0.28,0.16,0.46,0.16
				c0.25,0,0.45-0.07,0.58-0.2c0.14-0.13,0.2-0.29,0.2-0.49c0-0.19-0.06-0.38-0.19-0.569c-0.12-0.19-0.31-0.37-0.55-0.53
				c-0.24-0.16-0.54-0.28-0.91-0.38c-0.36-0.09-0.77-0.14-1.22-0.14c-0.58,0-1.08,0.09-1.49,0.279c-0.41,0.19-0.72,0.44-0.93,0.75
				c-0.21,0.311-0.31,0.65-0.31,1c0,0.391,0.11,0.73,0.34,1c0.23,0.271,0.53,0.49,0.91,0.65c0.38,0.16,0.87,0.32,1.48,0.47
				c0.53,0.13,0.92,0.271,1.15,0.41c0.24,0.14,0.35,0.37,0.35,0.67c0,0.21-0.11,0.38-0.33,0.54c-0.23,0.16-0.52,0.24-0.87,0.24
				c-0.43,0-0.78-0.08-1.03-0.23c-0.25-0.16-0.46-0.39-0.65-0.71c-0.08-0.16-0.18-0.29-0.28-0.38c-0.1-0.09-0.24-0.13-0.42-0.13
				c-0.21,0-0.39,0.07-0.52,0.2c-0.14,0.14-0.21,0.31-0.21,0.5c0,0.29,0.11,0.58,0.32,0.87c0.22,0.29,0.55,0.529,1,0.729
				c0.45,0.19,0.99,0.29,1.62,0.29c0.66,0,1.22-0.09,1.68-0.27c0.47-0.181,0.82-0.44,1.05-0.79c0.24-0.34,0.35-0.761,0.35-1.24
				C190.179,482.47,190.099,482.18,189.919,481.93z"/>
			<path d="M192.599,478.21c-0.17-0.18-0.38-0.27-0.64-0.27c-0.26,0-0.47,0.09-0.63,0.27c-0.16,0.17-0.24,0.43-0.24,0.78v5.029
				c0,0.341,0.08,0.601,0.24,0.79c0.16,0.181,0.37,0.28,0.63,0.28c0.26,0,0.47-0.09,0.64-0.27c0.17-0.181,0.25-0.45,0.25-0.801
				v-5.079C192.849,478.63,192.769,478.38,192.599,478.21z M192.579,475.62c-0.17-0.14-0.37-0.22-0.6-0.22
				c-0.24,0-0.44,0.08-0.62,0.25c-0.18,0.159-0.27,0.359-0.27,0.609c0,0.28,0.09,0.49,0.26,0.641c0.18,0.149,0.39,0.22,0.63,0.22
				c0.24,0,0.44-0.07,0.61-0.22c0.17-0.16,0.26-0.37,0.26-0.641C192.849,475.98,192.759,475.77,192.579,475.62z"/>
			<path d="M200.379,478.27c-0.11-0.22-0.34-0.329-0.68-0.329c-0.23,0-0.43,0.09-0.58,0.25c-0.15,0.17-0.22,0.409-0.22,0.71v0.239
				c-0.31-0.409-0.65-0.71-1.02-0.899c-0.36-0.19-0.79-0.29-1.29-0.29c-0.42,0-0.8,0.08-1.15,0.229c-0.35,0.141-0.65,0.36-0.92,0.66
				c-0.26,0.29-0.47,0.65-0.61,1.07c-0.15,0.43-0.22,0.899-0.22,1.43c0,0.71,0.12,1.33,0.36,1.87c0.23,0.54,0.57,0.96,1.01,1.26
				c0.44,0.311,0.95,0.46,1.54,0.46c0.49,0,0.91-0.1,1.27-0.3c0.35-0.2,0.66-0.49,0.93-0.86c-0.01,0.57-0.02,0.99-0.04,1.25
				c-0.01,0.261-0.07,0.5-0.17,0.73c-0.1,0.23-0.28,0.4-0.53,0.53c-0.25,0.13-0.6,0.189-1.06,0.189c-0.22,0-0.42-0.02-0.59-0.06
				c-0.17-0.04-0.32-0.101-0.44-0.19c-0.12-0.08-0.24-0.18-0.34-0.3c-0.1-0.12-0.2-0.24-0.29-0.35c-0.19-0.23-0.42-0.34-0.68-0.34
				c-0.2,0-0.38,0.069-0.52,0.199c-0.15,0.141-0.22,0.311-0.22,0.53c0,0.28,0.13,0.55,0.38,0.82c0.26,0.27,0.63,0.489,1.1,0.66
				c0.48,0.17,1.02,0.25,1.63,0.25c0.66,0,1.21-0.06,1.65-0.2c0.45-0.13,0.81-0.33,1.08-0.61c0.28-0.27,0.48-0.62,0.6-1.04
				c0.12-0.42,0.19-0.92,0.19-1.51v-5.1C200.549,478.81,200.489,478.49,200.379,478.27z M198.589,482.68
				c-0.16,0.311-0.37,0.551-0.63,0.7c-0.26,0.16-0.54,0.24-0.83,0.24c-0.49,0-0.9-0.18-1.21-0.55c-0.31-0.36-0.46-0.9-0.46-1.61
				c0-0.71,0.15-1.25,0.45-1.63c0.3-0.38,0.7-0.58,1.21-0.58c0.51,0,0.93,0.2,1.24,0.6c0.32,0.4,0.48,0.96,0.48,1.681
				C198.839,481.98,198.749,482.36,198.589,482.68z"/>
			<path d="M207.899,479.79c-0.03-0.24-0.11-0.48-0.22-0.69c-0.18-0.369-0.45-0.649-0.82-0.859c-0.36-0.2-0.78-0.3-1.24-0.3
				c-0.48,0-0.9,0.1-1.27,0.29c-0.1,0.05-0.19,0.109-0.29,0.18c-0.25,0.18-0.49,0.42-0.72,0.72v-0.22c0-0.21-0.04-0.391-0.11-0.53
				c-0.08-0.149-0.18-0.26-0.3-0.33c-0.13-0.069-0.27-0.109-0.42-0.109c-0.25,0-0.45,0.079-0.6,0.25
				c-0.15,0.159-0.22,0.409-0.22,0.75v5.079c0,0.341,0.08,0.601,0.25,0.79c0.16,0.181,0.37,0.28,0.62,0.28
				c0.26,0,0.48-0.09,0.64-0.27c0.17-0.181,0.25-0.45,0.25-0.801v-2.199c0-0.721,0.04-1.21,0.13-1.471
				c0.12-0.33,0.31-0.58,0.56-0.77c0.26-0.191,0.55-0.28,0.86-0.28c0.48,0,0.8,0.15,0.96,0.46c0.16,0.311,0.24,0.75,0.24,1.33v2.93
				c0,0.341,0.09,0.601,0.25,0.79c0.16,0.181,0.37,0.28,0.64,0.28c0.25,0,0.46-0.09,0.62-0.27c0.17-0.181,0.25-0.45,0.25-0.801
				v-3.27C207.959,480.36,207.939,480.04,207.899,479.79z"/>
			<path d="M214.769,482.67c-0.17,0-0.29,0.04-0.38,0.12c-0.22,0.2-0.4,0.37-0.54,0.49c-0.14,0.12-0.29,0.229-0.45,0.34
				c-0.16,0.1-0.33,0.18-0.5,0.23c-0.17,0.051-0.35,0.07-0.55,0.07h-0.01c-0.01,0-0.01,0-0.02,0c-0.31,0-0.6-0.08-0.86-0.229
				c-0.26-0.15-0.47-0.381-0.62-0.69c-0.03-0.06-0.06-0.11-0.08-0.17v-0.01c-0.11-0.261-0.16-0.561-0.17-0.87h3.44
				c0.46,0,0.82-0.07,1.07-0.2s0.38-0.42,0.38-0.86c0-0.479-0.12-0.939-0.37-1.399c-0.24-0.46-0.61-0.84-1.1-1.13
				c-0.49-0.29-1.08-0.431-1.77-0.431c-0.53,0-1.01,0.08-1.44,0.25c-0.43,0.17-0.8,0.42-1.09,0.73c-0.3,0.32-0.53,0.7-0.68,1.149
				c-0.15,0.44-0.23,0.921-0.23,1.44c0,1.1,0.31,1.98,0.94,2.62c0.62,0.64,1.5,0.97,2.63,0.97c0.49,0,0.93-0.07,1.31-0.2
				c0.01,0,0.03-0.01,0.04-0.01c0.36-0.13,0.66-0.29,0.91-0.47c0.25-0.2,0.43-0.4,0.56-0.61c0.12-0.22,0.19-0.399,0.19-0.56
				c0-0.181-0.06-0.32-0.17-0.42C215.099,482.72,214.949,482.67,214.769,482.67z M211.109,479.6c0.28-0.3,0.64-0.449,1.07-0.449
				c0.46,0,0.83,0.149,1.11,0.449c0.29,0.301,0.45,0.75,0.49,1.351h-3.19C210.649,480.36,210.819,479.91,211.109,479.6z"/>
			<path d="M222.639,475.58c-0.14-0.17-0.35-0.25-0.61-0.25c-0.271,0-0.48,0.09-0.62,0.27c-0.14,0.19-0.22,0.46-0.22,0.82v2.6
				c-0.33-0.359-0.66-0.63-1.01-0.81c-0.35-0.17-0.78-0.26-1.28-0.26c-0.88,0-1.58,0.31-2.12,0.92c-0.54,0.62-0.81,1.47-0.81,2.57
				c0,0.52,0.07,1,0.21,1.449c0.13,0.45,0.33,0.841,0.59,1.17c0.26,0.33,0.57,0.58,0.93,0.761c0.36,0.18,0.75,0.27,1.17,0.27
				c0.32,0,0.61-0.05,0.88-0.14c0.27-0.08,0.52-0.21,0.75-0.38c0.23-0.17,0.46-0.391,0.69-0.66v0.17c0,0.32,0.08,0.57,0.24,0.75
				c0.16,0.17,0.35,0.26,0.6,0.26c0.24,0,0.44-0.09,0.59-0.25c0.16-0.17,0.24-0.42,0.24-0.76v-7.75
				C222.859,476,222.779,475.75,222.639,475.58z M220.869,482.75c-0.15,0.33-0.36,0.58-0.61,0.74c-0.26,0.16-0.54,0.24-0.85,0.24
				c-0.3,0-0.58-0.091-0.84-0.261c-0.26-0.17-0.46-0.42-0.61-0.75c-0.15-0.34-0.22-0.739-0.22-1.22c0-0.45,0.07-0.85,0.21-1.19
				c0.14-0.34,0.33-0.6,0.59-0.779c0.25-0.181,0.54-0.28,0.86-0.28c0.31,0,0.59,0.09,0.85,0.27c0.26,0.181,0.47,0.44,0.62,0.771
				c0.15,0.34,0.23,0.74,0.23,1.21C221.099,482,221.019,482.41,220.869,482.75z"/>
			<path d="M233.219,479.57c-0.24-0.521-0.58-0.92-1.02-1.2c-0.44-0.28-0.95-0.42-1.54-0.42c-0.5,0-0.93,0.1-1.27,0.28
				c-0.35,0.18-0.68,0.439-1.01,0.789v-2.689c0-0.32-0.08-0.57-0.22-0.74c-0.15-0.18-0.36-0.26-0.63-0.26
				c-0.25,0-0.45,0.09-0.6,0.27c-0.14,0.181-0.21,0.45-0.21,0.811v7.67c0,0.33,0.07,0.58,0.22,0.75c0.15,0.17,0.34,0.26,0.59,0.26
				s0.45-0.09,0.61-0.26c0.16-0.17,0.24-0.42,0.24-0.75v-0.17c0.19,0.22,0.35,0.39,0.46,0.5c0.12,0.109,0.26,0.22,0.43,0.33
				c0.17,0.1,0.37,0.189,0.61,0.25c0.24,0.06,0.49,0.1,0.76,0.1c0.44,0,0.85-0.09,1.22-0.27c0.36-0.181,0.68-0.431,0.93-0.761
				c0.26-0.319,0.46-0.71,0.59-1.149c0.14-0.45,0.2-0.93,0.2-1.47C233.579,480.72,233.459,480.1,233.219,479.57z M231.339,483.15
				c-0.32,0.39-0.7,0.58-1.14,0.58c-0.52,0-0.94-0.19-1.26-0.57c-0.32-0.37-0.48-0.91-0.48-1.61c0-0.47,0.08-0.89,0.23-1.229
				c0.15-0.351,0.35-0.61,0.61-0.79c0.27-0.181,0.56-0.28,0.9-0.28c0.32,0,0.61,0.1,0.85,0.28c0.25,0.18,0.44,0.439,0.57,0.77
				c0.13,0.34,0.2,0.74,0.2,1.2C231.819,482.22,231.659,482.77,231.339,483.15z"/>
			<path d="M240.009,478.33c-0.07-0.12-0.16-0.21-0.28-0.28c-0.12-0.069-0.25-0.109-0.38-0.109c-0.19,0-0.33,0.029-0.43,0.1
				c-0.1,0.06-0.2,0.19-0.29,0.37c-0.09,0.189-0.19,0.439-0.3,0.77l-1.41,4.021l-1.49-4.33c-0.1-0.3-0.21-0.53-0.34-0.69
				c-0.13-0.16-0.32-0.239-0.57-0.239c-0.15,0-0.29,0.04-0.42,0.119c-0.14,0.07-0.25,0.181-0.32,0.31
				c-0.08,0.12-0.12,0.26-0.12,0.41c0,0.149,0.07,0.37,0.2,0.689l2.16,5.44l-0.16,0.399c-0.12,0.28-0.22,0.5-0.32,0.65
				c-0.09,0.15-0.19,0.25-0.31,0.31c-0.11,0.061-0.27,0.091-0.47,0.091c-0.09,0-0.18-0.011-0.29-0.04
				c-0.09-0.021-0.19-0.04-0.28-0.04c-0.24,0-0.42,0.06-0.54,0.17c-0.13,0.109-0.19,0.26-0.19,0.46c0,0.3,0.13,0.5,0.39,0.62
				c0.26,0.109,0.64,0.16,1.16,0.16c0.521,0,0.94-0.08,1.25-0.24c0.32-0.16,0.57-0.391,0.75-0.69c0.19-0.3,0.39-0.71,0.58-1.24
				l2.3-6c0.05-0.159,0.1-0.31,0.14-0.46c0.039-0.149,0.06-0.27,0.08-0.35C240.109,478.58,240.079,478.45,240.009,478.33z"/>
		</g>
		<g>
			<path d="M261.319,478.093h0.419v-0.527c0-0.552,0.067-0.987,0.207-1.313c0.139-0.324,0.377-0.56,0.71-0.708
				c0.332-0.147,0.788-0.222,1.367-0.222c1.029,0,1.54,0.249,1.54,0.755c0,0.162-0.054,0.302-0.163,0.417
				c-0.104,0.115-0.232,0.174-0.378,0.174c-0.067,0-0.188-0.013-0.357-0.04c-0.161-0.022-0.307-0.038-0.422-0.038
				c-0.317,0-0.52,0.096-0.614,0.281c-0.086,0.186-0.132,0.453-0.132,0.803v0.418h0.429c0.672,0,1.004,0.201,1.004,0.607
				c0,0.284-0.086,0.468-0.267,0.545c-0.177,0.078-0.423,0.116-0.737,0.116h-0.429v4.656c0,0.347-0.082,0.61-0.25,0.792
				c-0.164,0.185-0.376,0.275-0.639,0.275c-0.249,0-0.455-0.091-0.622-0.275c-0.166-0.182-0.247-0.445-0.247-0.792v-4.656h-0.484
				c-0.263,0-0.462-0.057-0.605-0.178c-0.142-0.115-0.213-0.271-0.213-0.459C260.435,478.302,260.73,478.093,261.319,478.093
				L261.319,478.093z"/>
			<path d="M267.072,482.549v1.469c0,0.355-0.09,0.623-0.253,0.8c-0.168,0.18-0.379,0.268-0.636,0.268
				c-0.259,0-0.466-0.089-0.628-0.271c-0.16-0.179-0.244-0.444-0.244-0.796v-4.895c0-0.79,0.284-1.185,0.854-1.185
				c0.294,0,0.503,0.092,0.633,0.276c0.128,0.186,0.199,0.457,0.215,0.819c0.208-0.362,0.423-0.634,0.643-0.819
				c0.225-0.185,0.517-0.276,0.888-0.276c0.372,0,0.727,0.092,1.074,0.276c0.349,0.186,0.522,0.432,0.522,0.735
				c0,0.214-0.075,0.394-0.221,0.53c-0.149,0.142-0.308,0.211-0.478,0.211c-0.067,0-0.225-0.043-0.47-0.122
				c-0.247-0.077-0.467-0.117-0.652-0.117c-0.258,0-0.47,0.069-0.632,0.202c-0.164,0.139-0.291,0.337-0.382,0.601
				c-0.088,0.268-0.148,0.587-0.185,0.952C267.088,481.573,267.072,482.022,267.072,482.549L267.072,482.549z"/>
			<path d="M275.889,482.67c-0.16,0-0.29,0.04-0.38,0.12c-0.22,0.2-0.399,0.37-0.54,0.479c-0.14,0.131-0.279,0.24-0.449,0.341
				c-0.16,0.109-0.33,0.189-0.5,0.229c-0.181,0.061-0.37,0.08-0.58,0.08c-0.311,0-0.601-0.08-0.86-0.229
				c-0.26-0.16-0.47-0.391-0.63-0.69c-0.15-0.3-0.23-0.66-0.24-1.06h3.44c0.46,0,0.819-0.06,1.069-0.19
				c0.25-0.14,0.38-0.42,0.38-0.86c0-0.479-0.12-0.939-0.37-1.409c-0.239-0.461-0.609-0.83-1.1-1.12
				c-0.49-0.29-1.08-0.431-1.77-0.431c-0.53,0-1.011,0.08-1.441,0.25c-0.43,0.17-0.8,0.41-1.09,0.73c-0.3,0.32-0.53,0.7-0.68,1.14
				c-0.16,0.45-0.23,0.931-0.23,1.45c0,1.1,0.31,1.98,0.941,2.62c0.619,0.64,1.5,0.96,2.63,0.96c0.489,0,0.93-0.061,1.31-0.191
				c0.38-0.13,0.7-0.29,0.95-0.479c0.25-0.2,0.44-0.4,0.57-0.62c0.12-0.21,0.18-0.39,0.18-0.55c0-0.181-0.06-0.32-0.17-0.42
				C276.219,482.72,276.069,482.67,275.889,482.67z M272.228,479.6c0.28-0.3,0.641-0.449,1.07-0.449c0.471,0,0.83,0.149,1.12,0.449
				c0.28,0.29,0.441,0.74,0.48,1.341h-3.19C271.77,480.35,271.939,479.91,272.228,479.6z"/>
			<path d="M283.199,482.67c-0.16,0-0.29,0.04-0.38,0.12c-0.221,0.2-0.4,0.37-0.54,0.479c-0.141,0.131-0.28,0.24-0.45,0.341
				c-0.16,0.109-0.33,0.189-0.51,0.229c-0.17,0.061-0.36,0.08-0.57,0.08c-0.31,0-0.6-0.08-0.86-0.229
				c-0.26-0.16-0.47-0.391-0.619-0.69c-0.16-0.3-0.24-0.66-0.25-1.06h3.44c0.46,0,0.82-0.06,1.07-0.19
				c0.25-0.14,0.38-0.42,0.38-0.86c0-0.479-0.12-0.939-0.37-1.409c-0.24-0.461-0.61-0.83-1.1-1.12c-0.5-0.29-1.08-0.431-1.771-0.431
				c-0.53,0-1.01,0.08-1.44,0.25c-0.439,0.17-0.8,0.41-1.09,0.73c-0.3,0.32-0.529,0.7-0.68,1.14c-0.16,0.45-0.24,0.931-0.24,1.45
				c0,1.1,0.32,1.98,0.95,2.62c0.62,0.64,1.5,0.96,2.63,0.96c0.49,0,0.93-0.061,1.311-0.191c0.38-0.13,0.699-0.29,0.949-0.479
				c0.25-0.2,0.44-0.4,0.56-0.62c0.13-0.21,0.18-0.39,0.18-0.55c0-0.181-0.05-0.32-0.16-0.42
				C283.529,482.72,283.379,482.67,283.199,482.67z M279.529,479.6c0.29-0.3,0.649-0.449,1.08-0.449c0.46,0,0.83,0.149,1.119,0.449
				c0.28,0.29,0.44,0.74,0.481,1.341h-3.19C279.079,480.35,279.249,479.91,279.529,479.6z"/>
			<path d="M291.509,481.29c-0.02-0.65-0.149-1.21-0.38-1.7c-0.27-0.53-0.63-0.939-1.08-1.22c-0.46-0.28-0.96-0.42-1.5-0.42
				c-0.45,0-0.85,0.1-1.2,0.29c-0.359,0.189-0.71,0.49-1.04,0.899v-0.21c0-0.33-0.069-0.569-0.229-0.739
				c-0.16-0.171-0.36-0.25-0.61-0.25s-0.449,0.079-0.6,0.239c-0.15,0.17-0.22,0.42-0.22,0.761v7.579c0,0.391,0.06,0.671,0.159,0.881
				c0.11,0.189,0.33,0.29,0.66,0.29c0.561,0,0.84-0.391,0.84-1.16v-2.63c0.181,0.22,0.36,0.409,0.551,0.569
				c0.14,0.12,0.279,0.221,0.43,0.311c0.34,0.2,0.76,0.3,1.26,0.3c0.42,0,0.811-0.08,1.17-0.24c0.37-0.17,0.681-0.41,0.95-0.71
				c0.26-0.31,0.47-0.69,0.63-1.14c0.15-0.45,0.221-0.95,0.221-1.49C291.52,481.43,291.52,481.36,291.509,481.29z M289.529,482.71
				c-0.15,0.34-0.34,0.59-0.601,0.76c-0.239,0.17-0.52,0.261-0.81,0.261c-0.06,0-0.12,0-0.17-0.021
				c-0.42-0.03-0.771-0.229-1.06-0.57c-0.33-0.38-0.489-0.93-0.489-1.63c0-0.74,0.159-1.3,0.5-1.689
				c0.329-0.38,0.739-0.57,1.22-0.57c0.31,0,0.59,0.09,0.84,0.27c0.25,0.181,0.44,0.431,0.58,0.771c0.15,0.33,0.22,0.729,0.22,1.19
				c0,0.43-0.06,0.8-0.189,1.109C289.559,482.63,289.549,482.67,289.529,482.71z"/>
			<path d="M293.909,478.2c-0.17-0.181-0.38-0.26-0.64-0.26c-0.25,0-0.461,0.079-0.62,0.26c-0.16,0.18-0.25,0.439-0.25,0.79v5.029
				c0,0.341,0.09,0.601,0.25,0.79c0.159,0.181,0.37,0.271,0.62,0.271c0.26,0,0.47-0.08,0.64-0.271c0.17-0.18,0.25-0.44,0.25-0.79
				v-5.079C294.159,478.62,294.079,478.38,293.909,478.2z M293.899,475.62c-0.181-0.15-0.38-0.22-0.61-0.22
				c-0.23,0-0.44,0.08-0.62,0.239c-0.18,0.16-0.27,0.37-0.27,0.62c0,0.271,0.09,0.48,0.27,0.63c0.17,0.15,0.38,0.23,0.62,0.23
				c0.24,0,0.439-0.08,0.62-0.23c0.17-0.149,0.25-0.359,0.25-0.63C294.159,475.98,294.069,475.76,293.899,475.62z"/>
			<path d="M299.827,484.282l-1.548-2.552l-0.954,0.9v1.399c0,0.339-0.09,0.598-0.269,0.779c-0.175,0.185-0.384,0.275-0.614,0.275
				c-0.27,0-0.484-0.089-0.638-0.271c-0.153-0.179-0.232-0.444-0.232-0.796v-7.498c0-0.388,0.077-0.685,0.224-0.89
				c0.151-0.207,0.369-0.307,0.646-0.307c0.271,0,0.483,0.093,0.644,0.279c0.158,0.183,0.239,0.456,0.239,0.814v4.265l1.977-2.075
				c0.245-0.255,0.429-0.435,0.561-0.527c0.128-0.095,0.283-0.142,0.467-0.142c0.221,0,0.402,0.07,0.553,0.209
				c0.143,0.14,0.217,0.316,0.217,0.524c0,0.257-0.239,0.603-0.715,1.031l-0.933,0.855l1.802,2.835
				c0.131,0.213,0.229,0.368,0.287,0.478c0.058,0.107,0.088,0.217,0.088,0.313c0,0.28-0.077,0.498-0.23,0.661
				c-0.152,0.161-0.354,0.24-0.601,0.24c-0.214,0-0.382-0.055-0.497-0.174C300.185,484.794,300.024,484.584,299.827,484.282
				L299.827,484.282z"/>
			<path d="M303.646,485.085c-0.265,0-0.492-0.086-0.686-0.258c-0.192-0.169-0.291-0.411-0.291-0.722
				c0-0.262,0.094-0.487,0.278-0.675c0.186-0.189,0.412-0.283,0.684-0.283c0.268,0,0.498,0.094,0.692,0.279
				c0.19,0.187,0.286,0.414,0.286,0.679c0,0.307-0.097,0.547-0.286,0.718C304.129,484.999,303.903,485.085,303.646,485.085
				L303.646,485.085z"/>
			<path d="M312.389,482.909c0,0.218-0.066,0.453-0.197,0.701c-0.13,0.251-0.331,0.486-0.601,0.712
				c-0.268,0.225-0.604,0.408-1.013,0.544c-0.407,0.137-0.868,0.208-1.376,0.208c-1.089,0-1.938-0.318-2.547-0.949
				c-0.607-0.635-0.912-1.484-0.912-2.549c0-0.723,0.138-1.359,0.419-1.914c0.276-0.552,0.681-0.98,1.208-1.283
				c0.527-0.304,1.162-0.454,1.894-0.454c0.456,0,0.873,0.066,1.255,0.2c0.38,0.132,0.7,0.306,0.966,0.515
				c0.262,0.213,0.465,0.436,0.603,0.672c0.14,0.238,0.208,0.462,0.208,0.669c0,0.209-0.077,0.388-0.232,0.534
				c-0.159,0.146-0.35,0.22-0.568,0.22c-0.148,0-0.27-0.039-0.367-0.113c-0.097-0.076-0.206-0.196-0.324-0.367
				c-0.215-0.324-0.438-0.57-0.675-0.731c-0.232-0.164-0.528-0.245-0.89-0.245c-0.517,0-0.939,0.202-1.257,0.608
				c-0.316,0.403-0.477,0.962-0.477,1.663c0,0.331,0.043,0.637,0.124,0.913c0.079,0.276,0.197,0.513,0.353,0.708
				c0.156,0.194,0.342,0.342,0.561,0.443c0.22,0.103,0.461,0.152,0.721,0.152c0.353,0,0.655-0.081,0.905-0.244
				c0.255-0.163,0.477-0.411,0.669-0.747c0.107-0.197,0.222-0.351,0.345-0.463c0.124-0.111,0.277-0.169,0.458-0.169
				c0.215,0,0.393,0.083,0.533,0.245C312.316,482.551,312.389,482.727,312.389,482.909L312.389,482.909z"/>
			<path d="M319.728,480.06c-0.159-0.43-0.39-0.81-0.699-1.13c-0.311-0.319-0.681-0.56-1.11-0.729c-0.44-0.181-0.92-0.26-1.45-0.26
				c-0.529,0-1.01,0.079-1.439,0.25c-0.431,0.17-0.801,0.409-1.11,0.729c-0.3,0.311-0.54,0.691-0.7,1.13
				c-0.16,0.44-0.24,0.931-0.24,1.46c0,0.53,0.08,1.01,0.231,1.45c0.17,0.43,0.4,0.81,0.72,1.13c0.3,0.32,0.681,0.57,1.101,0.74
				c0.42,0.17,0.899,0.26,1.439,0.26c0.53,0,1.01-0.09,1.45-0.26c0.42-0.17,0.79-0.41,1.101-0.73c0.31-0.319,0.55-0.699,0.709-1.14
				c0.16-0.44,0.24-0.93,0.24-1.45C319.969,480.98,319.889,480.5,319.728,480.06z M317.739,483.17c-0.32,0.41-0.74,0.61-1.271,0.61
				c-0.359,0-0.66-0.09-0.92-0.271c-0.26-0.189-0.46-0.45-0.6-0.8c-0.141-0.34-0.21-0.74-0.21-1.2c0-0.46,0.069-0.87,0.21-1.22
				c0.14-0.34,0.34-0.61,0.609-0.79c0.261-0.17,0.56-0.26,0.91-0.26c0.53,0,0.95,0.2,1.271,0.6c0.31,0.4,0.47,0.96,0.47,1.67
				C318.209,482.22,318.049,482.77,317.739,483.17z"/>
			<path d="M326.677,481.642v2.336c0,0.371-0.082,0.645-0.251,0.832c-0.169,0.185-0.387,0.276-0.662,0.276
				c-0.267,0-0.484-0.092-0.645-0.276c-0.168-0.188-0.252-0.461-0.252-0.832v-2.8c0-0.442-0.015-0.787-0.043-1.033
				c-0.031-0.239-0.114-0.443-0.246-0.598c-0.133-0.16-0.345-0.238-0.631-0.238c-0.576,0-0.953,0.196-1.136,0.597
				c-0.182,0.391-0.275,0.958-0.275,1.699v2.373c0,0.364-0.083,0.642-0.245,0.829c-0.169,0.186-0.385,0.279-0.654,0.279
				c-0.268,0-0.485-0.094-0.655-0.279c-0.17-0.188-0.255-0.465-0.255-0.829v-5.028c0-0.331,0.076-0.583,0.228-0.753
				c0.155-0.174,0.356-0.259,0.602-0.259c0.242,0,0.441,0.084,0.605,0.241c0.16,0.161,0.24,0.384,0.24,0.667v0.166
				c0.308-0.362,0.634-0.631,0.978-0.8c0.351-0.177,0.733-0.262,1.161-0.262c0.441,0,0.82,0.089,1.137,0.264
				c0.318,0.177,0.579,0.444,0.787,0.798c0.298-0.358,0.616-0.625,0.955-0.8c0.339-0.175,0.714-0.262,1.127-0.262
				c0.478,0,0.895,0.097,1.242,0.284c0.346,0.189,0.605,0.46,0.778,0.81c0.149,0.32,0.224,0.82,0.224,1.503v3.431
				c0,0.371-0.083,0.645-0.249,0.832c-0.167,0.185-0.39,0.276-0.664,0.276c-0.268,0-0.483-0.094-0.653-0.279
				c-0.17-0.188-0.255-0.465-0.255-0.829v-2.956c0-0.378-0.017-0.68-0.047-0.906c-0.032-0.229-0.12-0.421-0.26-0.574
				c-0.144-0.154-0.359-0.232-0.646-0.232c-0.232,0-0.452,0.072-0.66,0.208c-0.208,0.135-0.371,0.323-0.488,0.551
				C326.743,480.364,326.677,480.89,326.677,481.642L326.677,481.642z"/>
		</g>
		<g>
			<path d="M244.872,481.087c-0.002-0.003-0.002-0.006-0.002-0.012C244.871,481.081,244.871,481.084,244.872,481.087z"/>
			<path d="M244.961,481.649c0.001,0,0.001,0,0.002,0c-0.034-0.16-0.06-0.319-0.081-0.476
				C244.903,481.332,244.929,481.491,244.961,481.649z"/>
			<path d="M245.542,483.28c-0.004-0.007-0.007-0.015-0.012-0.022C245.535,483.266,245.539,483.273,245.542,483.28z"/>
			<path d="M245.487,483.172c-0.015-0.03-0.03-0.061-0.044-0.091C245.457,483.112,245.472,483.142,245.487,483.172z"/>
			<path d="M245.124,482.277c0.086,0.271,0.19,0.534,0.31,0.785c-0.122-0.256-0.224-0.52-0.308-0.785
				C245.126,482.277,245.125,482.277,245.124,482.277z"/>
			<path d="M251.675,474.353c0.34,0,0.59,0.026,0.878,0.075l0.081-0.517c0,0-0.794-0.244-1.837-0.159l-0.082-0.281
				c0.324-0.068,0.567-0.357,0.567-0.701c0-0.395-0.321-0.714-0.716-0.714c-0.395,0-0.716,0.319-0.716,0.714
				c0,0.345,0.243,0.633,0.567,0.701l0.09,0.313c-1.107,0.152-1.989,0.585-1.989,0.585l0.156,0.478
				c0.67-0.224,1.252-0.358,1.778-0.416C250.97,474.377,251.358,474.353,251.675,474.353z"/>
			<path d="M245.529,476.968l0.004-0.005c0.026-0.034,0.051-0.065,0.077-0.097l-0.212-0.153l-0.33-0.241
				c-0.019,0.025-0.539,0.504-0.95,1.388c-0.018-0.027-0.038-0.055-0.061-0.081c-0.123-0.134-0.295-0.202-0.514-0.198
				c-0.003,0-0.006,0-0.01,0c-0.135,0-0.228-0.046-0.289-0.101c0.061-0.076,0.097-0.173,0.097-0.28c0-0.249-0.203-0.453-0.454-0.453
				c-0.249,0-0.453,0.204-0.453,0.453c0,0.251,0.204,0.454,0.453,0.454c0.04,0,0.077-0.007,0.113-0.014
				c0.111,0.123,0.288,0.232,0.547,0.226c0.133-0.001,0.231,0.033,0.296,0.105c0.075,0.082,0.1,0.2,0.108,0.29
				c-0.001,0.001-0.001,0.003-0.002,0.003c-0.295,0.807-0.211,1.81-0.211,1.81l0.716,0.028c0.015-0.365,0.067-1.004,0.252-1.512
				C245.064,477.608,245.511,476.994,245.529,476.968z"/>
			<path d="M257.909,474.952c-0.249,0-0.453,0.202-0.453,0.453c0,0.039,0.006,0.076,0.016,0.112
				c-0.124,0.112-0.232,0.29-0.228,0.549c0.002,0.134-0.032,0.23-0.104,0.296c-0.058,0.051-0.13,0.078-0.2,0.096
				c-0.533-0.747-1.191-1.203-1.191-1.203l-0.514,0.551c0.389,0.354,0.785,0.797,1.171,1.349c0.267,0.382,0.542,0.875,0.77,1.366
				l0.693-0.33c0,0-0.316-0.783-0.763-1.485c0.077-0.027,0.155-0.069,0.225-0.13c0.136-0.123,0.202-0.296,0.198-0.514
				c-0.001-0.142,0.045-0.236,0.101-0.3c0.077,0.06,0.174,0.098,0.279,0.098c0.252,0,0.454-0.204,0.454-0.454
				C258.363,475.154,258.161,474.952,257.909,474.952z"/>
			<path d="M256.108,481.189c-0.955,0.466-2.527,1.08-4.596,1.369c-0.812,0.112-1.599,0.154-2.324,0.154
				c-0.942,0-1.775-0.07-2.414-0.151c-0.729-0.092-1.3-0.204-1.648-0.283c0.084,0.266,0.186,0.529,0.308,0.785
				c0.002,0.007,0.005,0.014,0.008,0.019c0.015,0.029,0.029,0.061,0.044,0.091c0.015,0.029,0.029,0.059,0.044,0.086
				c0.004,0.008,0.008,0.016,0.012,0.022c0.205,0.387,0.452,0.742,0.732,1.05c0.976,1.067,1.97,1.236,1.98,1.237l0.016,0.002
				l0.015,0.005c0.009,0.004,0.89,0.288,2.23,0.288c1.319,0,2.613-0.266,3.845-0.791c0.913-0.467,1.777-1.177,2.205-1.81
				c0.331-0.489,0.57-1.012,0.712-1.555c0.075-0.288,0.135-0.75,0.1-1.236C257.108,480.651,256.684,480.908,256.108,481.189z"/>
			<path d="M256.089,477.37c-1.35-1.94-2.819-2.44-3.569-2.56c-0.29-0.05-0.521-0.069-0.841-0.069c-0.31,0-0.68,0.02-1.189,0.069
				c-0.5,0.051-1.06,0.19-1.71,0.41c-0.92,0.3-1.74,0.78-2.39,1.38l-0.02,0.02c-0.1,0.09-0.3,0.28-0.53,0.57
				c-0.03,0.04-0.45,0.63-0.77,1.529c-0.25,0.681-0.24,1.66-0.24,1.67c0,0.23,0.02,0.46,0.04,0.691c0,0,0,0,0,0.01
				c0.01,0.03,0.01,0.05,0.01,0.08c0.02,0.16,0.05,0.32,0.08,0.48c0.48,0.119,3.31,0.779,6.47,0.34c1.99-0.28,3.49-0.86,4.41-1.311
				c0.76-0.359,1.25-0.699,1.44-0.84C257.089,479.15,256.569,478.05,256.089,477.37z M248.569,480.51c-1.06,0-1.91-0.85-1.91-1.91
				c0-1.05,0.85-1.899,1.91-1.899c1.05,0,1.91,0.85,1.91,1.899C250.479,479.66,249.619,480.51,248.569,480.51z M254.149,479.11
				c-0.65,0-1.181-0.53-1.181-1.191c0-0.65,0.53-1.18,1.181-1.18c0.649,0,1.18,0.529,1.18,1.18
				C255.329,478.58,254.799,479.11,254.149,479.11z"/>
		</g>
	</g>
</g>
</svg>
